G04 #@! TF.GenerationSoftware,KiCad,Pcbnew,(6.0.1)*
G04 #@! TF.CreationDate,2022-11-09T13:11:14-03:00*
G04 #@! TF.ProjectId,PANEL-COMPLETE,50414e45-4c2d-4434-9f4d-504c4554452e,Rev 3*
G04 #@! TF.SameCoordinates,Original*
G04 #@! TF.FileFunction,Soldermask,Top*
G04 #@! TF.FilePolarity,Negative*
%FSLAX46Y46*%
G04 Gerber Fmt 4.6, Leading zero omitted, Abs format (unit mm)*
G04 Created by KiCad (PCBNEW (6.0.1)) date 2022-11-09 13:11:14*
%MOMM*%
%LPD*%
G01*
G04 APERTURE LIST*
G04 Aperture macros list*
%AMRoundRect*
0 Rectangle with rounded corners*
0 $1 Rounding radius*
0 $2 $3 $4 $5 $6 $7 $8 $9 X,Y pos of 4 corners*
0 Add a 4 corners polygon primitive as box body*
4,1,4,$2,$3,$4,$5,$6,$7,$8,$9,$2,$3,0*
0 Add four circle primitives for the rounded corners*
1,1,$1+$1,$2,$3*
1,1,$1+$1,$4,$5*
1,1,$1+$1,$6,$7*
1,1,$1+$1,$8,$9*
0 Add four rect primitives between the rounded corners*
20,1,$1+$1,$2,$3,$4,$5,0*
20,1,$1+$1,$4,$5,$6,$7,0*
20,1,$1+$1,$6,$7,$8,$9,0*
20,1,$1+$1,$8,$9,$2,$3,0*%
%AMRotRect*
0 Rectangle, with rotation*
0 The origin of the aperture is its center*
0 $1 length*
0 $2 width*
0 $3 Rotation angle, in degrees counterclockwise*
0 Add horizontal line*
21,1,$1,$2,0,0,$3*%
%AMFreePoly0*
4,1,22,0.500000,-0.750000,0.000000,-0.750000,0.000000,-0.745033,-0.079941,-0.743568,-0.215256,-0.701293,-0.333266,-0.622738,-0.424486,-0.514219,-0.481581,-0.384460,-0.499164,-0.250000,-0.500000,-0.250000,-0.500000,0.250000,-0.499164,0.250000,-0.499963,0.256109,-0.478152,0.396186,-0.417904,0.524511,-0.324060,0.630769,-0.204165,0.706417,-0.067858,0.745374,0.000000,0.744959,0.000000,0.750000,
0.500000,0.750000,0.500000,-0.750000,0.500000,-0.750000,$1*%
%AMFreePoly1*
4,1,20,0.000000,0.744959,0.073905,0.744508,0.209726,0.703889,0.328688,0.626782,0.421226,0.519385,0.479903,0.390333,0.500000,0.250000,0.500000,-0.250000,0.499851,-0.262216,0.476331,-0.402017,0.414519,-0.529596,0.319384,-0.634700,0.198574,-0.708877,0.061801,-0.746166,0.000000,-0.745033,0.000000,-0.750000,-0.500000,-0.750000,-0.500000,0.750000,0.000000,0.750000,0.000000,0.744959,
0.000000,0.744959,$1*%
%AMFreePoly2*
4,1,22,0.550000,-0.750000,0.000000,-0.750000,0.000000,-0.745033,-0.079941,-0.743568,-0.215256,-0.701293,-0.333266,-0.622738,-0.424486,-0.514219,-0.481581,-0.384460,-0.499164,-0.250000,-0.500000,-0.250000,-0.500000,0.250000,-0.499164,0.250000,-0.499963,0.256109,-0.478152,0.396186,-0.417904,0.524511,-0.324060,0.630769,-0.204165,0.706417,-0.067858,0.745374,0.000000,0.744959,0.000000,0.750000,
0.550000,0.750000,0.550000,-0.750000,0.550000,-0.750000,$1*%
%AMFreePoly3*
4,1,20,0.000000,0.744959,0.073905,0.744508,0.209726,0.703889,0.328688,0.626782,0.421226,0.519385,0.479903,0.390333,0.500000,0.250000,0.500000,-0.250000,0.499851,-0.262216,0.476331,-0.402017,0.414519,-0.529596,0.319384,-0.634700,0.198574,-0.708877,0.061801,-0.746166,0.000000,-0.745033,0.000000,-0.750000,-0.550000,-0.750000,-0.550000,0.750000,0.000000,0.750000,0.000000,0.744959,
0.000000,0.744959,$1*%
%AMFreePoly4*
4,1,14,0.266715,0.088284,0.363284,-0.008285,0.375000,-0.036569,0.375000,-0.060000,0.363284,-0.088284,0.335000,-0.100000,-0.335000,-0.100000,-0.363284,-0.088284,-0.375000,-0.060000,-0.375000,0.060000,-0.363284,0.088284,-0.335000,0.100000,0.238431,0.100000,0.266715,0.088284,0.266715,0.088284,$1*%
%AMFreePoly5*
4,1,14,0.363284,0.088284,0.375000,0.060000,0.375000,0.036569,0.363284,0.008285,0.266715,-0.088284,0.238431,-0.100000,-0.335000,-0.100000,-0.363284,-0.088284,-0.375000,-0.060000,-0.375000,0.060000,-0.363284,0.088284,-0.335000,0.100000,0.335000,0.100000,0.363284,0.088284,0.363284,0.088284,$1*%
%AMFreePoly6*
4,1,14,0.088284,0.363284,0.100000,0.335000,0.100000,-0.335000,0.088284,-0.363284,0.060000,-0.375000,-0.060000,-0.375000,-0.088284,-0.363284,-0.100000,-0.335000,-0.100000,0.238431,-0.088284,0.266715,0.008285,0.363284,0.036569,0.375000,0.060000,0.375000,0.088284,0.363284,0.088284,0.363284,$1*%
%AMFreePoly7*
4,1,14,-0.008285,0.363284,0.088284,0.266715,0.100000,0.238431,0.100000,-0.335000,0.088284,-0.363284,0.060000,-0.375000,-0.060000,-0.375000,-0.088284,-0.363284,-0.100000,-0.335000,-0.100000,0.335000,-0.088284,0.363284,-0.060000,0.375000,-0.036569,0.375000,-0.008285,0.363284,-0.008285,0.363284,$1*%
%AMFreePoly8*
4,1,14,0.363284,0.088284,0.375000,0.060000,0.375000,-0.060000,0.363284,-0.088284,0.335000,-0.100000,-0.238431,-0.100000,-0.266715,-0.088284,-0.363284,0.008285,-0.375000,0.036569,-0.375000,0.060000,-0.363284,0.088284,-0.335000,0.100000,0.335000,0.100000,0.363284,0.088284,0.363284,0.088284,$1*%
%AMFreePoly9*
4,1,14,0.363284,0.088284,0.375000,0.060000,0.375000,-0.060000,0.363284,-0.088284,0.335000,-0.100000,-0.335000,-0.100000,-0.363284,-0.088284,-0.375000,-0.060000,-0.375000,-0.036569,-0.363284,-0.008285,-0.266715,0.088284,-0.238431,0.100000,0.335000,0.100000,0.363284,0.088284,0.363284,0.088284,$1*%
%AMFreePoly10*
4,1,14,0.088284,0.363284,0.100000,0.335000,0.100000,-0.238431,0.088284,-0.266715,-0.008285,-0.363284,-0.036569,-0.375000,-0.060000,-0.375000,-0.088284,-0.363284,-0.100000,-0.335000,-0.100000,0.335000,-0.088284,0.363284,-0.060000,0.375000,0.060000,0.375000,0.088284,0.363284,0.088284,0.363284,$1*%
%AMFreePoly11*
4,1,14,0.088284,0.363284,0.100000,0.335000,0.100000,-0.335000,0.088284,-0.363284,0.060000,-0.375000,0.036569,-0.375000,0.008285,-0.363284,-0.088284,-0.266715,-0.100000,-0.238431,-0.100000,0.335000,-0.088284,0.363284,-0.060000,0.375000,0.060000,0.375000,0.088284,0.363284,0.088284,0.363284,$1*%
G04 Aperture macros list end*
%ADD10C,0.040481*%
%ADD11C,0.404812*%
%ADD12C,0.250000*%
%ADD13C,0.010000*%
%ADD14R,0.600000X0.310000*%
%ADD15R,1.500000X1.750000*%
%ADD16R,0.230000X0.825000*%
%ADD17RoundRect,0.225000X0.225000X0.250000X-0.225000X0.250000X-0.225000X-0.250000X0.225000X-0.250000X0*%
%ADD18C,2.200000*%
%ADD19RoundRect,0.200000X0.275000X-0.200000X0.275000X0.200000X-0.275000X0.200000X-0.275000X-0.200000X0*%
%ADD20RoundRect,0.225000X-0.250000X0.225000X-0.250000X-0.225000X0.250000X-0.225000X0.250000X0.225000X0*%
%ADD21C,0.650000*%
%ADD22R,0.600000X2.450000*%
%ADD23R,0.300000X2.450000*%
%ADD24FreePoly0,180.000000*%
%ADD25FreePoly1,180.000000*%
%ADD26R,1.100000X0.600000*%
%ADD27RotRect,1.100000X0.800000X135.000000*%
%ADD28C,0.500000*%
%ADD29RoundRect,0.101600X-0.599440X0.274320X-0.599440X-0.274320X0.599440X-0.274320X0.599440X0.274320X0*%
%ADD30C,4.000000*%
%ADD31RoundRect,1.000000X1.000000X1.000000X-1.000000X1.000000X-1.000000X-1.000000X1.000000X-1.000000X0*%
%ADD32RoundRect,0.218750X0.026517X-0.335876X0.335876X-0.026517X-0.026517X0.335876X-0.335876X0.026517X0*%
%ADD33RoundRect,0.200000X-0.200000X-0.275000X0.200000X-0.275000X0.200000X0.275000X-0.200000X0.275000X0*%
%ADD34FreePoly2,180.000000*%
%ADD35R,1.000000X1.500000*%
%ADD36FreePoly3,180.000000*%
%ADD37FreePoly0,270.000000*%
%ADD38FreePoly1,270.000000*%
%ADD39RoundRect,1.000000X-1.000000X1.000000X-1.000000X-1.000000X1.000000X-1.000000X1.000000X1.000000X0*%
%ADD40RoundRect,0.200000X-0.275000X0.200000X-0.275000X-0.200000X0.275000X-0.200000X0.275000X0.200000X0*%
%ADD41RoundRect,0.140000X-0.140000X-0.170000X0.140000X-0.170000X0.140000X0.170000X-0.140000X0.170000X0*%
%ADD42R,6.000000X2.000000*%
%ADD43C,2.000000*%
%ADD44C,1.600000*%
%ADD45O,1.600000X1.600000*%
%ADD46RoundRect,0.140000X0.170000X-0.140000X0.170000X0.140000X-0.170000X0.140000X-0.170000X-0.140000X0*%
%ADD47C,2.600000*%
%ADD48C,3.800000*%
%ADD49R,0.800000X0.600000*%
%ADD50RoundRect,0.140000X-0.170000X0.140000X-0.170000X-0.140000X0.170000X-0.140000X0.170000X0.140000X0*%
%ADD51RoundRect,1.000000X1.000000X-1.000000X1.000000X1.000000X-1.000000X1.000000X-1.000000X-1.000000X0*%
%ADD52RoundRect,0.075000X-0.662500X-0.075000X0.662500X-0.075000X0.662500X0.075000X-0.662500X0.075000X0*%
%ADD53RoundRect,0.075000X-0.075000X-0.662500X0.075000X-0.662500X0.075000X0.662500X-0.075000X0.662500X0*%
%ADD54RoundRect,0.218750X-0.218750X-0.256250X0.218750X-0.256250X0.218750X0.256250X-0.218750X0.256250X0*%
%ADD55RoundRect,0.350000X0.350000X-0.350000X0.350000X0.350000X-0.350000X0.350000X-0.350000X-0.350000X0*%
%ADD56R,1.100000X0.800000*%
%ADD57R,0.600000X0.800000*%
%ADD58R,1.700000X1.700000*%
%ADD59O,1.700000X1.700000*%
%ADD60RoundRect,0.140000X0.140000X0.170000X-0.140000X0.170000X-0.140000X-0.170000X0.140000X-0.170000X0*%
%ADD61FreePoly2,0.000000*%
%ADD62FreePoly3,0.000000*%
%ADD63RoundRect,0.225000X0.250000X-0.225000X0.250000X0.225000X-0.250000X0.225000X-0.250000X-0.225000X0*%
%ADD64RoundRect,0.218750X0.218750X0.256250X-0.218750X0.256250X-0.218750X-0.256250X0.218750X-0.256250X0*%
%ADD65R,1.400000X0.300000*%
%ADD66RoundRect,0.218750X0.335876X0.026517X0.026517X0.335876X-0.335876X-0.026517X-0.026517X-0.335876X0*%
%ADD67FreePoly4,0.000000*%
%ADD68RoundRect,0.050000X-0.325000X-0.050000X0.325000X-0.050000X0.325000X0.050000X-0.325000X0.050000X0*%
%ADD69FreePoly5,0.000000*%
%ADD70FreePoly6,0.000000*%
%ADD71RoundRect,0.050000X-0.050000X-0.325000X0.050000X-0.325000X0.050000X0.325000X-0.050000X0.325000X0*%
%ADD72FreePoly7,0.000000*%
%ADD73FreePoly8,0.000000*%
%ADD74FreePoly9,0.000000*%
%ADD75FreePoly10,0.000000*%
%ADD76FreePoly11,0.000000*%
%ADD77R,1.750000X1.600000*%
%ADD78R,0.800000X1.100000*%
%ADD79RoundRect,0.135000X0.135000X0.185000X-0.135000X0.185000X-0.135000X-0.185000X0.135000X-0.185000X0*%
%ADD80FreePoly0,90.000000*%
%ADD81FreePoly1,90.000000*%
%ADD82C,0.990600*%
%ADD83C,0.787400*%
%ADD84RoundRect,0.200000X0.200000X0.275000X-0.200000X0.275000X-0.200000X-0.275000X0.200000X-0.275000X0*%
%ADD85RoundRect,0.135000X-0.135000X-0.185000X0.135000X-0.185000X0.135000X0.185000X-0.135000X0.185000X0*%
%ADD86RoundRect,0.225000X-0.225000X-0.250000X0.225000X-0.250000X0.225000X0.250000X-0.225000X0.250000X0*%
%ADD87RoundRect,0.250000X-0.350000X-0.625000X0.350000X-0.625000X0.350000X0.625000X-0.350000X0.625000X0*%
%ADD88O,1.200000X1.750000*%
G04 APERTURE END LIST*
D10*
X173752413Y-57374167D02*
X173752413Y-57518281D01*
X173752413Y-57518281D02*
X173608300Y-57518281D01*
X173608300Y-57518281D02*
X173608300Y-57374167D01*
X173608300Y-57374167D02*
X173752413Y-57374167D01*
X173752413Y-57374167D02*
X173752413Y-57374167D01*
G36*
X173752413Y-57518281D02*
G01*
X173608300Y-57518281D01*
X173608300Y-57374167D01*
X173752413Y-57374167D01*
X173752413Y-57518281D01*
G37*
X173752413Y-57518281D02*
X173608300Y-57518281D01*
X173608300Y-57374167D01*
X173752413Y-57374167D01*
X173752413Y-57518281D01*
D11*
X231725813Y-197838443D02*
X231689739Y-197872840D01*
D12*
X188974515Y-239034580D02*
X188498324Y-239034580D01*
X188498324Y-238034580D01*
X189307848Y-239034580D02*
X189307848Y-238367914D01*
X189307848Y-238034580D02*
X189260229Y-238082200D01*
X189307848Y-238129819D01*
X189355467Y-238082200D01*
X189307848Y-238034580D01*
X189307848Y-238129819D01*
X190212610Y-238986961D02*
X190117372Y-239034580D01*
X189926896Y-239034580D01*
X189831658Y-238986961D01*
X189784039Y-238939342D01*
X189736420Y-238844104D01*
X189736420Y-238558390D01*
X189784039Y-238463152D01*
X189831658Y-238415533D01*
X189926896Y-238367914D01*
X190117372Y-238367914D01*
X190212610Y-238415533D01*
X191022134Y-238986961D02*
X190926896Y-239034580D01*
X190736420Y-239034580D01*
X190641182Y-238986961D01*
X190593563Y-238891723D01*
X190593563Y-238510771D01*
X190641182Y-238415533D01*
X190736420Y-238367914D01*
X190926896Y-238367914D01*
X191022134Y-238415533D01*
X191069753Y-238510771D01*
X191069753Y-238606009D01*
X190593563Y-238701247D01*
X191498324Y-238367914D02*
X191498324Y-239034580D01*
X191498324Y-238463152D02*
X191545944Y-238415533D01*
X191641182Y-238367914D01*
X191784039Y-238367914D01*
X191879277Y-238415533D01*
X191926896Y-238510771D01*
X191926896Y-239034580D01*
X192355467Y-238986961D02*
X192450705Y-239034580D01*
X192641182Y-239034580D01*
X192736420Y-238986961D01*
X192784039Y-238891723D01*
X192784039Y-238844104D01*
X192736420Y-238748866D01*
X192641182Y-238701247D01*
X192498324Y-238701247D01*
X192403086Y-238653628D01*
X192355467Y-238558390D01*
X192355467Y-238510771D01*
X192403086Y-238415533D01*
X192498324Y-238367914D01*
X192641182Y-238367914D01*
X192736420Y-238415533D01*
X193593563Y-238986961D02*
X193498324Y-239034580D01*
X193307848Y-239034580D01*
X193212610Y-238986961D01*
X193164991Y-238891723D01*
X193164991Y-238510771D01*
X193212610Y-238415533D01*
X193307848Y-238367914D01*
X193498324Y-238367914D01*
X193593563Y-238415533D01*
X193641182Y-238510771D01*
X193641182Y-238606009D01*
X193164991Y-238701247D01*
X194498325Y-239034580D02*
X194498325Y-238034580D01*
X194498325Y-238986961D02*
X194403086Y-239034580D01*
X194212610Y-239034580D01*
X194117372Y-238986961D01*
X194069753Y-238939342D01*
X194022134Y-238844104D01*
X194022134Y-238558390D01*
X194069753Y-238463152D01*
X194117372Y-238415533D01*
X194212610Y-238367914D01*
X194403086Y-238367914D01*
X194498325Y-238415533D01*
X196164991Y-238367914D02*
X196164991Y-239034580D01*
X195736420Y-238367914D02*
X195736420Y-238891723D01*
X195784039Y-238986961D01*
X195879277Y-239034580D01*
X196022134Y-239034580D01*
X196117372Y-238986961D01*
X196164991Y-238939342D01*
X196641182Y-238367914D02*
X196641182Y-239034580D01*
X196641182Y-238463152D02*
X196688801Y-238415533D01*
X196784039Y-238367914D01*
X196926896Y-238367914D01*
X197022134Y-238415533D01*
X197069753Y-238510771D01*
X197069753Y-239034580D01*
X197974515Y-239034580D02*
X197974515Y-238034580D01*
X197974515Y-238986961D02*
X197879277Y-239034580D01*
X197688801Y-239034580D01*
X197593563Y-238986961D01*
X197545944Y-238939342D01*
X197498325Y-238844104D01*
X197498325Y-238558390D01*
X197545944Y-238463152D01*
X197593563Y-238415533D01*
X197688801Y-238367914D01*
X197879277Y-238367914D01*
X197974515Y-238415533D01*
X198831658Y-238986961D02*
X198736420Y-239034580D01*
X198545944Y-239034580D01*
X198450705Y-238986961D01*
X198403086Y-238891723D01*
X198403086Y-238510771D01*
X198450705Y-238415533D01*
X198545944Y-238367914D01*
X198736420Y-238367914D01*
X198831658Y-238415533D01*
X198879277Y-238510771D01*
X198879277Y-238606009D01*
X198403086Y-238701247D01*
X199307848Y-239034580D02*
X199307848Y-238367914D01*
X199307848Y-238558390D02*
X199355467Y-238463152D01*
X199403086Y-238415533D01*
X199498325Y-238367914D01*
X199593563Y-238367914D01*
X201260229Y-238939342D02*
X201212610Y-238986961D01*
X201069753Y-239034580D01*
X200974515Y-239034580D01*
X200831658Y-238986961D01*
X200736420Y-238891723D01*
X200688801Y-238796485D01*
X200641182Y-238606009D01*
X200641182Y-238463152D01*
X200688801Y-238272676D01*
X200736420Y-238177438D01*
X200831658Y-238082200D01*
X200974515Y-238034580D01*
X201069753Y-238034580D01*
X201212610Y-238082200D01*
X201260229Y-238129819D01*
X201688801Y-238510771D02*
X202022134Y-238510771D01*
X202164991Y-239034580D02*
X201688801Y-239034580D01*
X201688801Y-238034580D01*
X202164991Y-238034580D01*
X203164991Y-239034580D02*
X202831658Y-238558390D01*
X202593563Y-239034580D02*
X202593563Y-238034580D01*
X202974515Y-238034580D01*
X203069753Y-238082200D01*
X203117372Y-238129819D01*
X203164991Y-238225057D01*
X203164991Y-238367914D01*
X203117372Y-238463152D01*
X203069753Y-238510771D01*
X202974515Y-238558390D01*
X202593563Y-238558390D01*
X203593563Y-239034580D02*
X203593563Y-238034580D01*
X204164991Y-239034580D01*
X204164991Y-238034580D01*
X204641182Y-238653628D02*
X205403086Y-238653628D01*
X206069753Y-238034580D02*
X206260229Y-238034580D01*
X206355467Y-238082200D01*
X206450705Y-238177438D01*
X206498325Y-238367914D01*
X206498325Y-238701247D01*
X206450705Y-238891723D01*
X206355467Y-238986961D01*
X206260229Y-239034580D01*
X206069753Y-239034580D01*
X205974515Y-238986961D01*
X205879277Y-238891723D01*
X205831658Y-238701247D01*
X205831658Y-238367914D01*
X205879277Y-238177438D01*
X205974515Y-238082200D01*
X206069753Y-238034580D01*
X206926896Y-239034580D02*
X206926896Y-238034580D01*
X206926896Y-238510771D02*
X207498325Y-238510771D01*
X207498325Y-239034580D02*
X207498325Y-238034580D01*
X208450705Y-239034580D02*
X207974515Y-239034580D01*
X207974515Y-238034580D01*
X208784039Y-238653628D02*
X209545944Y-238653628D01*
X209974515Y-238986961D02*
X210117372Y-239034580D01*
X210355467Y-239034580D01*
X210450705Y-238986961D01*
X210498325Y-238939342D01*
X210545944Y-238844104D01*
X210545944Y-238748866D01*
X210498325Y-238653628D01*
X210450705Y-238606009D01*
X210355467Y-238558390D01*
X210164991Y-238510771D01*
X210069753Y-238463152D01*
X210022134Y-238415533D01*
X209974515Y-238320295D01*
X209974515Y-238225057D01*
X210022134Y-238129819D01*
X210069753Y-238082200D01*
X210164991Y-238034580D01*
X210403086Y-238034580D01*
X210545944Y-238082200D01*
X211641182Y-238367914D02*
X211879277Y-239034580D01*
X212117372Y-238367914D01*
X212450705Y-238129819D02*
X212498325Y-238082200D01*
X212593563Y-238034580D01*
X212831658Y-238034580D01*
X212926896Y-238082200D01*
X212974515Y-238129819D01*
X213022134Y-238225057D01*
X213022134Y-238320295D01*
X212974515Y-238463152D01*
X212403086Y-239034580D01*
X213022134Y-239034580D01*
X214355467Y-239034580D02*
X214260229Y-238986961D01*
X214212610Y-238939342D01*
X214164991Y-238844104D01*
X214164991Y-238558390D01*
X214212610Y-238463152D01*
X214260229Y-238415533D01*
X214355467Y-238367914D01*
X214498324Y-238367914D01*
X214593563Y-238415533D01*
X214641182Y-238463152D01*
X214688801Y-238558390D01*
X214688801Y-238844104D01*
X214641182Y-238939342D01*
X214593563Y-238986961D01*
X214498324Y-239034580D01*
X214355467Y-239034580D01*
X215117372Y-239034580D02*
X215117372Y-238367914D01*
X215117372Y-238558390D02*
X215164991Y-238463152D01*
X215212610Y-238415533D01*
X215307848Y-238367914D01*
X215403086Y-238367914D01*
X216641182Y-239034580D02*
X216545944Y-238986961D01*
X216498324Y-238891723D01*
X216498324Y-238034580D01*
X217450705Y-239034580D02*
X217450705Y-238510771D01*
X217403086Y-238415533D01*
X217307848Y-238367914D01*
X217117372Y-238367914D01*
X217022134Y-238415533D01*
X217450705Y-238986961D02*
X217355467Y-239034580D01*
X217117372Y-239034580D01*
X217022134Y-238986961D01*
X216974515Y-238891723D01*
X216974515Y-238796485D01*
X217022134Y-238701247D01*
X217117372Y-238653628D01*
X217355467Y-238653628D01*
X217450705Y-238606009D01*
X217784039Y-238367914D02*
X218164991Y-238367914D01*
X217926896Y-238034580D02*
X217926896Y-238891723D01*
X217974515Y-238986961D01*
X218069753Y-239034580D01*
X218164991Y-239034580D01*
X218879277Y-238986961D02*
X218784039Y-239034580D01*
X218593563Y-239034580D01*
X218498324Y-238986961D01*
X218450705Y-238891723D01*
X218450705Y-238510771D01*
X218498324Y-238415533D01*
X218593563Y-238367914D01*
X218784039Y-238367914D01*
X218879277Y-238415533D01*
X218926896Y-238510771D01*
X218926896Y-238606009D01*
X218450705Y-238701247D01*
X219355467Y-239034580D02*
X219355467Y-238367914D01*
X219355467Y-238558390D02*
X219403086Y-238463152D01*
X219450705Y-238415533D01*
X219545944Y-238367914D01*
X219641182Y-238367914D01*
D13*
X203991370Y-235182837D02*
X203919302Y-235182822D01*
X203919302Y-235182822D02*
X203470569Y-235182822D01*
X203470569Y-235182822D02*
X203447991Y-235170639D01*
X203447991Y-235170639D02*
X203429867Y-235158986D01*
X203429867Y-235158986D02*
X203413343Y-235145430D01*
X203413343Y-235145430D02*
X203410338Y-235142417D01*
X203410338Y-235142417D02*
X203405249Y-235134959D01*
X203405249Y-235134959D02*
X203395231Y-235118386D01*
X203395231Y-235118386D02*
X203380738Y-235093507D01*
X203380738Y-235093507D02*
X203362225Y-235061127D01*
X203362225Y-235061127D02*
X203340145Y-235022056D01*
X203340145Y-235022056D02*
X203314954Y-234977102D01*
X203314954Y-234977102D02*
X203287106Y-234927071D01*
X203287106Y-234927071D02*
X203257054Y-234872772D01*
X203257054Y-234872772D02*
X203225254Y-234815012D01*
X203225254Y-234815012D02*
X203192159Y-234754599D01*
X203192159Y-234754599D02*
X203190204Y-234751022D01*
X203190204Y-234751022D02*
X202985147Y-234375667D01*
X202985147Y-234375667D02*
X202985147Y-234333333D01*
X202985147Y-234333333D02*
X202986931Y-234300954D01*
X202986931Y-234300954D02*
X202992197Y-234278267D01*
X202992197Y-234278267D02*
X202994118Y-234274067D01*
X202994118Y-234274067D02*
X202998468Y-234266189D01*
X202998468Y-234266189D02*
X203007869Y-234249404D01*
X203007869Y-234249404D02*
X203021805Y-234224624D01*
X203021805Y-234224624D02*
X203039762Y-234192762D01*
X203039762Y-234192762D02*
X203061223Y-234154732D01*
X203061223Y-234154732D02*
X203085674Y-234111447D01*
X203085674Y-234111447D02*
X203112600Y-234063820D01*
X203112600Y-234063820D02*
X203141484Y-234012764D01*
X203141484Y-234012764D02*
X203170507Y-233961496D01*
X203170507Y-233961496D02*
X203200469Y-233908556D01*
X203200469Y-233908556D02*
X203228713Y-233858592D01*
X203228713Y-233858592D02*
X203254758Y-233812459D01*
X203254758Y-233812459D02*
X203278123Y-233771011D01*
X203278123Y-233771011D02*
X203298327Y-233735103D01*
X203298327Y-233735103D02*
X203314890Y-233705589D01*
X203314890Y-233705589D02*
X203327331Y-233683323D01*
X203327331Y-233683323D02*
X203335170Y-233669160D01*
X203335170Y-233669160D02*
X203337924Y-233663954D01*
X203337924Y-233663954D02*
X203337925Y-233663950D01*
X203337925Y-233663950D02*
X203332488Y-233663474D01*
X203332488Y-233663474D02*
X203317009Y-233662955D01*
X203317009Y-233662955D02*
X203292735Y-233662414D01*
X203292735Y-233662414D02*
X203260911Y-233661871D01*
X203260911Y-233661871D02*
X203222785Y-233661349D01*
X203222785Y-233661349D02*
X203179603Y-233660868D01*
X203179603Y-233660868D02*
X203132611Y-233660449D01*
X203132611Y-233660449D02*
X203130491Y-233660432D01*
X203130491Y-233660432D02*
X203073451Y-233659958D01*
X203073451Y-233659958D02*
X203026511Y-233659385D01*
X203026511Y-233659385D02*
X202988483Y-233658532D01*
X202988483Y-233658532D02*
X202958177Y-233657220D01*
X202958177Y-233657220D02*
X202934406Y-233655267D01*
X202934406Y-233655267D02*
X202915980Y-233652492D01*
X202915980Y-233652492D02*
X202901711Y-233648715D01*
X202901711Y-233648715D02*
X202890411Y-233643756D01*
X202890411Y-233643756D02*
X202880891Y-233637433D01*
X202880891Y-233637433D02*
X202871963Y-233629567D01*
X202871963Y-233629567D02*
X202862437Y-233619976D01*
X202862437Y-233619976D02*
X202862118Y-233619647D01*
X202862118Y-233619647D02*
X202856774Y-233612388D01*
X202856774Y-233612388D02*
X202846165Y-233596422D01*
X202846165Y-233596422D02*
X202830875Y-233572698D01*
X202830875Y-233572698D02*
X202811487Y-233542164D01*
X202811487Y-233542164D02*
X202788585Y-233505771D01*
X202788585Y-233505771D02*
X202762753Y-233464465D01*
X202762753Y-233464465D02*
X202734575Y-233419196D01*
X202734575Y-233419196D02*
X202704634Y-233370913D01*
X202704634Y-233370913D02*
X202673514Y-233320564D01*
X202673514Y-233320564D02*
X202641799Y-233269099D01*
X202641799Y-233269099D02*
X202610073Y-233217466D01*
X202610073Y-233217466D02*
X202578919Y-233166613D01*
X202578919Y-233166613D02*
X202548921Y-233117490D01*
X202548921Y-233117490D02*
X202520663Y-233071045D01*
X202520663Y-233071045D02*
X202494728Y-233028227D01*
X202494728Y-233028227D02*
X202471701Y-232989985D01*
X202471701Y-232989985D02*
X202452164Y-232957267D01*
X202452164Y-232957267D02*
X202436702Y-232931023D01*
X202436702Y-232931023D02*
X202425899Y-232912201D01*
X202425899Y-232912201D02*
X202420338Y-232901750D01*
X202420338Y-232901750D02*
X202420108Y-232901237D01*
X202420108Y-232901237D02*
X202414019Y-232877820D01*
X202414019Y-232877820D02*
X202412306Y-232849273D01*
X202412306Y-232849273D02*
X202414837Y-232820561D01*
X202414837Y-232820561D02*
X202421482Y-232796653D01*
X202421482Y-232796653D02*
X202422929Y-232793586D01*
X202422929Y-232793586D02*
X202426960Y-232786377D01*
X202426960Y-232786377D02*
X202436363Y-232769969D01*
X202436363Y-232769969D02*
X202450816Y-232744915D01*
X202450816Y-232744915D02*
X202470000Y-232711765D01*
X202470000Y-232711765D02*
X202493593Y-232671071D01*
X202493593Y-232671071D02*
X202521276Y-232623384D01*
X202521276Y-232623384D02*
X202552728Y-232569255D01*
X202552728Y-232569255D02*
X202587629Y-232509235D01*
X202587629Y-232509235D02*
X202625658Y-232443876D01*
X202625658Y-232443876D02*
X202666494Y-232373728D01*
X202666494Y-232373728D02*
X202709818Y-232299343D01*
X202709818Y-232299343D02*
X202755308Y-232221273D01*
X202755308Y-232221273D02*
X202802645Y-232140067D01*
X202802645Y-232140067D02*
X202851508Y-232056279D01*
X202851508Y-232056279D02*
X202863311Y-232036044D01*
X202863311Y-232036044D02*
X203293000Y-231299444D01*
X203293000Y-231299444D02*
X203074162Y-231296622D01*
X203074162Y-231296622D02*
X203018567Y-231295883D01*
X203018567Y-231295883D02*
X202973101Y-231295193D01*
X202973101Y-231295193D02*
X202936605Y-231294479D01*
X202936605Y-231294479D02*
X202907920Y-231293670D01*
X202907920Y-231293670D02*
X202885887Y-231292693D01*
X202885887Y-231292693D02*
X202869346Y-231291477D01*
X202869346Y-231291477D02*
X202857139Y-231289949D01*
X202857139Y-231289949D02*
X202848106Y-231288037D01*
X202848106Y-231288037D02*
X202841088Y-231285669D01*
X202841088Y-231285669D02*
X202834927Y-231282774D01*
X202834927Y-231282774D02*
X202832747Y-231281617D01*
X202832747Y-231281617D02*
X202814725Y-231269985D01*
X202814725Y-231269985D02*
X202798398Y-231256446D01*
X202798398Y-231256446D02*
X202795408Y-231253395D01*
X202795408Y-231253395D02*
X202790133Y-231245975D01*
X202790133Y-231245975D02*
X202779607Y-231229653D01*
X202779607Y-231229653D02*
X202764324Y-231205243D01*
X202764324Y-231205243D02*
X202744781Y-231173559D01*
X202744781Y-231173559D02*
X202721472Y-231135414D01*
X202721472Y-231135414D02*
X202694895Y-231091623D01*
X202694895Y-231091623D02*
X202665544Y-231042999D01*
X202665544Y-231042999D02*
X202633916Y-230990356D01*
X202633916Y-230990356D02*
X202600506Y-230934508D01*
X202600506Y-230934508D02*
X202572452Y-230887435D01*
X202572452Y-230887435D02*
X202364258Y-230537515D01*
X202364258Y-230537515D02*
X202364258Y-230495146D01*
X202364258Y-230495146D02*
X202364962Y-230470668D01*
X202364962Y-230470668D02*
X202367883Y-230452295D01*
X202367883Y-230452295D02*
X202374228Y-230434887D01*
X202374228Y-230434887D02*
X202382208Y-230418911D01*
X202382208Y-230418911D02*
X202424524Y-230339142D01*
X202424524Y-230339142D02*
X202469178Y-230255093D01*
X202469178Y-230255093D02*
X202515899Y-230167265D01*
X202515899Y-230167265D02*
X202564420Y-230076159D01*
X202564420Y-230076159D02*
X202614469Y-229982279D01*
X202614469Y-229982279D02*
X202665779Y-229886125D01*
X202665779Y-229886125D02*
X202718079Y-229788198D01*
X202718079Y-229788198D02*
X202771099Y-229689001D01*
X202771099Y-229689001D02*
X202824571Y-229589034D01*
X202824571Y-229589034D02*
X202878225Y-229488800D01*
X202878225Y-229488800D02*
X202931791Y-229388801D01*
X202931791Y-229388801D02*
X202985000Y-229289537D01*
X202985000Y-229289537D02*
X203037582Y-229191510D01*
X203037582Y-229191510D02*
X203089268Y-229095222D01*
X203089268Y-229095222D02*
X203139788Y-229001175D01*
X203139788Y-229001175D02*
X203188874Y-228909870D01*
X203188874Y-228909870D02*
X203236254Y-228821808D01*
X203236254Y-228821808D02*
X203281661Y-228737492D01*
X203281661Y-228737492D02*
X203324824Y-228657423D01*
X203324824Y-228657423D02*
X203365474Y-228582102D01*
X203365474Y-228582102D02*
X203403342Y-228512031D01*
X203403342Y-228512031D02*
X203438158Y-228447712D01*
X203438158Y-228447712D02*
X203469652Y-228389646D01*
X203469652Y-228389646D02*
X203497555Y-228338335D01*
X203497555Y-228338335D02*
X203521597Y-228294280D01*
X203521597Y-228294280D02*
X203541510Y-228257984D01*
X203541510Y-228257984D02*
X203557023Y-228229947D01*
X203557023Y-228229947D02*
X203567867Y-228210671D01*
X203567867Y-228210671D02*
X203573773Y-228200658D01*
X203573773Y-228200658D02*
X203574680Y-228199371D01*
X203574680Y-228199371D02*
X203580990Y-228192487D01*
X203580990Y-228192487D02*
X203586503Y-228186481D01*
X203586503Y-228186481D02*
X203591988Y-228181291D01*
X203591988Y-228181291D02*
X203598217Y-228176857D01*
X203598217Y-228176857D02*
X203605961Y-228173116D01*
X203605961Y-228173116D02*
X203615990Y-228170007D01*
X203615990Y-228170007D02*
X203629076Y-228167470D01*
X203629076Y-228167470D02*
X203645988Y-228165444D01*
X203645988Y-228165444D02*
X203667498Y-228163866D01*
X203667498Y-228163866D02*
X203694377Y-228162677D01*
X203694377Y-228162677D02*
X203727395Y-228161814D01*
X203727395Y-228161814D02*
X203767323Y-228161217D01*
X203767323Y-228161217D02*
X203814932Y-228160824D01*
X203814932Y-228160824D02*
X203870993Y-228160574D01*
X203870993Y-228160574D02*
X203936277Y-228160406D01*
X203936277Y-228160406D02*
X204011553Y-228160259D01*
X204011553Y-228160259D02*
X204068880Y-228160139D01*
X204068880Y-228160139D02*
X204138697Y-228160037D01*
X204138697Y-228160037D02*
X204205459Y-228160047D01*
X204205459Y-228160047D02*
X204268275Y-228160162D01*
X204268275Y-228160162D02*
X204326252Y-228160376D01*
X204326252Y-228160376D02*
X204378497Y-228160681D01*
X204378497Y-228160681D02*
X204424117Y-228161073D01*
X204424117Y-228161073D02*
X204462219Y-228161543D01*
X204462219Y-228161543D02*
X204491912Y-228162085D01*
X204491912Y-228162085D02*
X204512302Y-228162693D01*
X204512302Y-228162693D02*
X204522497Y-228163359D01*
X204522497Y-228163359D02*
X204523294Y-228163517D01*
X204523294Y-228163517D02*
X204557414Y-228178724D01*
X204557414Y-228178724D02*
X204585333Y-228200520D01*
X204585333Y-228200520D02*
X204586316Y-228201552D01*
X204586316Y-228201552D02*
X204591423Y-228208977D01*
X204591423Y-228208977D02*
X204601520Y-228225491D01*
X204601520Y-228225491D02*
X204616150Y-228250293D01*
X204616150Y-228250293D02*
X204634857Y-228282582D01*
X204634857Y-228282582D02*
X204657185Y-228321560D01*
X204657185Y-228321560D02*
X204682678Y-228366424D01*
X204682678Y-228366424D02*
X204710879Y-228416376D01*
X204710879Y-228416376D02*
X204741333Y-228470615D01*
X204741333Y-228470615D02*
X204773582Y-228528341D01*
X204773582Y-228528341D02*
X204807172Y-228588753D01*
X204807172Y-228588753D02*
X204811055Y-228595756D01*
X204811055Y-228595756D02*
X204960797Y-228865859D01*
X204960797Y-228865859D02*
X204636147Y-228865859D01*
X204636147Y-228865859D02*
X204633492Y-228860307D01*
X204633492Y-228860307D02*
X204625903Y-228845928D01*
X204625903Y-228845928D02*
X204613944Y-228823754D01*
X204613944Y-228823754D02*
X204598179Y-228794819D01*
X204598179Y-228794819D02*
X204579171Y-228760154D01*
X204579171Y-228760154D02*
X204557485Y-228720794D01*
X204557485Y-228720794D02*
X204533685Y-228677770D01*
X204533685Y-228677770D02*
X204519037Y-228651370D01*
X204519037Y-228651370D02*
X204401927Y-228440533D01*
X204401927Y-228440533D02*
X203903285Y-228440533D01*
X203903285Y-228440533D02*
X204008489Y-228655022D01*
X204008489Y-228655022D02*
X204113692Y-228869511D01*
X204113692Y-228869511D02*
X204374919Y-228869511D01*
X204374919Y-228869511D02*
X204428010Y-228869435D01*
X204428010Y-228869435D02*
X204477481Y-228869216D01*
X204477481Y-228869216D02*
X204522222Y-228868871D01*
X204522222Y-228868871D02*
X204561122Y-228868414D01*
X204561122Y-228868414D02*
X204593070Y-228867862D01*
X204593070Y-228867862D02*
X204616955Y-228867229D01*
X204616955Y-228867229D02*
X204631667Y-228866532D01*
X204631667Y-228866532D02*
X204636147Y-228865859D01*
X204636147Y-228865859D02*
X204960797Y-228865859D01*
X204960797Y-228865859D02*
X205020713Y-228973933D01*
X205020713Y-228973933D02*
X205018784Y-229016267D01*
X205018784Y-229016267D02*
X205016855Y-229058600D01*
X205016855Y-229058600D02*
X204958477Y-229160162D01*
X204958477Y-229160162D02*
X204629505Y-229160162D01*
X204629505Y-229160162D02*
X204628849Y-229158167D01*
X204628849Y-229158167D02*
X204625328Y-229156508D01*
X204625328Y-229156508D02*
X204618026Y-229155155D01*
X204618026Y-229155155D02*
X204606026Y-229154078D01*
X204606026Y-229154078D02*
X204588410Y-229153247D01*
X204588410Y-229153247D02*
X204564262Y-229152632D01*
X204564262Y-229152632D02*
X204532664Y-229152203D01*
X204532664Y-229152203D02*
X204492701Y-229151931D01*
X204492701Y-229151931D02*
X204443454Y-229151785D01*
X204443454Y-229151785D02*
X204384008Y-229151734D01*
X204384008Y-229151734D02*
X204371656Y-229151733D01*
X204371656Y-229151733D02*
X204111982Y-229151733D01*
X204111982Y-229151733D02*
X204101136Y-229167256D01*
X204101136Y-229167256D02*
X204096154Y-229175134D01*
X204096154Y-229175134D02*
X204086057Y-229191728D01*
X204086057Y-229191728D02*
X204071453Y-229216021D01*
X204071453Y-229216021D02*
X204052946Y-229246996D01*
X204052946Y-229246996D02*
X204031144Y-229283637D01*
X204031144Y-229283637D02*
X204006651Y-229324928D01*
X204006651Y-229324928D02*
X203980073Y-229369851D01*
X203980073Y-229369851D02*
X203952018Y-229417391D01*
X203952018Y-229417391D02*
X203950572Y-229419844D01*
X203950572Y-229419844D02*
X203922559Y-229467359D01*
X203922559Y-229467359D02*
X203896094Y-229512212D01*
X203896094Y-229512212D02*
X203871771Y-229553404D01*
X203871771Y-229553404D02*
X203850180Y-229589934D01*
X203850180Y-229589934D02*
X203831913Y-229620802D01*
X203831913Y-229620802D02*
X203817562Y-229645007D01*
X203817562Y-229645007D02*
X203807719Y-229661549D01*
X203807719Y-229661549D02*
X203802974Y-229669427D01*
X203802974Y-229669427D02*
X203802859Y-229669611D01*
X203802859Y-229669611D02*
X203794864Y-229682311D01*
X203794864Y-229682311D02*
X204064517Y-229682123D01*
X204064517Y-229682123D02*
X204334169Y-229681935D01*
X204334169Y-229681935D02*
X204480925Y-229425263D01*
X204480925Y-229425263D02*
X204509130Y-229375836D01*
X204509130Y-229375836D02*
X204535622Y-229329221D01*
X204535622Y-229329221D02*
X204559873Y-229286363D01*
X204559873Y-229286363D02*
X204581352Y-229248208D01*
X204581352Y-229248208D02*
X204599530Y-229215700D01*
X204599530Y-229215700D02*
X204613877Y-229189784D01*
X204613877Y-229189784D02*
X204623863Y-229171405D01*
X204623863Y-229171405D02*
X204628960Y-229161508D01*
X204628960Y-229161508D02*
X204629505Y-229160162D01*
X204629505Y-229160162D02*
X204958477Y-229160162D01*
X204958477Y-229160162D02*
X204838411Y-229369044D01*
X204838411Y-229369044D02*
X204659968Y-229679489D01*
X204659968Y-229679489D02*
X204866780Y-229682311D01*
X204866780Y-229682311D02*
X204923765Y-229683122D01*
X204923765Y-229683122D02*
X204970653Y-229683977D01*
X204970653Y-229683977D02*
X205008633Y-229685060D01*
X205008633Y-229685060D02*
X205038896Y-229686561D01*
X205038896Y-229686561D02*
X205062631Y-229688664D01*
X205062631Y-229688664D02*
X205081030Y-229691556D01*
X205081030Y-229691556D02*
X205095281Y-229695426D01*
X205095281Y-229695426D02*
X205106576Y-229700458D01*
X205106576Y-229700458D02*
X205116103Y-229706840D01*
X205116103Y-229706840D02*
X205125055Y-229714758D01*
X205125055Y-229714758D02*
X205134531Y-229724309D01*
X205134531Y-229724309D02*
X205139875Y-229731568D01*
X205139875Y-229731568D02*
X205150484Y-229747534D01*
X205150484Y-229747534D02*
X205165775Y-229771258D01*
X205165775Y-229771258D02*
X205185163Y-229801791D01*
X205185163Y-229801791D02*
X205208064Y-229838185D01*
X205208064Y-229838185D02*
X205233896Y-229879491D01*
X205233896Y-229879491D02*
X205262074Y-229924760D01*
X205262074Y-229924760D02*
X205292015Y-229973043D01*
X205292015Y-229973043D02*
X205323135Y-230023391D01*
X205323135Y-230023391D02*
X205354850Y-230074857D01*
X205354850Y-230074857D02*
X205386576Y-230126490D01*
X205386576Y-230126490D02*
X205417730Y-230177343D01*
X205417730Y-230177343D02*
X205447728Y-230226466D01*
X205447728Y-230226466D02*
X205475986Y-230272911D01*
X205475986Y-230272911D02*
X205501921Y-230315729D01*
X205501921Y-230315729D02*
X205520283Y-230346223D01*
X205520283Y-230346223D02*
X205187526Y-230346223D01*
X205187526Y-230346223D02*
X205184005Y-230339810D01*
X205184005Y-230339810D02*
X205175248Y-230324861D01*
X205175248Y-230324861D02*
X205161911Y-230302469D01*
X205161911Y-230302469D02*
X205144650Y-230273725D01*
X205144650Y-230273725D02*
X205124121Y-230239722D01*
X205124121Y-230239722D02*
X205100982Y-230201553D01*
X205100982Y-230201553D02*
X205075888Y-230160310D01*
X205075888Y-230160310D02*
X205070510Y-230151490D01*
X205070510Y-230151490D02*
X204956479Y-229964533D01*
X204956479Y-229964533D02*
X204236102Y-229964409D01*
X204236102Y-229964409D02*
X204131172Y-229964389D01*
X204131172Y-229964389D02*
X204036933Y-229964359D01*
X204036933Y-229964359D02*
X203952789Y-229964310D01*
X203952789Y-229964310D02*
X203878141Y-229964234D01*
X203878141Y-229964234D02*
X203812391Y-229964120D01*
X203812391Y-229964120D02*
X203754943Y-229963959D01*
X203754943Y-229963959D02*
X203705199Y-229963742D01*
X203705199Y-229963742D02*
X203662561Y-229963461D01*
X203662561Y-229963461D02*
X203626432Y-229963104D01*
X203626432Y-229963104D02*
X203596214Y-229962664D01*
X203596214Y-229962664D02*
X203571310Y-229962131D01*
X203571310Y-229962131D02*
X203551122Y-229961495D01*
X203551122Y-229961495D02*
X203535053Y-229960747D01*
X203535053Y-229960747D02*
X203522505Y-229959879D01*
X203522505Y-229959879D02*
X203512881Y-229958879D01*
X203512881Y-229958879D02*
X203505583Y-229957741D01*
X203505583Y-229957741D02*
X203500014Y-229956453D01*
X203500014Y-229956453D02*
X203495576Y-229955006D01*
X203495576Y-229955006D02*
X203491672Y-229953392D01*
X203491672Y-229953392D02*
X203490325Y-229952788D01*
X203490325Y-229952788D02*
X203457784Y-229933369D01*
X203457784Y-229933369D02*
X203433338Y-229907408D01*
X203433338Y-229907408D02*
X203419110Y-229882689D01*
X203419110Y-229882689D02*
X203408419Y-229848983D01*
X203408419Y-229848983D02*
X203406123Y-229813349D01*
X203406123Y-229813349D02*
X203412324Y-229779740D01*
X203412324Y-229779740D02*
X203416237Y-229769800D01*
X203416237Y-229769800D02*
X203420733Y-229761377D01*
X203420733Y-229761377D02*
X203430519Y-229744052D01*
X203430519Y-229744052D02*
X203445121Y-229718635D01*
X203445121Y-229718635D02*
X203464070Y-229685932D01*
X203464070Y-229685932D02*
X203486893Y-229646751D01*
X203486893Y-229646751D02*
X203513120Y-229601900D01*
X203513120Y-229601900D02*
X203542277Y-229552186D01*
X203542277Y-229552186D02*
X203573895Y-229498418D01*
X203573895Y-229498418D02*
X203607501Y-229441402D01*
X203607501Y-229441402D02*
X203642625Y-229381947D01*
X203642625Y-229381947D02*
X203644713Y-229378416D01*
X203644713Y-229378416D02*
X203679595Y-229319377D01*
X203679595Y-229319377D02*
X203712754Y-229263127D01*
X203712754Y-229263127D02*
X203743746Y-229210424D01*
X203743746Y-229210424D02*
X203772129Y-229162029D01*
X203772129Y-229162029D02*
X203797460Y-229118701D01*
X203797460Y-229118701D02*
X203819296Y-229081200D01*
X203819296Y-229081200D02*
X203837193Y-229050284D01*
X203837193Y-229050284D02*
X203850708Y-229026714D01*
X203850708Y-229026714D02*
X203859399Y-229011248D01*
X203859399Y-229011248D02*
X203862822Y-229004647D01*
X203862822Y-229004647D02*
X203862858Y-229004493D01*
X203862858Y-229004493D02*
X203860459Y-228998670D01*
X203860459Y-228998670D02*
X203853701Y-228984221D01*
X203853701Y-228984221D02*
X203843240Y-228962465D01*
X203843240Y-228962465D02*
X203829731Y-228934722D01*
X203829731Y-228934722D02*
X203813831Y-228902310D01*
X203813831Y-228902310D02*
X203796196Y-228866551D01*
X203796196Y-228866551D02*
X203777482Y-228828761D01*
X203777482Y-228828761D02*
X203758344Y-228790263D01*
X203758344Y-228790263D02*
X203739441Y-228752373D01*
X203739441Y-228752373D02*
X203721426Y-228716413D01*
X203721426Y-228716413D02*
X203704957Y-228683701D01*
X203704957Y-228683701D02*
X203690690Y-228655557D01*
X203690690Y-228655557D02*
X203679280Y-228633300D01*
X203679280Y-228633300D02*
X203671384Y-228618250D01*
X203671384Y-228618250D02*
X203667658Y-228611726D01*
X203667658Y-228611726D02*
X203667463Y-228611566D01*
X203667463Y-228611566D02*
X203664740Y-228616582D01*
X203664740Y-228616582D02*
X203656974Y-228631053D01*
X203656974Y-228631053D02*
X203644432Y-228654471D01*
X203644432Y-228654471D02*
X203627387Y-228686331D01*
X203627387Y-228686331D02*
X203606108Y-228726128D01*
X203606108Y-228726128D02*
X203580866Y-228773356D01*
X203580866Y-228773356D02*
X203551930Y-228827509D01*
X203551930Y-228827509D02*
X203519571Y-228888081D01*
X203519571Y-228888081D02*
X203484059Y-228954567D01*
X203484059Y-228954567D02*
X203445664Y-229026460D01*
X203445664Y-229026460D02*
X203404656Y-229103255D01*
X203404656Y-229103255D02*
X203361306Y-229184446D01*
X203361306Y-229184446D02*
X203315884Y-229269527D01*
X203315884Y-229269527D02*
X203268659Y-229357993D01*
X203268659Y-229357993D02*
X203219903Y-229449337D01*
X203219903Y-229449337D02*
X203203025Y-229480960D01*
X203203025Y-229480960D02*
X203153812Y-229573181D01*
X203153812Y-229573181D02*
X203106050Y-229662710D01*
X203106050Y-229662710D02*
X203060010Y-229749038D01*
X203060010Y-229749038D02*
X203015960Y-229831659D01*
X203015960Y-229831659D02*
X202974170Y-229910068D01*
X202974170Y-229910068D02*
X202934910Y-229983756D01*
X202934910Y-229983756D02*
X202898450Y-230052217D01*
X202898450Y-230052217D02*
X202865060Y-230114946D01*
X202865060Y-230114946D02*
X202835008Y-230171434D01*
X202835008Y-230171434D02*
X202808565Y-230221177D01*
X202808565Y-230221177D02*
X202786000Y-230263666D01*
X202786000Y-230263666D02*
X202767583Y-230298395D01*
X202767583Y-230298395D02*
X202753584Y-230324859D01*
X202753584Y-230324859D02*
X202744272Y-230342549D01*
X202744272Y-230342549D02*
X202739917Y-230350960D01*
X202739917Y-230350960D02*
X202739613Y-230351615D01*
X202739613Y-230351615D02*
X202745172Y-230351843D01*
X202745172Y-230351843D02*
X202761507Y-230352064D01*
X202761507Y-230352064D02*
X202788106Y-230352278D01*
X202788106Y-230352278D02*
X202824454Y-230352485D01*
X202824454Y-230352485D02*
X202870040Y-230352683D01*
X202870040Y-230352683D02*
X202924350Y-230352871D01*
X202924350Y-230352871D02*
X202986872Y-230353048D01*
X202986872Y-230353048D02*
X203057093Y-230353213D01*
X203057093Y-230353213D02*
X203134500Y-230353365D01*
X203134500Y-230353365D02*
X203218580Y-230353503D01*
X203218580Y-230353503D02*
X203308821Y-230353627D01*
X203308821Y-230353627D02*
X203404708Y-230353734D01*
X203404708Y-230353734D02*
X203505731Y-230353825D01*
X203505731Y-230353825D02*
X203611374Y-230353898D01*
X203611374Y-230353898D02*
X203721127Y-230353952D01*
X203721127Y-230353952D02*
X203834475Y-230353987D01*
X203834475Y-230353987D02*
X203950907Y-230354000D01*
X203950907Y-230354000D02*
X203965062Y-230354000D01*
X203965062Y-230354000D02*
X204105886Y-230353992D01*
X204105886Y-230353992D02*
X204235834Y-230353965D01*
X204235834Y-230353965D02*
X204355319Y-230353918D01*
X204355319Y-230353918D02*
X204464754Y-230353846D01*
X204464754Y-230353846D02*
X204564552Y-230353749D01*
X204564552Y-230353749D02*
X204655125Y-230353623D01*
X204655125Y-230353623D02*
X204736886Y-230353465D01*
X204736886Y-230353465D02*
X204810248Y-230353274D01*
X204810248Y-230353274D02*
X204875625Y-230353045D01*
X204875625Y-230353045D02*
X204933428Y-230352777D01*
X204933428Y-230352777D02*
X204984071Y-230352468D01*
X204984071Y-230352468D02*
X205027967Y-230352113D01*
X205027967Y-230352113D02*
X205065529Y-230351712D01*
X205065529Y-230351712D02*
X205097169Y-230351260D01*
X205097169Y-230351260D02*
X205123300Y-230350756D01*
X205123300Y-230350756D02*
X205144335Y-230350197D01*
X205144335Y-230350197D02*
X205160688Y-230349581D01*
X205160688Y-230349581D02*
X205172770Y-230348904D01*
X205172770Y-230348904D02*
X205180995Y-230348164D01*
X205180995Y-230348164D02*
X205185775Y-230347358D01*
X205185775Y-230347358D02*
X205187525Y-230346484D01*
X205187525Y-230346484D02*
X205187526Y-230346223D01*
X205187526Y-230346223D02*
X205520283Y-230346223D01*
X205520283Y-230346223D02*
X205524949Y-230353971D01*
X205524949Y-230353971D02*
X205544485Y-230386688D01*
X205544485Y-230386688D02*
X205559947Y-230412933D01*
X205559947Y-230412933D02*
X205570750Y-230431755D01*
X205570750Y-230431755D02*
X205576311Y-230442206D01*
X205576311Y-230442206D02*
X205576541Y-230442719D01*
X205576541Y-230442719D02*
X205582630Y-230466135D01*
X205582630Y-230466135D02*
X205584344Y-230494683D01*
X205584344Y-230494683D02*
X205581813Y-230523394D01*
X205581813Y-230523394D02*
X205575167Y-230547303D01*
X205575167Y-230547303D02*
X205573721Y-230550369D01*
X205573721Y-230550369D02*
X205569689Y-230557579D01*
X205569689Y-230557579D02*
X205560286Y-230573987D01*
X205560286Y-230573987D02*
X205545833Y-230599041D01*
X205545833Y-230599041D02*
X205526649Y-230632191D01*
X205526649Y-230632191D02*
X205522669Y-230639056D01*
X205522669Y-230639056D02*
X205194947Y-230639056D01*
X205194947Y-230639056D02*
X205189388Y-230638786D01*
X205189388Y-230638786D02*
X205173054Y-230638522D01*
X205173054Y-230638522D02*
X205146458Y-230638267D01*
X205146458Y-230638267D02*
X205110115Y-230638021D01*
X205110115Y-230638021D02*
X205064537Y-230637786D01*
X205064537Y-230637786D02*
X205010239Y-230637563D01*
X205010239Y-230637563D02*
X204947734Y-230637352D01*
X204947734Y-230637352D02*
X204877535Y-230637156D01*
X204877535Y-230637156D02*
X204800157Y-230636975D01*
X204800157Y-230636975D02*
X204716113Y-230636810D01*
X204716113Y-230636810D02*
X204625917Y-230636664D01*
X204625917Y-230636664D02*
X204530082Y-230636536D01*
X204530082Y-230636536D02*
X204429123Y-230636428D01*
X204429123Y-230636428D02*
X204323552Y-230636342D01*
X204323552Y-230636342D02*
X204213884Y-230636278D01*
X204213884Y-230636278D02*
X204100631Y-230636238D01*
X204100631Y-230636238D02*
X203984309Y-230636222D01*
X203984309Y-230636222D02*
X202751680Y-230636222D01*
X202751680Y-230636222D02*
X202975394Y-231011578D01*
X202975394Y-231011578D02*
X203654782Y-231014400D01*
X203654782Y-231014400D02*
X204334169Y-231017222D01*
X204334169Y-231017222D02*
X204357132Y-231029514D01*
X204357132Y-231029514D02*
X204389803Y-231052775D01*
X204389803Y-231052775D02*
X204414148Y-231082183D01*
X204414148Y-231082183D02*
X204429598Y-231116010D01*
X204429598Y-231116010D02*
X204435581Y-231152532D01*
X204435581Y-231152532D02*
X204431528Y-231190023D01*
X204431528Y-231190023D02*
X204420244Y-231220422D01*
X204420244Y-231220422D02*
X204415704Y-231228762D01*
X204415704Y-231228762D02*
X204405981Y-231246104D01*
X204405981Y-231246104D02*
X204391520Y-231271666D01*
X204391520Y-231271666D02*
X204372767Y-231304666D01*
X204372767Y-231304666D02*
X204350170Y-231344322D01*
X204350170Y-231344322D02*
X204324174Y-231389852D01*
X204324174Y-231389852D02*
X204295227Y-231440473D01*
X204295227Y-231440473D02*
X204263773Y-231495403D01*
X204263773Y-231495403D02*
X204230260Y-231553860D01*
X204230260Y-231553860D02*
X204195134Y-231615062D01*
X204195134Y-231615062D02*
X204180274Y-231640933D01*
X204180274Y-231640933D02*
X204144893Y-231702517D01*
X204144893Y-231702517D02*
X204111130Y-231761288D01*
X204111130Y-231761288D02*
X204079406Y-231816509D01*
X204079406Y-231816509D02*
X204050146Y-231867443D01*
X204050146Y-231867443D02*
X204023774Y-231913352D01*
X204023774Y-231913352D02*
X204000711Y-231953501D01*
X204000711Y-231953501D02*
X203981382Y-231987152D01*
X203981382Y-231987152D02*
X203966210Y-232013568D01*
X203966210Y-232013568D02*
X203955619Y-232032012D01*
X203955619Y-232032012D02*
X203950032Y-232041746D01*
X203950032Y-232041746D02*
X203949256Y-232043100D01*
X203949256Y-232043100D02*
X203954147Y-232044046D01*
X203954147Y-232044046D02*
X203969118Y-232044919D01*
X203969118Y-232044919D02*
X203992960Y-232045693D01*
X203992960Y-232045693D02*
X204024466Y-232046346D01*
X204024466Y-232046346D02*
X204062425Y-232046852D01*
X204062425Y-232046852D02*
X204105630Y-232047189D01*
X204105630Y-232047189D02*
X204152872Y-232047330D01*
X204152872Y-232047330D02*
X204160983Y-232047333D01*
X204160983Y-232047333D02*
X204375109Y-232047333D01*
X204375109Y-232047333D02*
X204785028Y-231344612D01*
X204785028Y-231344612D02*
X204832847Y-231262617D01*
X204832847Y-231262617D02*
X204879083Y-231183297D01*
X204879083Y-231183297D02*
X204923420Y-231107199D01*
X204923420Y-231107199D02*
X204965540Y-231034870D01*
X204965540Y-231034870D02*
X205005125Y-230966855D01*
X205005125Y-230966855D02*
X205041857Y-230903702D01*
X205041857Y-230903702D02*
X205075420Y-230845956D01*
X205075420Y-230845956D02*
X205105495Y-230794164D01*
X205105495Y-230794164D02*
X205131766Y-230748873D01*
X205131766Y-230748873D02*
X205153915Y-230710629D01*
X205153915Y-230710629D02*
X205171624Y-230679979D01*
X205171624Y-230679979D02*
X205184576Y-230657468D01*
X205184576Y-230657468D02*
X205192453Y-230643644D01*
X205192453Y-230643644D02*
X205194947Y-230639056D01*
X205194947Y-230639056D02*
X205522669Y-230639056D01*
X205522669Y-230639056D02*
X205503056Y-230672885D01*
X205503056Y-230672885D02*
X205475373Y-230720572D01*
X205475373Y-230720572D02*
X205443921Y-230774701D01*
X205443921Y-230774701D02*
X205409020Y-230834721D01*
X205409020Y-230834721D02*
X205370992Y-230900080D01*
X205370992Y-230900080D02*
X205330155Y-230970228D01*
X205330155Y-230970228D02*
X205286832Y-231044612D01*
X205286832Y-231044612D02*
X205241341Y-231122683D01*
X205241341Y-231122683D02*
X205194004Y-231203888D01*
X205194004Y-231203888D02*
X205145141Y-231287677D01*
X205145141Y-231287677D02*
X205133339Y-231307911D01*
X205133339Y-231307911D02*
X204703649Y-232044511D01*
X204703649Y-232044511D02*
X204922487Y-232047333D01*
X204922487Y-232047333D02*
X204978082Y-232048072D01*
X204978082Y-232048072D02*
X205023548Y-232048763D01*
X205023548Y-232048763D02*
X205060044Y-232049477D01*
X205060044Y-232049477D02*
X205088729Y-232050286D01*
X205088729Y-232050286D02*
X205110762Y-232051263D01*
X205110762Y-232051263D02*
X205127303Y-232052479D01*
X205127303Y-232052479D02*
X205139510Y-232054007D01*
X205139510Y-232054007D02*
X205148543Y-232055919D01*
X205148543Y-232055919D02*
X205155561Y-232058286D01*
X205155561Y-232058286D02*
X205161723Y-232061181D01*
X205161723Y-232061181D02*
X205163902Y-232062339D01*
X205163902Y-232062339D02*
X205181924Y-232073971D01*
X205181924Y-232073971D02*
X205198252Y-232087510D01*
X205198252Y-232087510D02*
X205201242Y-232090561D01*
X205201242Y-232090561D02*
X205206516Y-232097981D01*
X205206516Y-232097981D02*
X205217042Y-232114302D01*
X205217042Y-232114302D02*
X205232325Y-232138712D01*
X205232325Y-232138712D02*
X205251869Y-232170397D01*
X205251869Y-232170397D02*
X205275177Y-232208541D01*
X205275177Y-232208541D02*
X205301755Y-232252333D01*
X205301755Y-232252333D02*
X205331105Y-232300957D01*
X205331105Y-232300957D02*
X205362733Y-232353600D01*
X205362733Y-232353600D02*
X205396143Y-232409448D01*
X205396143Y-232409448D02*
X205424197Y-232456520D01*
X205424197Y-232456520D02*
X205573662Y-232707733D01*
X205573662Y-232707733D02*
X205244969Y-232707733D01*
X205244969Y-232707733D02*
X205133112Y-232520056D01*
X205133112Y-232520056D02*
X205021255Y-232332378D01*
X205021255Y-232332378D02*
X204341868Y-232329556D01*
X204341868Y-232329556D02*
X203662480Y-232326733D01*
X203662480Y-232326733D02*
X203639517Y-232314442D01*
X203639517Y-232314442D02*
X203609750Y-232293094D01*
X203609750Y-232293094D02*
X203585774Y-232265166D01*
X203585774Y-232265166D02*
X203568907Y-232233091D01*
X203568907Y-232233091D02*
X203560469Y-232199300D01*
X203560469Y-232199300D02*
X203561096Y-232169892D01*
X203561096Y-232169892D02*
X203561992Y-232164448D01*
X203561992Y-232164448D02*
X203562980Y-232159321D01*
X203562980Y-232159321D02*
X203564408Y-232153870D01*
X203564408Y-232153870D02*
X203566627Y-232147454D01*
X203566627Y-232147454D02*
X203569989Y-232139432D01*
X203569989Y-232139432D02*
X203574842Y-232129164D01*
X203574842Y-232129164D02*
X203581538Y-232116009D01*
X203581538Y-232116009D02*
X203590428Y-232099325D01*
X203590428Y-232099325D02*
X203601860Y-232078473D01*
X203601860Y-232078473D02*
X203616187Y-232052810D01*
X203616187Y-232052810D02*
X203633758Y-232021697D01*
X203633758Y-232021697D02*
X203654925Y-231984491D01*
X203654925Y-231984491D02*
X203680036Y-231940554D01*
X203680036Y-231940554D02*
X203709443Y-231889243D01*
X203709443Y-231889243D02*
X203743497Y-231829918D01*
X203743497Y-231829918D02*
X203782547Y-231761937D01*
X203782547Y-231761937D02*
X203816395Y-231703022D01*
X203816395Y-231703022D02*
X203851776Y-231641439D01*
X203851776Y-231641439D02*
X203885539Y-231582668D01*
X203885539Y-231582668D02*
X203917262Y-231527447D01*
X203917262Y-231527447D02*
X203946521Y-231476513D01*
X203946521Y-231476513D02*
X203972893Y-231430604D01*
X203972893Y-231430604D02*
X203995954Y-231390455D01*
X203995954Y-231390455D02*
X204015282Y-231356804D01*
X204015282Y-231356804D02*
X204030452Y-231330388D01*
X204030452Y-231330388D02*
X204041042Y-231311944D01*
X204041042Y-231311944D02*
X204046629Y-231302209D01*
X204046629Y-231302209D02*
X204047403Y-231300856D01*
X204047403Y-231300856D02*
X204042510Y-231299910D01*
X204042510Y-231299910D02*
X204027537Y-231299037D01*
X204027537Y-231299037D02*
X204003692Y-231298262D01*
X204003692Y-231298262D02*
X203972185Y-231297610D01*
X203972185Y-231297610D02*
X203934224Y-231297103D01*
X203934224Y-231297103D02*
X203891018Y-231296767D01*
X203891018Y-231296767D02*
X203843776Y-231296625D01*
X203843776Y-231296625D02*
X203835666Y-231296622D01*
X203835666Y-231296622D02*
X203621541Y-231296622D01*
X203621541Y-231296622D02*
X203211622Y-231999344D01*
X203211622Y-231999344D02*
X203163802Y-232081339D01*
X203163802Y-232081339D02*
X203117566Y-232160659D01*
X203117566Y-232160659D02*
X203073229Y-232236757D01*
X203073229Y-232236757D02*
X203031109Y-232309086D01*
X203031109Y-232309086D02*
X202991525Y-232377101D01*
X202991525Y-232377101D02*
X202954792Y-232440254D01*
X202954792Y-232440254D02*
X202921229Y-232498000D01*
X202921229Y-232498000D02*
X202891154Y-232549791D01*
X202891154Y-232549791D02*
X202864883Y-232595082D01*
X202864883Y-232595082D02*
X202842734Y-232633326D01*
X202842734Y-232633326D02*
X202825025Y-232663977D01*
X202825025Y-232663977D02*
X202812074Y-232686487D01*
X202812074Y-232686487D02*
X202804196Y-232700312D01*
X202804196Y-232700312D02*
X202801702Y-232704899D01*
X202801702Y-232704899D02*
X202807261Y-232705170D01*
X202807261Y-232705170D02*
X202823595Y-232705433D01*
X202823595Y-232705433D02*
X202850191Y-232705689D01*
X202850191Y-232705689D02*
X202886534Y-232705934D01*
X202886534Y-232705934D02*
X202932112Y-232706170D01*
X202932112Y-232706170D02*
X202986410Y-232706393D01*
X202986410Y-232706393D02*
X203048916Y-232706604D01*
X203048916Y-232706604D02*
X203119114Y-232706800D01*
X203119114Y-232706800D02*
X203196492Y-232706981D01*
X203196492Y-232706981D02*
X203280536Y-232707145D01*
X203280536Y-232707145D02*
X203370732Y-232707292D01*
X203370732Y-232707292D02*
X203466567Y-232707420D01*
X203466567Y-232707420D02*
X203567526Y-232707528D01*
X203567526Y-232707528D02*
X203673097Y-232707614D01*
X203673097Y-232707614D02*
X203782766Y-232707678D01*
X203782766Y-232707678D02*
X203896018Y-232707718D01*
X203896018Y-232707718D02*
X204012341Y-232707733D01*
X204012341Y-232707733D02*
X205244969Y-232707733D01*
X205244969Y-232707733D02*
X205573662Y-232707733D01*
X205573662Y-232707733D02*
X205632391Y-232806441D01*
X205632391Y-232806441D02*
X205632391Y-232848809D01*
X205632391Y-232848809D02*
X205631687Y-232873288D01*
X205631687Y-232873288D02*
X205628766Y-232891663D01*
X205628766Y-232891663D02*
X205622419Y-232909074D01*
X205622419Y-232909074D02*
X205614443Y-232925044D01*
X205614443Y-232925044D02*
X205577237Y-232995188D01*
X205577237Y-232995188D02*
X205256095Y-232995188D01*
X205256095Y-232995188D02*
X205250718Y-232994598D01*
X205250718Y-232994598D02*
X205234350Y-232994037D01*
X205234350Y-232994037D02*
X205207291Y-232993506D01*
X205207291Y-232993506D02*
X205169838Y-232993007D01*
X205169838Y-232993007D02*
X205122291Y-232992541D01*
X205122291Y-232992541D02*
X205064949Y-232992109D01*
X205064949Y-232992109D02*
X204998109Y-232991713D01*
X204998109Y-232991713D02*
X204922070Y-232991353D01*
X204922070Y-232991353D02*
X204837131Y-232991032D01*
X204837131Y-232991032D02*
X204743590Y-232990750D01*
X204743590Y-232990750D02*
X204641747Y-232990509D01*
X204641747Y-232990509D02*
X204531899Y-232990309D01*
X204531899Y-232990309D02*
X204414345Y-232990153D01*
X204414345Y-232990153D02*
X204289384Y-232990041D01*
X204289384Y-232990041D02*
X204157314Y-232989975D01*
X204157314Y-232989975D02*
X204032662Y-232989956D01*
X204032662Y-232989956D02*
X203915901Y-232989972D01*
X203915901Y-232989972D02*
X203802162Y-232990021D01*
X203802162Y-232990021D02*
X203691957Y-232990101D01*
X203691957Y-232990101D02*
X203585800Y-232990209D01*
X203585800Y-232990209D02*
X203484203Y-232990346D01*
X203484203Y-232990346D02*
X203387679Y-232990508D01*
X203387679Y-232990508D02*
X203296741Y-232990695D01*
X203296741Y-232990695D02*
X203211902Y-232990905D01*
X203211902Y-232990905D02*
X203133674Y-232991137D01*
X203133674Y-232991137D02*
X203062572Y-232991388D01*
X203062572Y-232991388D02*
X202999106Y-232991658D01*
X202999106Y-232991658D02*
X202943792Y-232991945D01*
X202943792Y-232991945D02*
X202897141Y-232992247D01*
X202897141Y-232992247D02*
X202859665Y-232992563D01*
X202859665Y-232992563D02*
X202831880Y-232992891D01*
X202831880Y-232992891D02*
X202814296Y-232993230D01*
X202814296Y-232993230D02*
X202807427Y-232993578D01*
X202807427Y-232993578D02*
X202807347Y-232993620D01*
X202807347Y-232993620D02*
X202810188Y-232999088D01*
X202810188Y-232999088D02*
X202818293Y-233013136D01*
X202818293Y-233013136D02*
X202831034Y-233034714D01*
X202831034Y-233034714D02*
X202847784Y-233062774D01*
X202847784Y-233062774D02*
X202867916Y-233096265D01*
X202867916Y-233096265D02*
X202890802Y-233134137D01*
X202890802Y-233134137D02*
X202915815Y-233175342D01*
X202915815Y-233175342D02*
X202923736Y-233188353D01*
X202923736Y-233188353D02*
X203040125Y-233379422D01*
X203040125Y-233379422D02*
X203760525Y-233379546D01*
X203760525Y-233379546D02*
X203865457Y-233379567D01*
X203865457Y-233379567D02*
X203959697Y-233379597D01*
X203959697Y-233379597D02*
X204043843Y-233379645D01*
X204043843Y-233379645D02*
X204118493Y-233379722D01*
X204118493Y-233379722D02*
X204184244Y-233379836D01*
X204184244Y-233379836D02*
X204241694Y-233379997D01*
X204241694Y-233379997D02*
X204291439Y-233380213D01*
X204291439Y-233380213D02*
X204334079Y-233380495D01*
X204334079Y-233380495D02*
X204370209Y-233380851D01*
X204370209Y-233380851D02*
X204400428Y-233381291D01*
X204400428Y-233381291D02*
X204425334Y-233381825D01*
X204425334Y-233381825D02*
X204445522Y-233382461D01*
X204445522Y-233382461D02*
X204461592Y-233383208D01*
X204461592Y-233383208D02*
X204474141Y-233384077D01*
X204474141Y-233384077D02*
X204483766Y-233385076D01*
X204483766Y-233385076D02*
X204491064Y-233386215D01*
X204491064Y-233386215D02*
X204496634Y-233387503D01*
X204496634Y-233387503D02*
X204501072Y-233388949D01*
X204501072Y-233388949D02*
X204504976Y-233390563D01*
X204504976Y-233390563D02*
X204506325Y-233391168D01*
X204506325Y-233391168D02*
X204538865Y-233410587D01*
X204538865Y-233410587D02*
X204563312Y-233436548D01*
X204563312Y-233436548D02*
X204577539Y-233461267D01*
X204577539Y-233461267D02*
X204588230Y-233494972D01*
X204588230Y-233494972D02*
X204590526Y-233530608D01*
X204590526Y-233530608D02*
X204584326Y-233564220D01*
X204584326Y-233564220D02*
X204580416Y-233574156D01*
X204580416Y-233574156D02*
X204575920Y-233582579D01*
X204575920Y-233582579D02*
X204566134Y-233599903D01*
X204566134Y-233599903D02*
X204551529Y-233625319D01*
X204551529Y-233625319D02*
X204532578Y-233658019D01*
X204532578Y-233658019D02*
X204530530Y-233661535D01*
X204530530Y-233661535D02*
X204201857Y-233661535D01*
X204201857Y-233661535D02*
X203662823Y-233664467D01*
X203662823Y-233664467D02*
X203517468Y-233921289D01*
X203517468Y-233921289D02*
X203489558Y-233970729D01*
X203489558Y-233970729D02*
X203463401Y-234017306D01*
X203463401Y-234017306D02*
X203439518Y-234060078D01*
X203439518Y-234060078D02*
X203418428Y-234098105D01*
X203418428Y-234098105D02*
X203400648Y-234130445D01*
X203400648Y-234130445D02*
X203386699Y-234156156D01*
X203386699Y-234156156D02*
X203377098Y-234174299D01*
X203377098Y-234174299D02*
X203372366Y-234183931D01*
X203372366Y-234183931D02*
X203371953Y-234185167D01*
X203371953Y-234185167D02*
X203374163Y-234186899D01*
X203374163Y-234186899D02*
X203381413Y-234188344D01*
X203381413Y-234188344D02*
X203394501Y-234189521D01*
X203394501Y-234189521D02*
X203414226Y-234190454D01*
X203414226Y-234190454D02*
X203441386Y-234191165D01*
X203441386Y-234191165D02*
X203476779Y-234191675D01*
X203476779Y-234191675D02*
X203521204Y-234192006D01*
X203521204Y-234192006D02*
X203575460Y-234192181D01*
X203575460Y-234192181D02*
X203628229Y-234192222D01*
X203628229Y-234192222D02*
X203884667Y-234192222D01*
X203884667Y-234192222D02*
X203895513Y-234176700D01*
X203895513Y-234176700D02*
X203900496Y-234168822D01*
X203900496Y-234168822D02*
X203910592Y-234152228D01*
X203910592Y-234152228D02*
X203925196Y-234127935D01*
X203925196Y-234127935D02*
X203943703Y-234096960D01*
X203943703Y-234096960D02*
X203965506Y-234060318D01*
X203965506Y-234060318D02*
X203989999Y-234019028D01*
X203989999Y-234019028D02*
X204016576Y-233974104D01*
X204016576Y-233974104D02*
X204044631Y-233926565D01*
X204044631Y-233926565D02*
X204046078Y-233924111D01*
X204046078Y-233924111D02*
X204074092Y-233876595D01*
X204074092Y-233876595D02*
X204100559Y-233831737D01*
X204100559Y-233831737D02*
X204124886Y-233790540D01*
X204124886Y-233790540D02*
X204146482Y-233754002D01*
X204146482Y-233754002D02*
X204164754Y-233723126D01*
X204164754Y-233723126D02*
X204179111Y-233698912D01*
X204179111Y-233698912D02*
X204188960Y-233682361D01*
X204188960Y-233682361D02*
X204193711Y-233674474D01*
X204193711Y-233674474D02*
X204193826Y-233674290D01*
X204193826Y-233674290D02*
X204201857Y-233661535D01*
X204201857Y-233661535D02*
X204530530Y-233661535D01*
X204530530Y-233661535D02*
X204509751Y-233697197D01*
X204509751Y-233697197D02*
X204483521Y-233742045D01*
X204483521Y-233742045D02*
X204454359Y-233791754D01*
X204454359Y-233791754D02*
X204422737Y-233845517D01*
X204422737Y-233845517D02*
X204389126Y-233902526D01*
X204389126Y-233902526D02*
X204353998Y-233961974D01*
X204353998Y-233961974D02*
X204351940Y-233965453D01*
X204351940Y-233965453D02*
X204317049Y-234024519D01*
X204317049Y-234024519D02*
X204283889Y-234080833D01*
X204283889Y-234080833D02*
X204252905Y-234133630D01*
X204252905Y-234133630D02*
X204224538Y-234182147D01*
X204224538Y-234182147D02*
X204199233Y-234225621D01*
X204199233Y-234225621D02*
X204177432Y-234263289D01*
X204177432Y-234263289D02*
X204159577Y-234294388D01*
X204159577Y-234294388D02*
X204146113Y-234318154D01*
X204146113Y-234318154D02*
X204137481Y-234333824D01*
X204137481Y-234333824D02*
X204134126Y-234340635D01*
X204134126Y-234340635D02*
X204134098Y-234340808D01*
X204134098Y-234340808D02*
X204136623Y-234347182D01*
X204136623Y-234347182D02*
X204143687Y-234362492D01*
X204143687Y-234362492D02*
X204154736Y-234385598D01*
X204154736Y-234385598D02*
X204169216Y-234415362D01*
X204169216Y-234415362D02*
X204186571Y-234450645D01*
X204186571Y-234450645D02*
X204206247Y-234490308D01*
X204206247Y-234490308D02*
X204227689Y-234533213D01*
X204227689Y-234533213D02*
X204231498Y-234540802D01*
X204231498Y-234540802D02*
X204328592Y-234734160D01*
X204328592Y-234734160D02*
X204791403Y-233867290D01*
X204791403Y-233867290D02*
X204840619Y-233775096D01*
X204840619Y-233775096D02*
X204888403Y-233685566D01*
X204888403Y-233685566D02*
X204934482Y-233599211D01*
X204934482Y-233599211D02*
X204978586Y-233516539D01*
X204978586Y-233516539D02*
X205020444Y-233438059D01*
X205020444Y-233438059D02*
X205059783Y-233364281D01*
X205059783Y-233364281D02*
X205096333Y-233295714D01*
X205096333Y-233295714D02*
X205129823Y-233232867D01*
X205129823Y-233232867D02*
X205159980Y-233176250D01*
X205159980Y-233176250D02*
X205186534Y-233126371D01*
X205186534Y-233126371D02*
X205209213Y-233083740D01*
X205209213Y-233083740D02*
X205227747Y-233048866D01*
X205227747Y-233048866D02*
X205241863Y-233022259D01*
X205241863Y-233022259D02*
X205251290Y-233004427D01*
X205251290Y-233004427D02*
X205255757Y-232995879D01*
X205255757Y-232995879D02*
X205256095Y-232995188D01*
X205256095Y-232995188D02*
X205577237Y-232995188D01*
X205577237Y-232995188D02*
X205572443Y-233004226D01*
X205572443Y-233004226D02*
X205528079Y-233087736D01*
X205528079Y-233087736D02*
X205481620Y-233175074D01*
X205481620Y-233175074D02*
X205433338Y-233265736D01*
X205433338Y-233265736D02*
X205383502Y-233359220D01*
X205383502Y-233359220D02*
X205332381Y-233455023D01*
X205332381Y-233455023D02*
X205280246Y-233552644D01*
X205280246Y-233552644D02*
X205227367Y-233651579D01*
X205227367Y-233651579D02*
X205174013Y-233751326D01*
X205174013Y-233751326D02*
X205120455Y-233851383D01*
X205120455Y-233851383D02*
X205066963Y-233951247D01*
X205066963Y-233951247D02*
X205013806Y-234050416D01*
X205013806Y-234050416D02*
X204961254Y-234148388D01*
X204961254Y-234148388D02*
X204909578Y-234244659D01*
X204909578Y-234244659D02*
X204859047Y-234338727D01*
X204859047Y-234338727D02*
X204809932Y-234430091D01*
X204809932Y-234430091D02*
X204762502Y-234518247D01*
X204762502Y-234518247D02*
X204717027Y-234602693D01*
X204717027Y-234602693D02*
X204673777Y-234682926D01*
X204673777Y-234682926D02*
X204633022Y-234758444D01*
X204633022Y-234758444D02*
X204595032Y-234828746D01*
X204595032Y-234828746D02*
X204560078Y-234893327D01*
X204560078Y-234893327D02*
X204554604Y-234903422D01*
X204554604Y-234903422D02*
X204093364Y-234903422D01*
X204093364Y-234903422D02*
X203988161Y-234688933D01*
X203988161Y-234688933D02*
X203882957Y-234474444D01*
X203882957Y-234474444D02*
X203361557Y-234474444D01*
X203361557Y-234474444D02*
X203478152Y-234688813D01*
X203478152Y-234688813D02*
X203594747Y-234903181D01*
X203594747Y-234903181D02*
X203844055Y-234903302D01*
X203844055Y-234903302D02*
X204093364Y-234903422D01*
X204093364Y-234903422D02*
X204554604Y-234903422D01*
X204554604Y-234903422D02*
X204528428Y-234951686D01*
X204528428Y-234951686D02*
X204500353Y-235003320D01*
X204500353Y-235003320D02*
X204476123Y-235047727D01*
X204476123Y-235047727D02*
X204456008Y-235084404D01*
X204456008Y-235084404D02*
X204440278Y-235112849D01*
X204440278Y-235112849D02*
X204429202Y-235132560D01*
X204429202Y-235132560D02*
X204423052Y-235143033D01*
X204423052Y-235143033D02*
X204421976Y-235144585D01*
X204421976Y-235144585D02*
X204415719Y-235151418D01*
X204415719Y-235151418D02*
X204410267Y-235157388D01*
X204410267Y-235157388D02*
X204404858Y-235162554D01*
X204404858Y-235162554D02*
X204398729Y-235166972D01*
X204398729Y-235166972D02*
X204391116Y-235170701D01*
X204391116Y-235170701D02*
X204381258Y-235173799D01*
X204381258Y-235173799D02*
X204368391Y-235176324D01*
X204368391Y-235176324D02*
X204351753Y-235178334D01*
X204351753Y-235178334D02*
X204330581Y-235179887D01*
X204330581Y-235179887D02*
X204304113Y-235181042D01*
X204304113Y-235181042D02*
X204271586Y-235181855D01*
X204271586Y-235181855D02*
X204232237Y-235182385D01*
X204232237Y-235182385D02*
X204185304Y-235182690D01*
X204185304Y-235182690D02*
X204130023Y-235182829D01*
X204130023Y-235182829D02*
X204065633Y-235182858D01*
X204065633Y-235182858D02*
X203991370Y-235182837D01*
X203991370Y-235182837D02*
X203991370Y-235182837D01*
G36*
X204659968Y-229679489D02*
G01*
X204866780Y-229682311D01*
X204923765Y-229683122D01*
X204970653Y-229683977D01*
X205008633Y-229685060D01*
X205038896Y-229686561D01*
X205062631Y-229688664D01*
X205081030Y-229691556D01*
X205095281Y-229695426D01*
X205106576Y-229700458D01*
X205116103Y-229706840D01*
X205125055Y-229714758D01*
X205134531Y-229724309D01*
X205139875Y-229731568D01*
X205150484Y-229747534D01*
X205165775Y-229771258D01*
X205185163Y-229801791D01*
X205208064Y-229838185D01*
X205233896Y-229879491D01*
X205262074Y-229924760D01*
X205292015Y-229973043D01*
X205323135Y-230023391D01*
X205354850Y-230074857D01*
X205386576Y-230126490D01*
X205417730Y-230177343D01*
X205447728Y-230226466D01*
X205475986Y-230272911D01*
X205501921Y-230315729D01*
X205520283Y-230346223D01*
X205524949Y-230353971D01*
X205544485Y-230386688D01*
X205559947Y-230412933D01*
X205570750Y-230431755D01*
X205576311Y-230442206D01*
X205576541Y-230442719D01*
X205582630Y-230466135D01*
X205584344Y-230494683D01*
X205581813Y-230523394D01*
X205575167Y-230547303D01*
X205573721Y-230550369D01*
X205569689Y-230557579D01*
X205560286Y-230573987D01*
X205545833Y-230599041D01*
X205526649Y-230632191D01*
X205522669Y-230639056D01*
X205503056Y-230672885D01*
X205475373Y-230720572D01*
X205443921Y-230774701D01*
X205409020Y-230834721D01*
X205370992Y-230900080D01*
X205330155Y-230970228D01*
X205286832Y-231044612D01*
X205241341Y-231122683D01*
X205194004Y-231203888D01*
X205145141Y-231287677D01*
X205133339Y-231307911D01*
X204703649Y-232044511D01*
X204922487Y-232047333D01*
X204978082Y-232048072D01*
X205023548Y-232048763D01*
X205060044Y-232049477D01*
X205088729Y-232050286D01*
X205110762Y-232051263D01*
X205127303Y-232052479D01*
X205139510Y-232054007D01*
X205148543Y-232055919D01*
X205155561Y-232058286D01*
X205161723Y-232061181D01*
X205163902Y-232062339D01*
X205181924Y-232073971D01*
X205198252Y-232087510D01*
X205201242Y-232090561D01*
X205206516Y-232097981D01*
X205217042Y-232114302D01*
X205232325Y-232138712D01*
X205251869Y-232170397D01*
X205275177Y-232208541D01*
X205301755Y-232252333D01*
X205331105Y-232300957D01*
X205362733Y-232353600D01*
X205396143Y-232409448D01*
X205424197Y-232456520D01*
X205573662Y-232707733D01*
X205632391Y-232806441D01*
X205632391Y-232848809D01*
X205631687Y-232873288D01*
X205628766Y-232891663D01*
X205622419Y-232909074D01*
X205614443Y-232925044D01*
X205577237Y-232995188D01*
X205572443Y-233004226D01*
X205528079Y-233087736D01*
X205481620Y-233175074D01*
X205433338Y-233265736D01*
X205383502Y-233359220D01*
X205332381Y-233455023D01*
X205280246Y-233552644D01*
X205227367Y-233651579D01*
X205174013Y-233751326D01*
X205120455Y-233851383D01*
X205066963Y-233951247D01*
X205013806Y-234050416D01*
X204961254Y-234148388D01*
X204909578Y-234244659D01*
X204859047Y-234338727D01*
X204809932Y-234430091D01*
X204762502Y-234518247D01*
X204717027Y-234602693D01*
X204673777Y-234682926D01*
X204633022Y-234758444D01*
X204595032Y-234828746D01*
X204560078Y-234893327D01*
X204554604Y-234903422D01*
X204528428Y-234951686D01*
X204500353Y-235003320D01*
X204476123Y-235047727D01*
X204456008Y-235084404D01*
X204440278Y-235112849D01*
X204429202Y-235132560D01*
X204423052Y-235143033D01*
X204421976Y-235144585D01*
X204415719Y-235151418D01*
X204410267Y-235157388D01*
X204404858Y-235162554D01*
X204398729Y-235166972D01*
X204391116Y-235170701D01*
X204381258Y-235173799D01*
X204368391Y-235176324D01*
X204351753Y-235178334D01*
X204330581Y-235179887D01*
X204304113Y-235181042D01*
X204271586Y-235181855D01*
X204232237Y-235182385D01*
X204185304Y-235182690D01*
X204130023Y-235182829D01*
X204065633Y-235182858D01*
X203991370Y-235182837D01*
X203919302Y-235182822D01*
X203470569Y-235182822D01*
X203447991Y-235170639D01*
X203429867Y-235158986D01*
X203413343Y-235145430D01*
X203410338Y-235142417D01*
X203405249Y-235134959D01*
X203395231Y-235118386D01*
X203380738Y-235093507D01*
X203362225Y-235061127D01*
X203340145Y-235022056D01*
X203314954Y-234977102D01*
X203287106Y-234927071D01*
X203257054Y-234872772D01*
X203225254Y-234815012D01*
X203192159Y-234754599D01*
X203190204Y-234751022D01*
X203039109Y-234474444D01*
X203361557Y-234474444D01*
X203478152Y-234688813D01*
X203594747Y-234903181D01*
X203844055Y-234903302D01*
X204093364Y-234903422D01*
X203988161Y-234688933D01*
X203882957Y-234474444D01*
X203361557Y-234474444D01*
X203039109Y-234474444D01*
X202985147Y-234375667D01*
X202985147Y-234333333D01*
X202986931Y-234300954D01*
X202992197Y-234278267D01*
X202994118Y-234274067D01*
X202998468Y-234266189D01*
X203007869Y-234249404D01*
X203021805Y-234224624D01*
X203039762Y-234192762D01*
X203044048Y-234185167D01*
X203371953Y-234185167D01*
X203374163Y-234186899D01*
X203381413Y-234188344D01*
X203394501Y-234189521D01*
X203414226Y-234190454D01*
X203441386Y-234191165D01*
X203476779Y-234191675D01*
X203521204Y-234192006D01*
X203575460Y-234192181D01*
X203628229Y-234192222D01*
X203884667Y-234192222D01*
X203895513Y-234176700D01*
X203900496Y-234168822D01*
X203910592Y-234152228D01*
X203925196Y-234127935D01*
X203943703Y-234096960D01*
X203965506Y-234060318D01*
X203989999Y-234019028D01*
X204016576Y-233974104D01*
X204044631Y-233926565D01*
X204046078Y-233924111D01*
X204074092Y-233876595D01*
X204100559Y-233831737D01*
X204124886Y-233790540D01*
X204146482Y-233754002D01*
X204164754Y-233723126D01*
X204179111Y-233698912D01*
X204188960Y-233682361D01*
X204193711Y-233674474D01*
X204193826Y-233674290D01*
X204201857Y-233661535D01*
X203662823Y-233664467D01*
X203517468Y-233921289D01*
X203489558Y-233970729D01*
X203463401Y-234017306D01*
X203439518Y-234060078D01*
X203418428Y-234098105D01*
X203400648Y-234130445D01*
X203386699Y-234156156D01*
X203377098Y-234174299D01*
X203372366Y-234183931D01*
X203371953Y-234185167D01*
X203044048Y-234185167D01*
X203061223Y-234154732D01*
X203085674Y-234111447D01*
X203112600Y-234063820D01*
X203141484Y-234012764D01*
X203170507Y-233961496D01*
X203200469Y-233908556D01*
X203228713Y-233858592D01*
X203254758Y-233812459D01*
X203278123Y-233771011D01*
X203298327Y-233735103D01*
X203314890Y-233705589D01*
X203327331Y-233683323D01*
X203335170Y-233669160D01*
X203337924Y-233663954D01*
X203337925Y-233663950D01*
X203332488Y-233663474D01*
X203317009Y-233662955D01*
X203292735Y-233662414D01*
X203260911Y-233661871D01*
X203222785Y-233661349D01*
X203179603Y-233660868D01*
X203132611Y-233660449D01*
X203130491Y-233660432D01*
X203073451Y-233659958D01*
X203026511Y-233659385D01*
X202988483Y-233658532D01*
X202958177Y-233657220D01*
X202934406Y-233655267D01*
X202915980Y-233652492D01*
X202901711Y-233648715D01*
X202890411Y-233643756D01*
X202880891Y-233637433D01*
X202871963Y-233629567D01*
X202862437Y-233619976D01*
X202862118Y-233619647D01*
X202856774Y-233612388D01*
X202846165Y-233596422D01*
X202830875Y-233572698D01*
X202811487Y-233542164D01*
X202788585Y-233505771D01*
X202762753Y-233464465D01*
X202734575Y-233419196D01*
X202704634Y-233370913D01*
X202673514Y-233320564D01*
X202641799Y-233269099D01*
X202610073Y-233217466D01*
X202578919Y-233166613D01*
X202548921Y-233117490D01*
X202520663Y-233071045D01*
X202494728Y-233028227D01*
X202473890Y-232993620D01*
X202807347Y-232993620D01*
X202810188Y-232999088D01*
X202818293Y-233013136D01*
X202831034Y-233034714D01*
X202847784Y-233062774D01*
X202867916Y-233096265D01*
X202890802Y-233134137D01*
X202915815Y-233175342D01*
X202923736Y-233188353D01*
X203040125Y-233379422D01*
X203760525Y-233379546D01*
X203865457Y-233379567D01*
X203959697Y-233379597D01*
X204043843Y-233379645D01*
X204118493Y-233379722D01*
X204184244Y-233379836D01*
X204241694Y-233379997D01*
X204291439Y-233380213D01*
X204334079Y-233380495D01*
X204370209Y-233380851D01*
X204400428Y-233381291D01*
X204425334Y-233381825D01*
X204445522Y-233382461D01*
X204461592Y-233383208D01*
X204474141Y-233384077D01*
X204483766Y-233385076D01*
X204491064Y-233386215D01*
X204496634Y-233387503D01*
X204501072Y-233388949D01*
X204504976Y-233390563D01*
X204506325Y-233391168D01*
X204538865Y-233410587D01*
X204563312Y-233436548D01*
X204577539Y-233461267D01*
X204588230Y-233494972D01*
X204590526Y-233530608D01*
X204584326Y-233564220D01*
X204580416Y-233574156D01*
X204575920Y-233582579D01*
X204566134Y-233599903D01*
X204551529Y-233625319D01*
X204532578Y-233658019D01*
X204530530Y-233661535D01*
X204509751Y-233697197D01*
X204483521Y-233742045D01*
X204454359Y-233791754D01*
X204422737Y-233845517D01*
X204389126Y-233902526D01*
X204353998Y-233961974D01*
X204351940Y-233965453D01*
X204317049Y-234024519D01*
X204283889Y-234080833D01*
X204252905Y-234133630D01*
X204224538Y-234182147D01*
X204199233Y-234225621D01*
X204177432Y-234263289D01*
X204159577Y-234294388D01*
X204146113Y-234318154D01*
X204137481Y-234333824D01*
X204134126Y-234340635D01*
X204134098Y-234340808D01*
X204136623Y-234347182D01*
X204143687Y-234362492D01*
X204154736Y-234385598D01*
X204169216Y-234415362D01*
X204186571Y-234450645D01*
X204206247Y-234490308D01*
X204227689Y-234533213D01*
X204231498Y-234540802D01*
X204328592Y-234734160D01*
X204791403Y-233867290D01*
X204840619Y-233775096D01*
X204888403Y-233685566D01*
X204934482Y-233599211D01*
X204978586Y-233516539D01*
X205020444Y-233438059D01*
X205059783Y-233364281D01*
X205096333Y-233295714D01*
X205129823Y-233232867D01*
X205159980Y-233176250D01*
X205186534Y-233126371D01*
X205209213Y-233083740D01*
X205227747Y-233048866D01*
X205241863Y-233022259D01*
X205251290Y-233004427D01*
X205255757Y-232995879D01*
X205256095Y-232995188D01*
X205250718Y-232994598D01*
X205234350Y-232994037D01*
X205207291Y-232993506D01*
X205169838Y-232993007D01*
X205122291Y-232992541D01*
X205064949Y-232992109D01*
X204998109Y-232991713D01*
X204922070Y-232991353D01*
X204837131Y-232991032D01*
X204743590Y-232990750D01*
X204641747Y-232990509D01*
X204531899Y-232990309D01*
X204414345Y-232990153D01*
X204289384Y-232990041D01*
X204157314Y-232989975D01*
X204032662Y-232989956D01*
X203915901Y-232989972D01*
X203802162Y-232990021D01*
X203691957Y-232990101D01*
X203585800Y-232990209D01*
X203484203Y-232990346D01*
X203387679Y-232990508D01*
X203296741Y-232990695D01*
X203211902Y-232990905D01*
X203133674Y-232991137D01*
X203062572Y-232991388D01*
X202999106Y-232991658D01*
X202943792Y-232991945D01*
X202897141Y-232992247D01*
X202859665Y-232992563D01*
X202831880Y-232992891D01*
X202814296Y-232993230D01*
X202807427Y-232993578D01*
X202807347Y-232993620D01*
X202473890Y-232993620D01*
X202471701Y-232989985D01*
X202452164Y-232957267D01*
X202436702Y-232931023D01*
X202425899Y-232912201D01*
X202420338Y-232901750D01*
X202420108Y-232901237D01*
X202414019Y-232877820D01*
X202412306Y-232849273D01*
X202414837Y-232820561D01*
X202421482Y-232796653D01*
X202422929Y-232793586D01*
X202426960Y-232786377D01*
X202436363Y-232769969D01*
X202450816Y-232744915D01*
X202470000Y-232711765D01*
X202473981Y-232704899D01*
X202801702Y-232704899D01*
X202807261Y-232705170D01*
X202823595Y-232705433D01*
X202850191Y-232705689D01*
X202886534Y-232705934D01*
X202932112Y-232706170D01*
X202986410Y-232706393D01*
X203048916Y-232706604D01*
X203119114Y-232706800D01*
X203196492Y-232706981D01*
X203280536Y-232707145D01*
X203370732Y-232707292D01*
X203466567Y-232707420D01*
X203567526Y-232707528D01*
X203673097Y-232707614D01*
X203782766Y-232707678D01*
X203896018Y-232707718D01*
X204012341Y-232707733D01*
X205244969Y-232707733D01*
X205133112Y-232520056D01*
X205021255Y-232332378D01*
X204341868Y-232329556D01*
X203662480Y-232326733D01*
X203639517Y-232314442D01*
X203609750Y-232293094D01*
X203585774Y-232265166D01*
X203568907Y-232233091D01*
X203560469Y-232199300D01*
X203561096Y-232169892D01*
X203561992Y-232164448D01*
X203562980Y-232159321D01*
X203564408Y-232153870D01*
X203566627Y-232147454D01*
X203569989Y-232139432D01*
X203574842Y-232129164D01*
X203581538Y-232116009D01*
X203590428Y-232099325D01*
X203601860Y-232078473D01*
X203616187Y-232052810D01*
X203633758Y-232021697D01*
X203654925Y-231984491D01*
X203680036Y-231940554D01*
X203709443Y-231889243D01*
X203743497Y-231829918D01*
X203782547Y-231761937D01*
X203816395Y-231703022D01*
X203851776Y-231641439D01*
X203885539Y-231582668D01*
X203917262Y-231527447D01*
X203946521Y-231476513D01*
X203972893Y-231430604D01*
X203995954Y-231390455D01*
X204015282Y-231356804D01*
X204030452Y-231330388D01*
X204041042Y-231311944D01*
X204046629Y-231302209D01*
X204047403Y-231300856D01*
X204042510Y-231299910D01*
X204027537Y-231299037D01*
X204003692Y-231298262D01*
X203972185Y-231297610D01*
X203934224Y-231297103D01*
X203891018Y-231296767D01*
X203843776Y-231296625D01*
X203835666Y-231296622D01*
X203621541Y-231296622D01*
X203211622Y-231999344D01*
X203163802Y-232081339D01*
X203117566Y-232160659D01*
X203073229Y-232236757D01*
X203031109Y-232309086D01*
X202991525Y-232377101D01*
X202954792Y-232440254D01*
X202921229Y-232498000D01*
X202891154Y-232549791D01*
X202864883Y-232595082D01*
X202842734Y-232633326D01*
X202825025Y-232663977D01*
X202812074Y-232686487D01*
X202804196Y-232700312D01*
X202801702Y-232704899D01*
X202473981Y-232704899D01*
X202493593Y-232671071D01*
X202521276Y-232623384D01*
X202552728Y-232569255D01*
X202587629Y-232509235D01*
X202625658Y-232443876D01*
X202666494Y-232373728D01*
X202709818Y-232299343D01*
X202755308Y-232221273D01*
X202802645Y-232140067D01*
X202851508Y-232056279D01*
X202863311Y-232036044D01*
X203293000Y-231299444D01*
X203074162Y-231296622D01*
X203018567Y-231295883D01*
X202973101Y-231295193D01*
X202936605Y-231294479D01*
X202907920Y-231293670D01*
X202885887Y-231292693D01*
X202869346Y-231291477D01*
X202857139Y-231289949D01*
X202848106Y-231288037D01*
X202841088Y-231285669D01*
X202834927Y-231282774D01*
X202832747Y-231281617D01*
X202814725Y-231269985D01*
X202798398Y-231256446D01*
X202795408Y-231253395D01*
X202790133Y-231245975D01*
X202779607Y-231229653D01*
X202764324Y-231205243D01*
X202744781Y-231173559D01*
X202721472Y-231135414D01*
X202694895Y-231091623D01*
X202665544Y-231042999D01*
X202633916Y-230990356D01*
X202600506Y-230934508D01*
X202572452Y-230887435D01*
X202422986Y-230636222D01*
X202751680Y-230636222D01*
X202975394Y-231011578D01*
X203654782Y-231014400D01*
X204334169Y-231017222D01*
X204357132Y-231029514D01*
X204389803Y-231052775D01*
X204414148Y-231082183D01*
X204429598Y-231116010D01*
X204435581Y-231152532D01*
X204431528Y-231190023D01*
X204420244Y-231220422D01*
X204415704Y-231228762D01*
X204405981Y-231246104D01*
X204391520Y-231271666D01*
X204372767Y-231304666D01*
X204350170Y-231344322D01*
X204324174Y-231389852D01*
X204295227Y-231440473D01*
X204263773Y-231495403D01*
X204230260Y-231553860D01*
X204195134Y-231615062D01*
X204180274Y-231640933D01*
X204144893Y-231702517D01*
X204111130Y-231761288D01*
X204079406Y-231816509D01*
X204050146Y-231867443D01*
X204023774Y-231913352D01*
X204000711Y-231953501D01*
X203981382Y-231987152D01*
X203966210Y-232013568D01*
X203955619Y-232032012D01*
X203950032Y-232041746D01*
X203949256Y-232043100D01*
X203954147Y-232044046D01*
X203969118Y-232044919D01*
X203992960Y-232045693D01*
X204024466Y-232046346D01*
X204062425Y-232046852D01*
X204105630Y-232047189D01*
X204152872Y-232047330D01*
X204160983Y-232047333D01*
X204375109Y-232047333D01*
X204785028Y-231344612D01*
X204832847Y-231262617D01*
X204879083Y-231183297D01*
X204923420Y-231107199D01*
X204965540Y-231034870D01*
X205005125Y-230966855D01*
X205041857Y-230903702D01*
X205075420Y-230845956D01*
X205105495Y-230794164D01*
X205131766Y-230748873D01*
X205153915Y-230710629D01*
X205171624Y-230679979D01*
X205184576Y-230657468D01*
X205192453Y-230643644D01*
X205194947Y-230639056D01*
X205189388Y-230638786D01*
X205173054Y-230638522D01*
X205146458Y-230638267D01*
X205110115Y-230638021D01*
X205064537Y-230637786D01*
X205010239Y-230637563D01*
X204947734Y-230637352D01*
X204877535Y-230637156D01*
X204800157Y-230636975D01*
X204716113Y-230636810D01*
X204625917Y-230636664D01*
X204530082Y-230636536D01*
X204429123Y-230636428D01*
X204323552Y-230636342D01*
X204213884Y-230636278D01*
X204100631Y-230636238D01*
X203984309Y-230636222D01*
X202751680Y-230636222D01*
X202422986Y-230636222D01*
X202364258Y-230537515D01*
X202364258Y-230495146D01*
X202364962Y-230470668D01*
X202367883Y-230452295D01*
X202374228Y-230434887D01*
X202382208Y-230418911D01*
X202417907Y-230351615D01*
X202739613Y-230351615D01*
X202745172Y-230351843D01*
X202761507Y-230352064D01*
X202788106Y-230352278D01*
X202824454Y-230352485D01*
X202870040Y-230352683D01*
X202924350Y-230352871D01*
X202986872Y-230353048D01*
X203057093Y-230353213D01*
X203134500Y-230353365D01*
X203218580Y-230353503D01*
X203308821Y-230353627D01*
X203404708Y-230353734D01*
X203505731Y-230353825D01*
X203611374Y-230353898D01*
X203721127Y-230353952D01*
X203834475Y-230353987D01*
X203950907Y-230354000D01*
X203965062Y-230354000D01*
X204105886Y-230353992D01*
X204235834Y-230353965D01*
X204355319Y-230353918D01*
X204464754Y-230353846D01*
X204564552Y-230353749D01*
X204655125Y-230353623D01*
X204736886Y-230353465D01*
X204810248Y-230353274D01*
X204875625Y-230353045D01*
X204933428Y-230352777D01*
X204984071Y-230352468D01*
X205027967Y-230352113D01*
X205065529Y-230351712D01*
X205097169Y-230351260D01*
X205123300Y-230350756D01*
X205144335Y-230350197D01*
X205160688Y-230349581D01*
X205172770Y-230348904D01*
X205180995Y-230348164D01*
X205185775Y-230347358D01*
X205187525Y-230346484D01*
X205187526Y-230346223D01*
X205184005Y-230339810D01*
X205175248Y-230324861D01*
X205161911Y-230302469D01*
X205144650Y-230273725D01*
X205124121Y-230239722D01*
X205100982Y-230201553D01*
X205075888Y-230160310D01*
X205070510Y-230151490D01*
X204956479Y-229964533D01*
X204236102Y-229964409D01*
X204131172Y-229964389D01*
X204036933Y-229964359D01*
X203952789Y-229964310D01*
X203878141Y-229964234D01*
X203812391Y-229964120D01*
X203754943Y-229963959D01*
X203705199Y-229963742D01*
X203662561Y-229963461D01*
X203626432Y-229963104D01*
X203596214Y-229962664D01*
X203571310Y-229962131D01*
X203551122Y-229961495D01*
X203535053Y-229960747D01*
X203522505Y-229959879D01*
X203512881Y-229958879D01*
X203505583Y-229957741D01*
X203500014Y-229956453D01*
X203495576Y-229955006D01*
X203491672Y-229953392D01*
X203490325Y-229952788D01*
X203457784Y-229933369D01*
X203433338Y-229907408D01*
X203419110Y-229882689D01*
X203408419Y-229848983D01*
X203406123Y-229813349D01*
X203412324Y-229779740D01*
X203416237Y-229769800D01*
X203420733Y-229761377D01*
X203430519Y-229744052D01*
X203445121Y-229718635D01*
X203464070Y-229685932D01*
X203466179Y-229682311D01*
X203794864Y-229682311D01*
X204064517Y-229682123D01*
X204334169Y-229681935D01*
X204480925Y-229425263D01*
X204509130Y-229375836D01*
X204535622Y-229329221D01*
X204559873Y-229286363D01*
X204581352Y-229248208D01*
X204599530Y-229215700D01*
X204613877Y-229189784D01*
X204623863Y-229171405D01*
X204628960Y-229161508D01*
X204629505Y-229160162D01*
X204628849Y-229158167D01*
X204625328Y-229156508D01*
X204618026Y-229155155D01*
X204606026Y-229154078D01*
X204588410Y-229153247D01*
X204564262Y-229152632D01*
X204532664Y-229152203D01*
X204492701Y-229151931D01*
X204443454Y-229151785D01*
X204384008Y-229151734D01*
X204371656Y-229151733D01*
X204111982Y-229151733D01*
X204101136Y-229167256D01*
X204096154Y-229175134D01*
X204086057Y-229191728D01*
X204071453Y-229216021D01*
X204052946Y-229246996D01*
X204031144Y-229283637D01*
X204006651Y-229324928D01*
X203980073Y-229369851D01*
X203952018Y-229417391D01*
X203950572Y-229419844D01*
X203922559Y-229467359D01*
X203896094Y-229512212D01*
X203871771Y-229553404D01*
X203850180Y-229589934D01*
X203831913Y-229620802D01*
X203817562Y-229645007D01*
X203807719Y-229661549D01*
X203802974Y-229669427D01*
X203802859Y-229669611D01*
X203794864Y-229682311D01*
X203466179Y-229682311D01*
X203486893Y-229646751D01*
X203513120Y-229601900D01*
X203542277Y-229552186D01*
X203573895Y-229498418D01*
X203607501Y-229441402D01*
X203642625Y-229381947D01*
X203644713Y-229378416D01*
X203679595Y-229319377D01*
X203712754Y-229263127D01*
X203743746Y-229210424D01*
X203772129Y-229162029D01*
X203797460Y-229118701D01*
X203819296Y-229081200D01*
X203837193Y-229050284D01*
X203850708Y-229026714D01*
X203859399Y-229011248D01*
X203862822Y-229004647D01*
X203862858Y-229004493D01*
X203860459Y-228998670D01*
X203853701Y-228984221D01*
X203843240Y-228962465D01*
X203829731Y-228934722D01*
X203813831Y-228902310D01*
X203796196Y-228866551D01*
X203777482Y-228828761D01*
X203758344Y-228790263D01*
X203739441Y-228752373D01*
X203721426Y-228716413D01*
X203704957Y-228683701D01*
X203690690Y-228655557D01*
X203679280Y-228633300D01*
X203671384Y-228618250D01*
X203667658Y-228611726D01*
X203667463Y-228611566D01*
X203664740Y-228616582D01*
X203656974Y-228631053D01*
X203644432Y-228654471D01*
X203627387Y-228686331D01*
X203606108Y-228726128D01*
X203580866Y-228773356D01*
X203551930Y-228827509D01*
X203519571Y-228888081D01*
X203484059Y-228954567D01*
X203445664Y-229026460D01*
X203404656Y-229103255D01*
X203361306Y-229184446D01*
X203315884Y-229269527D01*
X203268659Y-229357993D01*
X203219903Y-229449337D01*
X203203025Y-229480960D01*
X203153812Y-229573181D01*
X203106050Y-229662710D01*
X203060010Y-229749038D01*
X203015960Y-229831659D01*
X202974170Y-229910068D01*
X202934910Y-229983756D01*
X202898450Y-230052217D01*
X202865060Y-230114946D01*
X202835008Y-230171434D01*
X202808565Y-230221177D01*
X202786000Y-230263666D01*
X202767583Y-230298395D01*
X202753584Y-230324859D01*
X202744272Y-230342549D01*
X202739917Y-230350960D01*
X202739613Y-230351615D01*
X202417907Y-230351615D01*
X202424524Y-230339142D01*
X202469178Y-230255093D01*
X202515899Y-230167265D01*
X202564420Y-230076159D01*
X202614469Y-229982279D01*
X202665779Y-229886125D01*
X202718079Y-229788198D01*
X202771099Y-229689001D01*
X202824571Y-229589034D01*
X202878225Y-229488800D01*
X202931791Y-229388801D01*
X202985000Y-229289537D01*
X203037582Y-229191510D01*
X203089268Y-229095222D01*
X203139788Y-229001175D01*
X203188874Y-228909870D01*
X203236254Y-228821808D01*
X203281661Y-228737492D01*
X203324824Y-228657423D01*
X203365474Y-228582102D01*
X203403342Y-228512031D01*
X203438158Y-228447712D01*
X203442052Y-228440533D01*
X203903285Y-228440533D01*
X204008489Y-228655022D01*
X204113692Y-228869511D01*
X204374919Y-228869511D01*
X204428010Y-228869435D01*
X204477481Y-228869216D01*
X204522222Y-228868871D01*
X204561122Y-228868414D01*
X204593070Y-228867862D01*
X204616955Y-228867229D01*
X204631667Y-228866532D01*
X204636147Y-228865859D01*
X204633492Y-228860307D01*
X204625903Y-228845928D01*
X204613944Y-228823754D01*
X204598179Y-228794819D01*
X204579171Y-228760154D01*
X204557485Y-228720794D01*
X204533685Y-228677770D01*
X204519037Y-228651370D01*
X204401927Y-228440533D01*
X203903285Y-228440533D01*
X203442052Y-228440533D01*
X203469652Y-228389646D01*
X203497555Y-228338335D01*
X203521597Y-228294280D01*
X203541510Y-228257984D01*
X203557023Y-228229947D01*
X203567867Y-228210671D01*
X203573773Y-228200658D01*
X203574680Y-228199371D01*
X203580990Y-228192487D01*
X203586503Y-228186481D01*
X203591988Y-228181291D01*
X203598217Y-228176857D01*
X203605961Y-228173116D01*
X203615990Y-228170007D01*
X203629076Y-228167470D01*
X203645988Y-228165444D01*
X203667498Y-228163866D01*
X203694377Y-228162677D01*
X203727395Y-228161814D01*
X203767323Y-228161217D01*
X203814932Y-228160824D01*
X203870993Y-228160574D01*
X203936277Y-228160406D01*
X204011553Y-228160259D01*
X204068880Y-228160139D01*
X204138697Y-228160037D01*
X204205459Y-228160047D01*
X204268275Y-228160162D01*
X204326252Y-228160376D01*
X204378497Y-228160681D01*
X204424117Y-228161073D01*
X204462219Y-228161543D01*
X204491912Y-228162085D01*
X204512302Y-228162693D01*
X204522497Y-228163359D01*
X204523294Y-228163517D01*
X204557414Y-228178724D01*
X204585333Y-228200520D01*
X204586316Y-228201552D01*
X204591423Y-228208977D01*
X204601520Y-228225491D01*
X204616150Y-228250293D01*
X204634857Y-228282582D01*
X204657185Y-228321560D01*
X204682678Y-228366424D01*
X204710879Y-228416376D01*
X204741333Y-228470615D01*
X204773582Y-228528341D01*
X204807172Y-228588753D01*
X204811055Y-228595756D01*
X204960797Y-228865859D01*
X205020713Y-228973933D01*
X205018784Y-229016267D01*
X205016855Y-229058600D01*
X204958477Y-229160162D01*
X204838411Y-229369044D01*
X204659968Y-229679489D01*
G37*
X204659968Y-229679489D02*
X204866780Y-229682311D01*
X204923765Y-229683122D01*
X204970653Y-229683977D01*
X205008633Y-229685060D01*
X205038896Y-229686561D01*
X205062631Y-229688664D01*
X205081030Y-229691556D01*
X205095281Y-229695426D01*
X205106576Y-229700458D01*
X205116103Y-229706840D01*
X205125055Y-229714758D01*
X205134531Y-229724309D01*
X205139875Y-229731568D01*
X205150484Y-229747534D01*
X205165775Y-229771258D01*
X205185163Y-229801791D01*
X205208064Y-229838185D01*
X205233896Y-229879491D01*
X205262074Y-229924760D01*
X205292015Y-229973043D01*
X205323135Y-230023391D01*
X205354850Y-230074857D01*
X205386576Y-230126490D01*
X205417730Y-230177343D01*
X205447728Y-230226466D01*
X205475986Y-230272911D01*
X205501921Y-230315729D01*
X205520283Y-230346223D01*
X205524949Y-230353971D01*
X205544485Y-230386688D01*
X205559947Y-230412933D01*
X205570750Y-230431755D01*
X205576311Y-230442206D01*
X205576541Y-230442719D01*
X205582630Y-230466135D01*
X205584344Y-230494683D01*
X205581813Y-230523394D01*
X205575167Y-230547303D01*
X205573721Y-230550369D01*
X205569689Y-230557579D01*
X205560286Y-230573987D01*
X205545833Y-230599041D01*
X205526649Y-230632191D01*
X205522669Y-230639056D01*
X205503056Y-230672885D01*
X205475373Y-230720572D01*
X205443921Y-230774701D01*
X205409020Y-230834721D01*
X205370992Y-230900080D01*
X205330155Y-230970228D01*
X205286832Y-231044612D01*
X205241341Y-231122683D01*
X205194004Y-231203888D01*
X205145141Y-231287677D01*
X205133339Y-231307911D01*
X204703649Y-232044511D01*
X204922487Y-232047333D01*
X204978082Y-232048072D01*
X205023548Y-232048763D01*
X205060044Y-232049477D01*
X205088729Y-232050286D01*
X205110762Y-232051263D01*
X205127303Y-232052479D01*
X205139510Y-232054007D01*
X205148543Y-232055919D01*
X205155561Y-232058286D01*
X205161723Y-232061181D01*
X205163902Y-232062339D01*
X205181924Y-232073971D01*
X205198252Y-232087510D01*
X205201242Y-232090561D01*
X205206516Y-232097981D01*
X205217042Y-232114302D01*
X205232325Y-232138712D01*
X205251869Y-232170397D01*
X205275177Y-232208541D01*
X205301755Y-232252333D01*
X205331105Y-232300957D01*
X205362733Y-232353600D01*
X205396143Y-232409448D01*
X205424197Y-232456520D01*
X205573662Y-232707733D01*
X205632391Y-232806441D01*
X205632391Y-232848809D01*
X205631687Y-232873288D01*
X205628766Y-232891663D01*
X205622419Y-232909074D01*
X205614443Y-232925044D01*
X205577237Y-232995188D01*
X205572443Y-233004226D01*
X205528079Y-233087736D01*
X205481620Y-233175074D01*
X205433338Y-233265736D01*
X205383502Y-233359220D01*
X205332381Y-233455023D01*
X205280246Y-233552644D01*
X205227367Y-233651579D01*
X205174013Y-233751326D01*
X205120455Y-233851383D01*
X205066963Y-233951247D01*
X205013806Y-234050416D01*
X204961254Y-234148388D01*
X204909578Y-234244659D01*
X204859047Y-234338727D01*
X204809932Y-234430091D01*
X204762502Y-234518247D01*
X204717027Y-234602693D01*
X204673777Y-234682926D01*
X204633022Y-234758444D01*
X204595032Y-234828746D01*
X204560078Y-234893327D01*
X204554604Y-234903422D01*
X204528428Y-234951686D01*
X204500353Y-235003320D01*
X204476123Y-235047727D01*
X204456008Y-235084404D01*
X204440278Y-235112849D01*
X204429202Y-235132560D01*
X204423052Y-235143033D01*
X204421976Y-235144585D01*
X204415719Y-235151418D01*
X204410267Y-235157388D01*
X204404858Y-235162554D01*
X204398729Y-235166972D01*
X204391116Y-235170701D01*
X204381258Y-235173799D01*
X204368391Y-235176324D01*
X204351753Y-235178334D01*
X204330581Y-235179887D01*
X204304113Y-235181042D01*
X204271586Y-235181855D01*
X204232237Y-235182385D01*
X204185304Y-235182690D01*
X204130023Y-235182829D01*
X204065633Y-235182858D01*
X203991370Y-235182837D01*
X203919302Y-235182822D01*
X203470569Y-235182822D01*
X203447991Y-235170639D01*
X203429867Y-235158986D01*
X203413343Y-235145430D01*
X203410338Y-235142417D01*
X203405249Y-235134959D01*
X203395231Y-235118386D01*
X203380738Y-235093507D01*
X203362225Y-235061127D01*
X203340145Y-235022056D01*
X203314954Y-234977102D01*
X203287106Y-234927071D01*
X203257054Y-234872772D01*
X203225254Y-234815012D01*
X203192159Y-234754599D01*
X203190204Y-234751022D01*
X203039109Y-234474444D01*
X203361557Y-234474444D01*
X203478152Y-234688813D01*
X203594747Y-234903181D01*
X203844055Y-234903302D01*
X204093364Y-234903422D01*
X203988161Y-234688933D01*
X203882957Y-234474444D01*
X203361557Y-234474444D01*
X203039109Y-234474444D01*
X202985147Y-234375667D01*
X202985147Y-234333333D01*
X202986931Y-234300954D01*
X202992197Y-234278267D01*
X202994118Y-234274067D01*
X202998468Y-234266189D01*
X203007869Y-234249404D01*
X203021805Y-234224624D01*
X203039762Y-234192762D01*
X203044048Y-234185167D01*
X203371953Y-234185167D01*
X203374163Y-234186899D01*
X203381413Y-234188344D01*
X203394501Y-234189521D01*
X203414226Y-234190454D01*
X203441386Y-234191165D01*
X203476779Y-234191675D01*
X203521204Y-234192006D01*
X203575460Y-234192181D01*
X203628229Y-234192222D01*
X203884667Y-234192222D01*
X203895513Y-234176700D01*
X203900496Y-234168822D01*
X203910592Y-234152228D01*
X203925196Y-234127935D01*
X203943703Y-234096960D01*
X203965506Y-234060318D01*
X203989999Y-234019028D01*
X204016576Y-233974104D01*
X204044631Y-233926565D01*
X204046078Y-233924111D01*
X204074092Y-233876595D01*
X204100559Y-233831737D01*
X204124886Y-233790540D01*
X204146482Y-233754002D01*
X204164754Y-233723126D01*
X204179111Y-233698912D01*
X204188960Y-233682361D01*
X204193711Y-233674474D01*
X204193826Y-233674290D01*
X204201857Y-233661535D01*
X203662823Y-233664467D01*
X203517468Y-233921289D01*
X203489558Y-233970729D01*
X203463401Y-234017306D01*
X203439518Y-234060078D01*
X203418428Y-234098105D01*
X203400648Y-234130445D01*
X203386699Y-234156156D01*
X203377098Y-234174299D01*
X203372366Y-234183931D01*
X203371953Y-234185167D01*
X203044048Y-234185167D01*
X203061223Y-234154732D01*
X203085674Y-234111447D01*
X203112600Y-234063820D01*
X203141484Y-234012764D01*
X203170507Y-233961496D01*
X203200469Y-233908556D01*
X203228713Y-233858592D01*
X203254758Y-233812459D01*
X203278123Y-233771011D01*
X203298327Y-233735103D01*
X203314890Y-233705589D01*
X203327331Y-233683323D01*
X203335170Y-233669160D01*
X203337924Y-233663954D01*
X203337925Y-233663950D01*
X203332488Y-233663474D01*
X203317009Y-233662955D01*
X203292735Y-233662414D01*
X203260911Y-233661871D01*
X203222785Y-233661349D01*
X203179603Y-233660868D01*
X203132611Y-233660449D01*
X203130491Y-233660432D01*
X203073451Y-233659958D01*
X203026511Y-233659385D01*
X202988483Y-233658532D01*
X202958177Y-233657220D01*
X202934406Y-233655267D01*
X202915980Y-233652492D01*
X202901711Y-233648715D01*
X202890411Y-233643756D01*
X202880891Y-233637433D01*
X202871963Y-233629567D01*
X202862437Y-233619976D01*
X202862118Y-233619647D01*
X202856774Y-233612388D01*
X202846165Y-233596422D01*
X202830875Y-233572698D01*
X202811487Y-233542164D01*
X202788585Y-233505771D01*
X202762753Y-233464465D01*
X202734575Y-233419196D01*
X202704634Y-233370913D01*
X202673514Y-233320564D01*
X202641799Y-233269099D01*
X202610073Y-233217466D01*
X202578919Y-233166613D01*
X202548921Y-233117490D01*
X202520663Y-233071045D01*
X202494728Y-233028227D01*
X202473890Y-232993620D01*
X202807347Y-232993620D01*
X202810188Y-232999088D01*
X202818293Y-233013136D01*
X202831034Y-233034714D01*
X202847784Y-233062774D01*
X202867916Y-233096265D01*
X202890802Y-233134137D01*
X202915815Y-233175342D01*
X202923736Y-233188353D01*
X203040125Y-233379422D01*
X203760525Y-233379546D01*
X203865457Y-233379567D01*
X203959697Y-233379597D01*
X204043843Y-233379645D01*
X204118493Y-233379722D01*
X204184244Y-233379836D01*
X204241694Y-233379997D01*
X204291439Y-233380213D01*
X204334079Y-233380495D01*
X204370209Y-233380851D01*
X204400428Y-233381291D01*
X204425334Y-233381825D01*
X204445522Y-233382461D01*
X204461592Y-233383208D01*
X204474141Y-233384077D01*
X204483766Y-233385076D01*
X204491064Y-233386215D01*
X204496634Y-233387503D01*
X204501072Y-233388949D01*
X204504976Y-233390563D01*
X204506325Y-233391168D01*
X204538865Y-233410587D01*
X204563312Y-233436548D01*
X204577539Y-233461267D01*
X204588230Y-233494972D01*
X204590526Y-233530608D01*
X204584326Y-233564220D01*
X204580416Y-233574156D01*
X204575920Y-233582579D01*
X204566134Y-233599903D01*
X204551529Y-233625319D01*
X204532578Y-233658019D01*
X204530530Y-233661535D01*
X204509751Y-233697197D01*
X204483521Y-233742045D01*
X204454359Y-233791754D01*
X204422737Y-233845517D01*
X204389126Y-233902526D01*
X204353998Y-233961974D01*
X204351940Y-233965453D01*
X204317049Y-234024519D01*
X204283889Y-234080833D01*
X204252905Y-234133630D01*
X204224538Y-234182147D01*
X204199233Y-234225621D01*
X204177432Y-234263289D01*
X204159577Y-234294388D01*
X204146113Y-234318154D01*
X204137481Y-234333824D01*
X204134126Y-234340635D01*
X204134098Y-234340808D01*
X204136623Y-234347182D01*
X204143687Y-234362492D01*
X204154736Y-234385598D01*
X204169216Y-234415362D01*
X204186571Y-234450645D01*
X204206247Y-234490308D01*
X204227689Y-234533213D01*
X204231498Y-234540802D01*
X204328592Y-234734160D01*
X204791403Y-233867290D01*
X204840619Y-233775096D01*
X204888403Y-233685566D01*
X204934482Y-233599211D01*
X204978586Y-233516539D01*
X205020444Y-233438059D01*
X205059783Y-233364281D01*
X205096333Y-233295714D01*
X205129823Y-233232867D01*
X205159980Y-233176250D01*
X205186534Y-233126371D01*
X205209213Y-233083740D01*
X205227747Y-233048866D01*
X205241863Y-233022259D01*
X205251290Y-233004427D01*
X205255757Y-232995879D01*
X205256095Y-232995188D01*
X205250718Y-232994598D01*
X205234350Y-232994037D01*
X205207291Y-232993506D01*
X205169838Y-232993007D01*
X205122291Y-232992541D01*
X205064949Y-232992109D01*
X204998109Y-232991713D01*
X204922070Y-232991353D01*
X204837131Y-232991032D01*
X204743590Y-232990750D01*
X204641747Y-232990509D01*
X204531899Y-232990309D01*
X204414345Y-232990153D01*
X204289384Y-232990041D01*
X204157314Y-232989975D01*
X204032662Y-232989956D01*
X203915901Y-232989972D01*
X203802162Y-232990021D01*
X203691957Y-232990101D01*
X203585800Y-232990209D01*
X203484203Y-232990346D01*
X203387679Y-232990508D01*
X203296741Y-232990695D01*
X203211902Y-232990905D01*
X203133674Y-232991137D01*
X203062572Y-232991388D01*
X202999106Y-232991658D01*
X202943792Y-232991945D01*
X202897141Y-232992247D01*
X202859665Y-232992563D01*
X202831880Y-232992891D01*
X202814296Y-232993230D01*
X202807427Y-232993578D01*
X202807347Y-232993620D01*
X202473890Y-232993620D01*
X202471701Y-232989985D01*
X202452164Y-232957267D01*
X202436702Y-232931023D01*
X202425899Y-232912201D01*
X202420338Y-232901750D01*
X202420108Y-232901237D01*
X202414019Y-232877820D01*
X202412306Y-232849273D01*
X202414837Y-232820561D01*
X202421482Y-232796653D01*
X202422929Y-232793586D01*
X202426960Y-232786377D01*
X202436363Y-232769969D01*
X202450816Y-232744915D01*
X202470000Y-232711765D01*
X202473981Y-232704899D01*
X202801702Y-232704899D01*
X202807261Y-232705170D01*
X202823595Y-232705433D01*
X202850191Y-232705689D01*
X202886534Y-232705934D01*
X202932112Y-232706170D01*
X202986410Y-232706393D01*
X203048916Y-232706604D01*
X203119114Y-232706800D01*
X203196492Y-232706981D01*
X203280536Y-232707145D01*
X203370732Y-232707292D01*
X203466567Y-232707420D01*
X203567526Y-232707528D01*
X203673097Y-232707614D01*
X203782766Y-232707678D01*
X203896018Y-232707718D01*
X204012341Y-232707733D01*
X205244969Y-232707733D01*
X205133112Y-232520056D01*
X205021255Y-232332378D01*
X204341868Y-232329556D01*
X203662480Y-232326733D01*
X203639517Y-232314442D01*
X203609750Y-232293094D01*
X203585774Y-232265166D01*
X203568907Y-232233091D01*
X203560469Y-232199300D01*
X203561096Y-232169892D01*
X203561992Y-232164448D01*
X203562980Y-232159321D01*
X203564408Y-232153870D01*
X203566627Y-232147454D01*
X203569989Y-232139432D01*
X203574842Y-232129164D01*
X203581538Y-232116009D01*
X203590428Y-232099325D01*
X203601860Y-232078473D01*
X203616187Y-232052810D01*
X203633758Y-232021697D01*
X203654925Y-231984491D01*
X203680036Y-231940554D01*
X203709443Y-231889243D01*
X203743497Y-231829918D01*
X203782547Y-231761937D01*
X203816395Y-231703022D01*
X203851776Y-231641439D01*
X203885539Y-231582668D01*
X203917262Y-231527447D01*
X203946521Y-231476513D01*
X203972893Y-231430604D01*
X203995954Y-231390455D01*
X204015282Y-231356804D01*
X204030452Y-231330388D01*
X204041042Y-231311944D01*
X204046629Y-231302209D01*
X204047403Y-231300856D01*
X204042510Y-231299910D01*
X204027537Y-231299037D01*
X204003692Y-231298262D01*
X203972185Y-231297610D01*
X203934224Y-231297103D01*
X203891018Y-231296767D01*
X203843776Y-231296625D01*
X203835666Y-231296622D01*
X203621541Y-231296622D01*
X203211622Y-231999344D01*
X203163802Y-232081339D01*
X203117566Y-232160659D01*
X203073229Y-232236757D01*
X203031109Y-232309086D01*
X202991525Y-232377101D01*
X202954792Y-232440254D01*
X202921229Y-232498000D01*
X202891154Y-232549791D01*
X202864883Y-232595082D01*
X202842734Y-232633326D01*
X202825025Y-232663977D01*
X202812074Y-232686487D01*
X202804196Y-232700312D01*
X202801702Y-232704899D01*
X202473981Y-232704899D01*
X202493593Y-232671071D01*
X202521276Y-232623384D01*
X202552728Y-232569255D01*
X202587629Y-232509235D01*
X202625658Y-232443876D01*
X202666494Y-232373728D01*
X202709818Y-232299343D01*
X202755308Y-232221273D01*
X202802645Y-232140067D01*
X202851508Y-232056279D01*
X202863311Y-232036044D01*
X203293000Y-231299444D01*
X203074162Y-231296622D01*
X203018567Y-231295883D01*
X202973101Y-231295193D01*
X202936605Y-231294479D01*
X202907920Y-231293670D01*
X202885887Y-231292693D01*
X202869346Y-231291477D01*
X202857139Y-231289949D01*
X202848106Y-231288037D01*
X202841088Y-231285669D01*
X202834927Y-231282774D01*
X202832747Y-231281617D01*
X202814725Y-231269985D01*
X202798398Y-231256446D01*
X202795408Y-231253395D01*
X202790133Y-231245975D01*
X202779607Y-231229653D01*
X202764324Y-231205243D01*
X202744781Y-231173559D01*
X202721472Y-231135414D01*
X202694895Y-231091623D01*
X202665544Y-231042999D01*
X202633916Y-230990356D01*
X202600506Y-230934508D01*
X202572452Y-230887435D01*
X202422986Y-230636222D01*
X202751680Y-230636222D01*
X202975394Y-231011578D01*
X203654782Y-231014400D01*
X204334169Y-231017222D01*
X204357132Y-231029514D01*
X204389803Y-231052775D01*
X204414148Y-231082183D01*
X204429598Y-231116010D01*
X204435581Y-231152532D01*
X204431528Y-231190023D01*
X204420244Y-231220422D01*
X204415704Y-231228762D01*
X204405981Y-231246104D01*
X204391520Y-231271666D01*
X204372767Y-231304666D01*
X204350170Y-231344322D01*
X204324174Y-231389852D01*
X204295227Y-231440473D01*
X204263773Y-231495403D01*
X204230260Y-231553860D01*
X204195134Y-231615062D01*
X204180274Y-231640933D01*
X204144893Y-231702517D01*
X204111130Y-231761288D01*
X204079406Y-231816509D01*
X204050146Y-231867443D01*
X204023774Y-231913352D01*
X204000711Y-231953501D01*
X203981382Y-231987152D01*
X203966210Y-232013568D01*
X203955619Y-232032012D01*
X203950032Y-232041746D01*
X203949256Y-232043100D01*
X203954147Y-232044046D01*
X203969118Y-232044919D01*
X203992960Y-232045693D01*
X204024466Y-232046346D01*
X204062425Y-232046852D01*
X204105630Y-232047189D01*
X204152872Y-232047330D01*
X204160983Y-232047333D01*
X204375109Y-232047333D01*
X204785028Y-231344612D01*
X204832847Y-231262617D01*
X204879083Y-231183297D01*
X204923420Y-231107199D01*
X204965540Y-231034870D01*
X205005125Y-230966855D01*
X205041857Y-230903702D01*
X205075420Y-230845956D01*
X205105495Y-230794164D01*
X205131766Y-230748873D01*
X205153915Y-230710629D01*
X205171624Y-230679979D01*
X205184576Y-230657468D01*
X205192453Y-230643644D01*
X205194947Y-230639056D01*
X205189388Y-230638786D01*
X205173054Y-230638522D01*
X205146458Y-230638267D01*
X205110115Y-230638021D01*
X205064537Y-230637786D01*
X205010239Y-230637563D01*
X204947734Y-230637352D01*
X204877535Y-230637156D01*
X204800157Y-230636975D01*
X204716113Y-230636810D01*
X204625917Y-230636664D01*
X204530082Y-230636536D01*
X204429123Y-230636428D01*
X204323552Y-230636342D01*
X204213884Y-230636278D01*
X204100631Y-230636238D01*
X203984309Y-230636222D01*
X202751680Y-230636222D01*
X202422986Y-230636222D01*
X202364258Y-230537515D01*
X202364258Y-230495146D01*
X202364962Y-230470668D01*
X202367883Y-230452295D01*
X202374228Y-230434887D01*
X202382208Y-230418911D01*
X202417907Y-230351615D01*
X202739613Y-230351615D01*
X202745172Y-230351843D01*
X202761507Y-230352064D01*
X202788106Y-230352278D01*
X202824454Y-230352485D01*
X202870040Y-230352683D01*
X202924350Y-230352871D01*
X202986872Y-230353048D01*
X203057093Y-230353213D01*
X203134500Y-230353365D01*
X203218580Y-230353503D01*
X203308821Y-230353627D01*
X203404708Y-230353734D01*
X203505731Y-230353825D01*
X203611374Y-230353898D01*
X203721127Y-230353952D01*
X203834475Y-230353987D01*
X203950907Y-230354000D01*
X203965062Y-230354000D01*
X204105886Y-230353992D01*
X204235834Y-230353965D01*
X204355319Y-230353918D01*
X204464754Y-230353846D01*
X204564552Y-230353749D01*
X204655125Y-230353623D01*
X204736886Y-230353465D01*
X204810248Y-230353274D01*
X204875625Y-230353045D01*
X204933428Y-230352777D01*
X204984071Y-230352468D01*
X205027967Y-230352113D01*
X205065529Y-230351712D01*
X205097169Y-230351260D01*
X205123300Y-230350756D01*
X205144335Y-230350197D01*
X205160688Y-230349581D01*
X205172770Y-230348904D01*
X205180995Y-230348164D01*
X205185775Y-230347358D01*
X205187525Y-230346484D01*
X205187526Y-230346223D01*
X205184005Y-230339810D01*
X205175248Y-230324861D01*
X205161911Y-230302469D01*
X205144650Y-230273725D01*
X205124121Y-230239722D01*
X205100982Y-230201553D01*
X205075888Y-230160310D01*
X205070510Y-230151490D01*
X204956479Y-229964533D01*
X204236102Y-229964409D01*
X204131172Y-229964389D01*
X204036933Y-229964359D01*
X203952789Y-229964310D01*
X203878141Y-229964234D01*
X203812391Y-229964120D01*
X203754943Y-229963959D01*
X203705199Y-229963742D01*
X203662561Y-229963461D01*
X203626432Y-229963104D01*
X203596214Y-229962664D01*
X203571310Y-229962131D01*
X203551122Y-229961495D01*
X203535053Y-229960747D01*
X203522505Y-229959879D01*
X203512881Y-229958879D01*
X203505583Y-229957741D01*
X203500014Y-229956453D01*
X203495576Y-229955006D01*
X203491672Y-229953392D01*
X203490325Y-229952788D01*
X203457784Y-229933369D01*
X203433338Y-229907408D01*
X203419110Y-229882689D01*
X203408419Y-229848983D01*
X203406123Y-229813349D01*
X203412324Y-229779740D01*
X203416237Y-229769800D01*
X203420733Y-229761377D01*
X203430519Y-229744052D01*
X203445121Y-229718635D01*
X203464070Y-229685932D01*
X203466179Y-229682311D01*
X203794864Y-229682311D01*
X204064517Y-229682123D01*
X204334169Y-229681935D01*
X204480925Y-229425263D01*
X204509130Y-229375836D01*
X204535622Y-229329221D01*
X204559873Y-229286363D01*
X204581352Y-229248208D01*
X204599530Y-229215700D01*
X204613877Y-229189784D01*
X204623863Y-229171405D01*
X204628960Y-229161508D01*
X204629505Y-229160162D01*
X204628849Y-229158167D01*
X204625328Y-229156508D01*
X204618026Y-229155155D01*
X204606026Y-229154078D01*
X204588410Y-229153247D01*
X204564262Y-229152632D01*
X204532664Y-229152203D01*
X204492701Y-229151931D01*
X204443454Y-229151785D01*
X204384008Y-229151734D01*
X204371656Y-229151733D01*
X204111982Y-229151733D01*
X204101136Y-229167256D01*
X204096154Y-229175134D01*
X204086057Y-229191728D01*
X204071453Y-229216021D01*
X204052946Y-229246996D01*
X204031144Y-229283637D01*
X204006651Y-229324928D01*
X203980073Y-229369851D01*
X203952018Y-229417391D01*
X203950572Y-229419844D01*
X203922559Y-229467359D01*
X203896094Y-229512212D01*
X203871771Y-229553404D01*
X203850180Y-229589934D01*
X203831913Y-229620802D01*
X203817562Y-229645007D01*
X203807719Y-229661549D01*
X203802974Y-229669427D01*
X203802859Y-229669611D01*
X203794864Y-229682311D01*
X203466179Y-229682311D01*
X203486893Y-229646751D01*
X203513120Y-229601900D01*
X203542277Y-229552186D01*
X203573895Y-229498418D01*
X203607501Y-229441402D01*
X203642625Y-229381947D01*
X203644713Y-229378416D01*
X203679595Y-229319377D01*
X203712754Y-229263127D01*
X203743746Y-229210424D01*
X203772129Y-229162029D01*
X203797460Y-229118701D01*
X203819296Y-229081200D01*
X203837193Y-229050284D01*
X203850708Y-229026714D01*
X203859399Y-229011248D01*
X203862822Y-229004647D01*
X203862858Y-229004493D01*
X203860459Y-228998670D01*
X203853701Y-228984221D01*
X203843240Y-228962465D01*
X203829731Y-228934722D01*
X203813831Y-228902310D01*
X203796196Y-228866551D01*
X203777482Y-228828761D01*
X203758344Y-228790263D01*
X203739441Y-228752373D01*
X203721426Y-228716413D01*
X203704957Y-228683701D01*
X203690690Y-228655557D01*
X203679280Y-228633300D01*
X203671384Y-228618250D01*
X203667658Y-228611726D01*
X203667463Y-228611566D01*
X203664740Y-228616582D01*
X203656974Y-228631053D01*
X203644432Y-228654471D01*
X203627387Y-228686331D01*
X203606108Y-228726128D01*
X203580866Y-228773356D01*
X203551930Y-228827509D01*
X203519571Y-228888081D01*
X203484059Y-228954567D01*
X203445664Y-229026460D01*
X203404656Y-229103255D01*
X203361306Y-229184446D01*
X203315884Y-229269527D01*
X203268659Y-229357993D01*
X203219903Y-229449337D01*
X203203025Y-229480960D01*
X203153812Y-229573181D01*
X203106050Y-229662710D01*
X203060010Y-229749038D01*
X203015960Y-229831659D01*
X202974170Y-229910068D01*
X202934910Y-229983756D01*
X202898450Y-230052217D01*
X202865060Y-230114946D01*
X202835008Y-230171434D01*
X202808565Y-230221177D01*
X202786000Y-230263666D01*
X202767583Y-230298395D01*
X202753584Y-230324859D01*
X202744272Y-230342549D01*
X202739917Y-230350960D01*
X202739613Y-230351615D01*
X202417907Y-230351615D01*
X202424524Y-230339142D01*
X202469178Y-230255093D01*
X202515899Y-230167265D01*
X202564420Y-230076159D01*
X202614469Y-229982279D01*
X202665779Y-229886125D01*
X202718079Y-229788198D01*
X202771099Y-229689001D01*
X202824571Y-229589034D01*
X202878225Y-229488800D01*
X202931791Y-229388801D01*
X202985000Y-229289537D01*
X203037582Y-229191510D01*
X203089268Y-229095222D01*
X203139788Y-229001175D01*
X203188874Y-228909870D01*
X203236254Y-228821808D01*
X203281661Y-228737492D01*
X203324824Y-228657423D01*
X203365474Y-228582102D01*
X203403342Y-228512031D01*
X203438158Y-228447712D01*
X203442052Y-228440533D01*
X203903285Y-228440533D01*
X204008489Y-228655022D01*
X204113692Y-228869511D01*
X204374919Y-228869511D01*
X204428010Y-228869435D01*
X204477481Y-228869216D01*
X204522222Y-228868871D01*
X204561122Y-228868414D01*
X204593070Y-228867862D01*
X204616955Y-228867229D01*
X204631667Y-228866532D01*
X204636147Y-228865859D01*
X204633492Y-228860307D01*
X204625903Y-228845928D01*
X204613944Y-228823754D01*
X204598179Y-228794819D01*
X204579171Y-228760154D01*
X204557485Y-228720794D01*
X204533685Y-228677770D01*
X204519037Y-228651370D01*
X204401927Y-228440533D01*
X203903285Y-228440533D01*
X203442052Y-228440533D01*
X203469652Y-228389646D01*
X203497555Y-228338335D01*
X203521597Y-228294280D01*
X203541510Y-228257984D01*
X203557023Y-228229947D01*
X203567867Y-228210671D01*
X203573773Y-228200658D01*
X203574680Y-228199371D01*
X203580990Y-228192487D01*
X203586503Y-228186481D01*
X203591988Y-228181291D01*
X203598217Y-228176857D01*
X203605961Y-228173116D01*
X203615990Y-228170007D01*
X203629076Y-228167470D01*
X203645988Y-228165444D01*
X203667498Y-228163866D01*
X203694377Y-228162677D01*
X203727395Y-228161814D01*
X203767323Y-228161217D01*
X203814932Y-228160824D01*
X203870993Y-228160574D01*
X203936277Y-228160406D01*
X204011553Y-228160259D01*
X204068880Y-228160139D01*
X204138697Y-228160037D01*
X204205459Y-228160047D01*
X204268275Y-228160162D01*
X204326252Y-228160376D01*
X204378497Y-228160681D01*
X204424117Y-228161073D01*
X204462219Y-228161543D01*
X204491912Y-228162085D01*
X204512302Y-228162693D01*
X204522497Y-228163359D01*
X204523294Y-228163517D01*
X204557414Y-228178724D01*
X204585333Y-228200520D01*
X204586316Y-228201552D01*
X204591423Y-228208977D01*
X204601520Y-228225491D01*
X204616150Y-228250293D01*
X204634857Y-228282582D01*
X204657185Y-228321560D01*
X204682678Y-228366424D01*
X204710879Y-228416376D01*
X204741333Y-228470615D01*
X204773582Y-228528341D01*
X204807172Y-228588753D01*
X204811055Y-228595756D01*
X204960797Y-228865859D01*
X205020713Y-228973933D01*
X205018784Y-229016267D01*
X205016855Y-229058600D01*
X204958477Y-229160162D01*
X204838411Y-229369044D01*
X204659968Y-229679489D01*
D14*
X219582439Y-179472525D03*
X219582439Y-178822525D03*
X219582439Y-178172525D03*
X219582439Y-177522525D03*
X216782439Y-177522525D03*
X216782439Y-178172525D03*
X216782439Y-178822525D03*
X216782439Y-179472525D03*
D15*
X218182439Y-178497525D03*
D16*
X218507439Y-179785525D03*
X217857439Y-179785525D03*
X218507439Y-177209525D03*
X217857439Y-177209525D03*
D17*
X223639925Y-173950925D03*
X222089925Y-173950925D03*
D18*
X183648325Y-157112725D03*
X190563296Y-164027696D03*
D19*
X198424800Y-193407800D03*
X198424800Y-191757800D03*
D17*
X197040800Y-178231800D03*
X195490800Y-178231800D03*
D20*
X210515200Y-167068200D03*
X210515200Y-168618200D03*
D18*
X183648325Y-101789200D03*
X183648325Y-61089200D03*
D21*
X218708325Y-213175725D03*
X224488325Y-213175725D03*
D22*
X224823325Y-215120725D03*
X224048325Y-215120725D03*
D23*
X223348325Y-215120725D03*
X222848325Y-215120725D03*
X222348325Y-215120725D03*
X221848325Y-215120725D03*
X221348325Y-215120725D03*
X220848325Y-215120725D03*
X220348325Y-215120725D03*
X219848325Y-215120725D03*
D22*
X219148325Y-215120725D03*
X218373325Y-215120725D03*
D24*
X214370925Y-170725125D03*
D25*
X213070925Y-170725125D03*
D26*
X195690551Y-172387325D03*
X195690551Y-173787325D03*
D24*
X223562725Y-187087925D03*
D25*
X222262725Y-187087925D03*
D18*
X224348325Y-101789200D03*
X217433354Y-164027696D03*
D27*
X179618285Y-200725685D03*
X181739606Y-203624823D03*
X182517423Y-202847006D03*
D28*
X185648325Y-148302725D03*
X186398325Y-148302725D03*
X187148325Y-149802725D03*
X187898325Y-148302725D03*
X185648325Y-149802725D03*
X184148325Y-149802725D03*
X186398325Y-149802725D03*
X184898325Y-149802725D03*
X188648325Y-148302725D03*
X187898325Y-149802725D03*
X188648325Y-149802725D03*
X184898325Y-148302725D03*
X187148325Y-148302725D03*
X184148325Y-148302725D03*
D29*
X198218087Y-166686334D03*
X198218087Y-167636294D03*
X198218087Y-168586254D03*
X200813967Y-168586254D03*
X200813967Y-166686334D03*
D28*
X184148325Y-112202725D03*
X188648325Y-110702725D03*
X187898325Y-112202725D03*
X187148325Y-112202725D03*
X186398325Y-110702725D03*
X184898325Y-110702725D03*
X184148325Y-110702725D03*
X187898325Y-110702725D03*
X184898325Y-112202725D03*
X187148325Y-110702725D03*
X185648325Y-110702725D03*
X188648325Y-112202725D03*
X186398325Y-112202725D03*
X185648325Y-112202725D03*
D30*
X223609800Y-131452525D03*
D31*
X184609800Y-131452525D03*
D32*
X179427553Y-153998247D03*
X180541247Y-152884553D03*
D33*
X194398427Y-165070894D03*
X196048427Y-165070894D03*
D34*
X200844685Y-182927094D03*
D35*
X199544685Y-182927094D03*
D36*
X198244685Y-182927094D03*
D37*
X208178400Y-192368306D03*
D38*
X208178400Y-193668306D03*
D30*
X157975175Y-157919000D03*
D39*
X157975175Y-196919000D03*
D40*
X199948800Y-191757800D03*
X199948800Y-193407800D03*
D41*
X222384925Y-172680925D03*
X223344925Y-172680925D03*
D42*
X207998325Y-71439200D03*
X207998325Y-91439200D03*
D28*
X176330325Y-196562725D03*
X174830325Y-196562725D03*
X174830325Y-195812725D03*
X174830325Y-193562725D03*
X176330325Y-194312725D03*
X176330325Y-193562725D03*
X176330325Y-195812725D03*
X176330325Y-197312725D03*
X174830325Y-195062725D03*
X174830325Y-192812725D03*
X176330325Y-195062725D03*
X174830325Y-197312725D03*
X174830325Y-194312725D03*
X176330325Y-192812725D03*
D43*
X209078325Y-68844800D03*
X198918325Y-68844800D03*
X203998325Y-68844800D03*
D44*
X201207244Y-225007125D03*
D45*
X201207244Y-214847125D03*
D28*
X233152325Y-161362725D03*
X233152325Y-158362725D03*
X231652325Y-160612725D03*
X231652325Y-162112725D03*
X231652325Y-161362725D03*
X231652325Y-159862725D03*
X233152325Y-160612725D03*
X233152325Y-162112725D03*
X233152325Y-159862725D03*
X231652325Y-158362725D03*
X231652325Y-159112725D03*
X233152325Y-157612725D03*
X231652325Y-157612725D03*
X233152325Y-159112725D03*
D46*
X214901525Y-173447325D03*
X214901525Y-172487325D03*
D42*
X215998325Y-80189200D03*
X215998325Y-60189200D03*
D18*
X217433354Y-190897754D03*
D47*
X192998325Y-220002725D03*
D48*
X192998325Y-220002725D03*
D18*
X224348325Y-197812725D03*
D49*
X245760525Y-153593125D03*
X246760525Y-153593125D03*
D14*
X219588325Y-185014925D03*
X219588325Y-184364925D03*
X219588325Y-183714925D03*
X219588325Y-183064925D03*
X216788325Y-183064925D03*
X216788325Y-183714925D03*
X216788325Y-184364925D03*
X216788325Y-185014925D03*
D15*
X218188325Y-184039925D03*
D16*
X218513325Y-185327925D03*
X217863325Y-185327925D03*
X218513325Y-182751925D03*
X217863325Y-182751925D03*
D20*
X207441800Y-167080600D03*
X207441800Y-168630600D03*
D50*
X193975947Y-171619325D03*
X193975947Y-172579325D03*
D40*
X208602325Y-182762494D03*
X208602325Y-184412494D03*
D30*
X250008325Y-196962725D03*
D51*
X250008325Y-157962725D03*
D52*
X201588625Y-172985325D03*
X201588625Y-173485325D03*
X201588625Y-173985325D03*
X201588625Y-174485325D03*
X201588625Y-174985325D03*
X201588625Y-175485325D03*
X201588625Y-175985325D03*
X201588625Y-176485325D03*
X201588625Y-176985325D03*
X201588625Y-177485325D03*
X201588625Y-177985325D03*
X201588625Y-178485325D03*
D53*
X203001125Y-179897825D03*
X203501125Y-179897825D03*
X204001125Y-179897825D03*
X204501125Y-179897825D03*
X205001125Y-179897825D03*
X205501125Y-179897825D03*
X206001125Y-179897825D03*
X206501125Y-179897825D03*
X207001125Y-179897825D03*
X207501125Y-179897825D03*
X208001125Y-179897825D03*
X208501125Y-179897825D03*
D52*
X209913625Y-178485325D03*
X209913625Y-177985325D03*
X209913625Y-177485325D03*
X209913625Y-176985325D03*
X209913625Y-176485325D03*
X209913625Y-175985325D03*
X209913625Y-175485325D03*
X209913625Y-174985325D03*
X209913625Y-174485325D03*
X209913625Y-173985325D03*
X209913625Y-173485325D03*
X209913625Y-172985325D03*
D53*
X208501125Y-171572825D03*
X208001125Y-171572825D03*
X207501125Y-171572825D03*
X207001125Y-171572825D03*
X206501125Y-171572825D03*
X206001125Y-171572825D03*
X205501125Y-171572825D03*
X205001125Y-171572825D03*
X204501125Y-171572825D03*
X204001125Y-171572825D03*
X203501125Y-171572825D03*
X203001125Y-171572825D03*
D54*
X195478300Y-179781200D03*
X197053300Y-179781200D03*
D55*
X205188791Y-223378925D03*
X205188791Y-220128925D03*
X210588791Y-223378925D03*
X210588791Y-220128925D03*
D56*
X152631600Y-201276800D03*
X156181600Y-201826800D03*
X156181600Y-200726800D03*
D34*
X200844685Y-185619494D03*
D35*
X199544685Y-185619494D03*
D36*
X198244685Y-185619494D03*
D57*
X180240200Y-135700325D03*
X180240200Y-134700325D03*
D28*
X223848325Y-112202725D03*
X219348325Y-110702725D03*
X221598325Y-112202725D03*
X222348325Y-112202725D03*
X220098325Y-110702725D03*
X222348325Y-110702725D03*
X220848325Y-110702725D03*
X220848325Y-112202725D03*
X219348325Y-112202725D03*
X223098325Y-112202725D03*
X223848325Y-110702725D03*
X220098325Y-112202725D03*
X221598325Y-110702725D03*
X223098325Y-110702725D03*
D18*
X224348325Y-157112725D03*
D42*
X215998325Y-102689200D03*
X215998325Y-82689200D03*
D14*
X219582439Y-173942325D03*
X219582439Y-173292325D03*
X219582439Y-172642325D03*
X219582439Y-171992325D03*
X216782439Y-171992325D03*
X216782439Y-172642325D03*
X216782439Y-173292325D03*
X216782439Y-173942325D03*
D15*
X218182439Y-172967325D03*
D16*
X218507439Y-174255325D03*
X217857439Y-174255325D03*
X218507439Y-171679325D03*
X217857439Y-171679325D03*
D46*
X193975947Y-174535125D03*
X193975947Y-173575125D03*
D58*
X185106525Y-209885125D03*
D59*
X187646525Y-209885125D03*
D60*
X196745800Y-181076600D03*
X195785800Y-181076600D03*
D28*
X223098325Y-148302725D03*
X221598325Y-148302725D03*
X220848325Y-148302725D03*
X223098325Y-149802725D03*
X219348325Y-148302725D03*
X223848325Y-149802725D03*
X222348325Y-149802725D03*
X219348325Y-149802725D03*
X222348325Y-148302725D03*
X221598325Y-149802725D03*
X220098325Y-148302725D03*
X223848325Y-148302725D03*
X220848325Y-149802725D03*
X220098325Y-149802725D03*
D18*
X190563296Y-190897754D03*
D37*
X191287400Y-183601600D03*
D38*
X191287400Y-184901600D03*
D17*
X223487525Y-179437325D03*
X221937525Y-179437325D03*
D49*
X162222975Y-201332325D03*
X161222975Y-201332325D03*
D33*
X195440800Y-175183800D03*
X197090800Y-175183800D03*
D19*
X207078325Y-184415725D03*
X207078325Y-182765725D03*
X205554325Y-184415725D03*
X205554325Y-182765725D03*
D28*
X233152325Y-192812725D03*
X233152325Y-195812725D03*
X233152325Y-197312725D03*
X231652325Y-194312725D03*
X231652325Y-195062725D03*
X231652325Y-197312725D03*
X231652325Y-193562725D03*
X231652325Y-195812725D03*
X233152325Y-193562725D03*
X233152325Y-196562725D03*
X233152325Y-195062725D03*
X231652325Y-196562725D03*
X233152325Y-194312725D03*
X231652325Y-192812725D03*
D61*
X201752425Y-192610480D03*
D35*
X203052425Y-192610480D03*
D62*
X204352425Y-192610480D03*
D42*
X191998325Y-60189200D03*
X191998325Y-80189200D03*
X231998325Y-91439200D03*
X231998325Y-71439200D03*
X175998325Y-71439200D03*
X175998325Y-91439200D03*
D18*
X183648325Y-197812725D03*
D49*
X184427525Y-97891600D03*
X185427525Y-97891600D03*
D41*
X222254925Y-183709725D03*
X223214925Y-183709725D03*
D43*
X208767600Y-94135875D03*
X198607600Y-94135875D03*
X203687600Y-94135875D03*
D56*
X255343325Y-153648650D03*
X251793325Y-153098650D03*
X251793325Y-154198650D03*
D18*
X224348325Y-61089200D03*
D28*
X203248325Y-205112725D03*
X206248325Y-206612725D03*
X206248325Y-205112725D03*
X202498325Y-205112725D03*
X205498325Y-206612725D03*
X203998325Y-206612725D03*
X204748325Y-206612725D03*
X205498325Y-205112725D03*
X202498325Y-206612725D03*
X203998325Y-205112725D03*
X201748325Y-206612725D03*
X203248325Y-206612725D03*
X204748325Y-205112725D03*
X201748325Y-205112725D03*
D47*
X214998325Y-219962725D03*
D48*
X214998325Y-219962725D03*
D20*
X204038200Y-182816200D03*
X204038200Y-184366200D03*
D63*
X205917800Y-168630600D03*
X205917800Y-167080600D03*
D42*
X191998325Y-82689200D03*
X191998325Y-102689200D03*
D64*
X196010927Y-166696494D03*
X194435927Y-166696494D03*
D65*
X194906285Y-187870694D03*
X194906285Y-188370694D03*
X194906285Y-188870694D03*
X194906285Y-189370694D03*
X194906285Y-189870694D03*
X199306285Y-189870694D03*
X199306285Y-189370694D03*
X199306285Y-188870694D03*
X199306285Y-188370694D03*
X199306285Y-187870694D03*
D19*
X193344800Y-185254400D03*
X193344800Y-183604400D03*
D63*
X206138525Y-193611800D03*
X206138525Y-192061800D03*
D40*
X208991200Y-167030600D03*
X208991200Y-168680600D03*
D20*
X211147393Y-187464400D03*
X211147393Y-189014400D03*
D66*
X228572647Y-153998247D03*
X227458953Y-152884553D03*
D42*
X183998325Y-91439200D03*
X183998325Y-71439200D03*
D28*
X176328325Y-159862725D03*
X174828325Y-159112725D03*
X174828325Y-162112725D03*
X174828325Y-159862725D03*
X176328325Y-161362725D03*
X174828325Y-158362725D03*
X174828325Y-161362725D03*
X174828325Y-157612725D03*
X176328325Y-157612725D03*
X176328325Y-159112725D03*
X174828325Y-160612725D03*
X176328325Y-160612725D03*
X176328325Y-158362725D03*
X176328325Y-162112725D03*
D67*
X206094200Y-187239400D03*
D68*
X206094200Y-187639400D03*
X206094200Y-188039400D03*
X206094200Y-188439400D03*
X206094200Y-188839400D03*
D69*
X206094200Y-189239400D03*
D70*
X206594200Y-189739400D03*
D71*
X206994200Y-189739400D03*
X207394200Y-189739400D03*
X207794200Y-189739400D03*
X208194200Y-189739400D03*
D72*
X208594200Y-189739400D03*
D73*
X209094200Y-189239400D03*
D68*
X209094200Y-188839400D03*
X209094200Y-188439400D03*
X209094200Y-188039400D03*
X209094200Y-187639400D03*
D74*
X209094200Y-187239400D03*
D75*
X208594200Y-186739400D03*
D71*
X208194200Y-186739400D03*
X207794200Y-186739400D03*
X207394200Y-186739400D03*
X206994200Y-186739400D03*
D76*
X206594200Y-186739400D03*
D77*
X207594200Y-188239400D03*
D42*
X223998325Y-71439200D03*
X223998325Y-91439200D03*
D78*
X180295725Y-126117525D03*
X179745725Y-129667525D03*
X180845725Y-129667525D03*
D48*
X186998325Y-219962725D03*
D47*
X186998325Y-219962725D03*
D79*
X202323902Y-188565894D03*
X201303902Y-188565894D03*
D80*
X196367400Y-193410600D03*
D81*
X196367400Y-192110600D03*
D17*
X204405827Y-168601494D03*
X202855827Y-168601494D03*
D32*
X227457000Y-202055047D03*
X228570694Y-200941353D03*
D63*
X211251800Y-171717000D03*
X211251800Y-170167000D03*
D42*
X199998325Y-91439200D03*
X199998325Y-71439200D03*
D82*
X206538325Y-162407125D03*
X201458325Y-163423125D03*
X201458325Y-161391125D03*
D83*
X205268325Y-161772125D03*
X205268325Y-163042125D03*
X203998325Y-161772125D03*
X203998325Y-163042125D03*
X202728325Y-161772125D03*
X202728325Y-163042125D03*
D41*
X222232525Y-178091125D03*
X223192525Y-178091125D03*
D46*
X214901525Y-178977525D03*
X214901525Y-178017525D03*
D33*
X202805827Y-166696494D03*
X204455827Y-166696494D03*
D84*
X197090800Y-176707800D03*
X195440800Y-176707800D03*
D56*
X183152525Y-95250600D03*
X186702525Y-95800600D03*
X186702525Y-94700600D03*
D46*
X214914725Y-185022725D03*
X214914725Y-184062725D03*
D57*
X177723800Y-197874000D03*
X177723800Y-198874000D03*
D48*
X220998325Y-219962725D03*
D47*
X220998325Y-219962725D03*
D17*
X223509925Y-185030525D03*
X221959925Y-185030525D03*
D79*
X202323902Y-189658094D03*
X201303902Y-189658094D03*
D85*
X198641525Y-178482094D03*
X199661525Y-178482094D03*
D86*
X194473827Y-168601494D03*
X196023827Y-168601494D03*
D87*
X202962000Y-158080800D03*
D88*
X204962000Y-158080800D03*
M02*
