G04 #@! TF.GenerationSoftware,KiCad,Pcbnew,(6.0.1)*
G04 #@! TF.CreationDate,2022-11-09T13:11:14-03:00*
G04 #@! TF.ProjectId,PANEL-COMPLETE,50414e45-4c2d-4434-9f4d-504c4554452e,Rev 3*
G04 #@! TF.SameCoordinates,Original*
G04 #@! TF.FileFunction,Soldermask,Bot*
G04 #@! TF.FilePolarity,Negative*
%FSLAX46Y46*%
G04 Gerber Fmt 4.6, Leading zero omitted, Abs format (unit mm)*
G04 Created by KiCad (PCBNEW (6.0.1)) date 2022-11-09 13:11:14*
%MOMM*%
%LPD*%
G01*
G04 APERTURE LIST*
G04 Aperture macros list*
%AMRoundRect*
0 Rectangle with rounded corners*
0 $1 Rounding radius*
0 $2 $3 $4 $5 $6 $7 $8 $9 X,Y pos of 4 corners*
0 Add a 4 corners polygon primitive as box body*
4,1,4,$2,$3,$4,$5,$6,$7,$8,$9,$2,$3,0*
0 Add four circle primitives for the rounded corners*
1,1,$1+$1,$2,$3*
1,1,$1+$1,$4,$5*
1,1,$1+$1,$6,$7*
1,1,$1+$1,$8,$9*
0 Add four rect primitives between the rounded corners*
20,1,$1+$1,$2,$3,$4,$5,0*
20,1,$1+$1,$4,$5,$6,$7,0*
20,1,$1+$1,$6,$7,$8,$9,0*
20,1,$1+$1,$8,$9,$2,$3,0*%
%AMFreePoly0*
4,1,22,0.550000,-0.750000,0.000000,-0.750000,0.000000,-0.745033,-0.079941,-0.743568,-0.215256,-0.701293,-0.333266,-0.622738,-0.424486,-0.514219,-0.481581,-0.384460,-0.499164,-0.250000,-0.500000,-0.250000,-0.500000,0.250000,-0.499164,0.250000,-0.499963,0.256109,-0.478152,0.396186,-0.417904,0.524511,-0.324060,0.630769,-0.204165,0.706417,-0.067858,0.745374,0.000000,0.744959,0.000000,0.750000,
0.550000,0.750000,0.550000,-0.750000,0.550000,-0.750000,$1*%
%AMFreePoly1*
4,1,20,0.000000,0.744959,0.073905,0.744508,0.209726,0.703889,0.328688,0.626782,0.421226,0.519385,0.479903,0.390333,0.500000,0.250000,0.500000,-0.250000,0.499851,-0.262216,0.476331,-0.402017,0.414519,-0.529596,0.319384,-0.634700,0.198574,-0.708877,0.061801,-0.746166,0.000000,-0.745033,0.000000,-0.750000,-0.550000,-0.750000,-0.550000,0.750000,0.000000,0.750000,0.000000,0.744959,
0.000000,0.744959,$1*%
%AMFreePoly2*
4,1,22,0.500000,-0.750000,0.000000,-0.750000,0.000000,-0.745033,-0.079941,-0.743568,-0.215256,-0.701293,-0.333266,-0.622738,-0.424486,-0.514219,-0.481581,-0.384460,-0.499164,-0.250000,-0.500000,-0.250000,-0.500000,0.250000,-0.499164,0.250000,-0.499963,0.256109,-0.478152,0.396186,-0.417904,0.524511,-0.324060,0.630769,-0.204165,0.706417,-0.067858,0.745374,0.000000,0.744959,0.000000,0.750000,
0.500000,0.750000,0.500000,-0.750000,0.500000,-0.750000,$1*%
%AMFreePoly3*
4,1,20,0.000000,0.744959,0.073905,0.744508,0.209726,0.703889,0.328688,0.626782,0.421226,0.519385,0.479903,0.390333,0.500000,0.250000,0.500000,-0.250000,0.499851,-0.262216,0.476331,-0.402017,0.414519,-0.529596,0.319384,-0.634700,0.198574,-0.708877,0.061801,-0.746166,0.000000,-0.745033,0.000000,-0.750000,-0.500000,-0.750000,-0.500000,0.750000,0.000000,0.750000,0.000000,0.744959,
0.000000,0.744959,$1*%
G04 Aperture macros list end*
%ADD10C,2.200000*%
%ADD11C,0.650000*%
%ADD12O,1.000000X1.600000*%
%ADD13O,1.000000X2.100000*%
%ADD14C,0.500000*%
%ADD15C,4.000000*%
%ADD16RoundRect,1.000000X1.000000X1.000000X-1.000000X1.000000X-1.000000X-1.000000X1.000000X-1.000000X0*%
%ADD17RoundRect,1.000000X-1.000000X1.000000X-1.000000X-1.000000X1.000000X-1.000000X1.000000X1.000000X0*%
%ADD18R,6.000000X2.000000*%
%ADD19C,2.000000*%
%ADD20C,2.600000*%
%ADD21RoundRect,1.000000X1.000000X-1.000000X1.000000X1.000000X-1.000000X1.000000X-1.000000X-1.000000X0*%
%ADD22R,1.700000X1.700000*%
%ADD23O,1.700000X1.700000*%
%ADD24C,0.990600*%
%ADD25FreePoly0,270.000000*%
%ADD26R,1.500000X1.000000*%
%ADD27FreePoly1,270.000000*%
%ADD28R,0.300000X1.000000*%
%ADD29R,2.000000X1.300000*%
%ADD30RoundRect,0.140000X-0.170000X0.140000X-0.170000X-0.140000X0.170000X-0.140000X0.170000X0.140000X0*%
%ADD31RoundRect,0.250000X0.475000X-0.250000X0.475000X0.250000X-0.475000X0.250000X-0.475000X-0.250000X0*%
%ADD32RoundRect,0.200000X0.200000X0.275000X-0.200000X0.275000X-0.200000X-0.275000X0.200000X-0.275000X0*%
%ADD33RoundRect,0.135000X0.185000X-0.135000X0.185000X0.135000X-0.185000X0.135000X-0.185000X-0.135000X0*%
%ADD34RoundRect,0.250000X0.325000X0.650000X-0.325000X0.650000X-0.325000X-0.650000X0.325000X-0.650000X0*%
%ADD35RoundRect,0.062500X0.062500X-0.375000X0.062500X0.375000X-0.062500X0.375000X-0.062500X-0.375000X0*%
%ADD36RoundRect,0.062500X0.375000X-0.062500X0.375000X0.062500X-0.375000X0.062500X-0.375000X-0.062500X0*%
%ADD37R,2.000000X2.000000*%
%ADD38FreePoly2,270.000000*%
%ADD39FreePoly3,270.000000*%
%ADD40RoundRect,0.218750X0.256250X-0.218750X0.256250X0.218750X-0.256250X0.218750X-0.256250X-0.218750X0*%
%ADD41RoundRect,0.135000X-0.135000X-0.185000X0.135000X-0.185000X0.135000X0.185000X-0.135000X0.185000X0*%
%ADD42RoundRect,0.250000X-0.650000X0.325000X-0.650000X-0.325000X0.650000X-0.325000X0.650000X0.325000X0*%
%ADD43RoundRect,0.135000X-0.185000X0.135000X-0.185000X-0.135000X0.185000X-0.135000X0.185000X0.135000X0*%
%ADD44FreePoly2,0.000000*%
%ADD45FreePoly3,0.000000*%
%ADD46C,1.000000*%
%ADD47R,0.300000X1.400000*%
%ADD48RoundRect,0.135000X0.135000X0.185000X-0.135000X0.185000X-0.135000X-0.185000X0.135000X-0.185000X0*%
%ADD49RoundRect,0.200000X-0.275000X0.200000X-0.275000X-0.200000X0.275000X-0.200000X0.275000X0.200000X0*%
%ADD50FreePoly0,90.000000*%
%ADD51FreePoly1,90.000000*%
%ADD52RoundRect,0.200000X-0.200000X-0.275000X0.200000X-0.275000X0.200000X0.275000X-0.200000X0.275000X0*%
%ADD53FreePoly2,180.000000*%
%ADD54FreePoly3,180.000000*%
%ADD55FreePoly2,90.000000*%
%ADD56FreePoly3,90.000000*%
%ADD57RoundRect,0.070000X0.300000X-0.650000X0.300000X0.650000X-0.300000X0.650000X-0.300000X-0.650000X0*%
%ADD58RoundRect,0.200000X0.275000X-0.200000X0.275000X0.200000X-0.275000X0.200000X-0.275000X-0.200000X0*%
%ADD59R,3.890000X1.450000*%
%ADD60RoundRect,0.250000X-0.350000X-0.625000X0.350000X-0.625000X0.350000X0.625000X-0.350000X0.625000X0*%
%ADD61O,1.200000X1.750000*%
%ADD62R,0.450000X0.600000*%
%ADD63R,1.000000X0.300000*%
%ADD64R,1.300000X2.000000*%
%ADD65RoundRect,0.140000X0.170000X-0.140000X0.170000X0.140000X-0.170000X0.140000X-0.170000X-0.140000X0*%
%ADD66RoundRect,0.250000X-1.025000X0.787500X-1.025000X-0.787500X1.025000X-0.787500X1.025000X0.787500X0*%
%ADD67R,1.400000X0.300000*%
%ADD68RoundRect,0.250000X-0.250000X-0.475000X0.250000X-0.475000X0.250000X0.475000X-0.250000X0.475000X0*%
%ADD69RoundRect,0.218750X0.218750X0.256250X-0.218750X0.256250X-0.218750X-0.256250X0.218750X-0.256250X0*%
%ADD70RoundRect,0.140000X0.140000X0.170000X-0.140000X0.170000X-0.140000X-0.170000X0.140000X-0.170000X0*%
%ADD71R,1.450000X3.890000*%
%ADD72R,0.600000X0.450000*%
%ADD73RoundRect,0.062500X0.375000X0.062500X-0.375000X0.062500X-0.375000X-0.062500X0.375000X-0.062500X0*%
%ADD74RoundRect,0.062500X0.062500X0.375000X-0.062500X0.375000X-0.062500X-0.375000X0.062500X-0.375000X0*%
%ADD75RoundRect,0.150000X0.512500X0.150000X-0.512500X0.150000X-0.512500X-0.150000X0.512500X-0.150000X0*%
%ADD76RoundRect,0.140000X-0.140000X-0.170000X0.140000X-0.170000X0.140000X0.170000X-0.140000X0.170000X0*%
%ADD77R,0.800000X1.500000*%
%ADD78R,1.450000X2.000000*%
%ADD79R,1.800000X2.500000*%
%ADD80RoundRect,0.063500X-1.000000X-0.650000X1.000000X-0.650000X1.000000X0.650000X-1.000000X0.650000X0*%
%ADD81RoundRect,0.063500X-5.750000X-2.350000X5.750000X-2.350000X5.750000X2.350000X-5.750000X2.350000X0*%
%ADD82RoundRect,0.062500X-0.062500X0.375000X-0.062500X-0.375000X0.062500X-0.375000X0.062500X0.375000X0*%
%ADD83RoundRect,0.062500X-0.375000X0.062500X-0.375000X-0.062500X0.375000X-0.062500X0.375000X0.062500X0*%
%ADD84RoundRect,0.250000X-0.475000X0.250000X-0.475000X-0.250000X0.475000X-0.250000X0.475000X0.250000X0*%
%ADD85FreePoly0,180.000000*%
%ADD86R,1.000000X1.500000*%
%ADD87FreePoly1,180.000000*%
%ADD88RoundRect,0.125000X-0.125000X-0.125000X0.125000X-0.125000X0.125000X0.125000X-0.125000X0.125000X0*%
%ADD89RoundRect,0.218750X-0.218750X-0.256250X0.218750X-0.256250X0.218750X0.256250X-0.218750X0.256250X0*%
%ADD90RoundRect,0.250000X0.250000X0.475000X-0.250000X0.475000X-0.250000X-0.475000X0.250000X-0.475000X0*%
%ADD91RoundRect,0.225000X-0.250000X0.225000X-0.250000X-0.225000X0.250000X-0.225000X0.250000X0.225000X0*%
%ADD92R,1.500000X2.400000*%
G04 APERTURE END LIST*
D10*
X183648325Y-157112725D03*
X190563296Y-164027696D03*
X183648325Y-101789200D03*
X183648325Y-61089200D03*
D11*
X218708325Y-213175725D03*
X224488325Y-213175725D03*
D12*
X225918325Y-209525725D03*
X217278325Y-209525725D03*
D13*
X217278325Y-213705725D03*
X225918325Y-213705725D03*
D10*
X224348325Y-101789200D03*
X217433354Y-164027696D03*
D14*
X185648325Y-148302725D03*
X186398325Y-148302725D03*
X187148325Y-149802725D03*
X187898325Y-148302725D03*
X185648325Y-149802725D03*
X184148325Y-149802725D03*
X186398325Y-149802725D03*
X184898325Y-149802725D03*
X188648325Y-148302725D03*
X187898325Y-149802725D03*
X188648325Y-149802725D03*
X184898325Y-148302725D03*
X187148325Y-148302725D03*
X184148325Y-148302725D03*
X184148325Y-112202725D03*
X188648325Y-110702725D03*
X187898325Y-112202725D03*
X187148325Y-112202725D03*
X186398325Y-110702725D03*
X184898325Y-110702725D03*
X184148325Y-110702725D03*
X187898325Y-110702725D03*
X184898325Y-112202725D03*
X187148325Y-110702725D03*
X185648325Y-110702725D03*
X188648325Y-112202725D03*
X186398325Y-112202725D03*
X185648325Y-112202725D03*
D15*
X223609800Y-131452525D03*
D16*
X184609800Y-131452525D03*
D15*
X157975175Y-157919000D03*
D17*
X157975175Y-196919000D03*
D18*
X207998325Y-71439200D03*
X207998325Y-91439200D03*
D14*
X176330325Y-196562725D03*
X174830325Y-196562725D03*
X174830325Y-195812725D03*
X174830325Y-193562725D03*
X176330325Y-194312725D03*
X176330325Y-193562725D03*
X176330325Y-195812725D03*
X176330325Y-197312725D03*
X174830325Y-195062725D03*
X174830325Y-192812725D03*
X176330325Y-195062725D03*
X174830325Y-197312725D03*
X174830325Y-194312725D03*
X176330325Y-192812725D03*
D19*
X209078325Y-68844800D03*
X198918325Y-68844800D03*
X203998325Y-68844800D03*
D14*
X233152325Y-161362725D03*
X233152325Y-158362725D03*
X231652325Y-160612725D03*
X231652325Y-162112725D03*
X231652325Y-161362725D03*
X231652325Y-159862725D03*
X233152325Y-160612725D03*
X233152325Y-162112725D03*
X233152325Y-159862725D03*
X231652325Y-158362725D03*
X231652325Y-159112725D03*
X233152325Y-157612725D03*
X231652325Y-157612725D03*
X233152325Y-159112725D03*
D18*
X215998325Y-80189200D03*
X215998325Y-60189200D03*
D10*
X217433354Y-190897754D03*
D20*
X192998325Y-220002725D03*
D10*
X224348325Y-197812725D03*
D15*
X250008325Y-196962725D03*
D21*
X250008325Y-157962725D03*
D14*
X223848325Y-112202725D03*
X219348325Y-110702725D03*
X221598325Y-112202725D03*
X222348325Y-112202725D03*
X220098325Y-110702725D03*
X222348325Y-110702725D03*
X220848325Y-110702725D03*
X220848325Y-112202725D03*
X219348325Y-112202725D03*
X223098325Y-112202725D03*
X223848325Y-110702725D03*
X220098325Y-112202725D03*
X221598325Y-110702725D03*
X223098325Y-110702725D03*
D10*
X224348325Y-157112725D03*
D18*
X215998325Y-102689200D03*
X215998325Y-82689200D03*
D22*
X185106525Y-209885125D03*
D23*
X187646525Y-209885125D03*
D14*
X223098325Y-148302725D03*
X221598325Y-148302725D03*
X220848325Y-148302725D03*
X223098325Y-149802725D03*
X219348325Y-148302725D03*
X223848325Y-149802725D03*
X222348325Y-149802725D03*
X219348325Y-149802725D03*
X222348325Y-148302725D03*
X221598325Y-149802725D03*
X220098325Y-148302725D03*
X223848325Y-148302725D03*
X220848325Y-149802725D03*
X220098325Y-149802725D03*
D10*
X190563296Y-190897754D03*
D14*
X233152325Y-192812725D03*
X233152325Y-195812725D03*
X233152325Y-197312725D03*
X231652325Y-194312725D03*
X231652325Y-195062725D03*
X231652325Y-197312725D03*
X231652325Y-193562725D03*
X231652325Y-195812725D03*
X233152325Y-193562725D03*
X233152325Y-196562725D03*
X233152325Y-195062725D03*
X231652325Y-196562725D03*
X233152325Y-194312725D03*
X231652325Y-192812725D03*
D18*
X191998325Y-60189200D03*
X191998325Y-80189200D03*
D10*
X183648325Y-197812725D03*
D19*
X208767600Y-94135875D03*
X198607600Y-94135875D03*
X203687600Y-94135875D03*
D10*
X224348325Y-61089200D03*
D14*
X203248325Y-205112725D03*
X206248325Y-206612725D03*
X206248325Y-205112725D03*
X202498325Y-205112725D03*
X205498325Y-206612725D03*
X203998325Y-206612725D03*
X204748325Y-206612725D03*
X205498325Y-205112725D03*
X202498325Y-206612725D03*
X203998325Y-205112725D03*
X201748325Y-206612725D03*
X203248325Y-206612725D03*
X204748325Y-205112725D03*
X201748325Y-205112725D03*
D20*
X214998325Y-219962725D03*
D18*
X191998325Y-82689200D03*
X191998325Y-102689200D03*
X183998325Y-91439200D03*
X183998325Y-71439200D03*
D14*
X176328325Y-159862725D03*
X174828325Y-159112725D03*
X174828325Y-162112725D03*
X174828325Y-159862725D03*
X176328325Y-161362725D03*
X174828325Y-158362725D03*
X174828325Y-161362725D03*
X174828325Y-157612725D03*
X176328325Y-157612725D03*
X176328325Y-159112725D03*
X174828325Y-160612725D03*
X176328325Y-160612725D03*
X176328325Y-158362725D03*
X176328325Y-162112725D03*
D18*
X223998325Y-71439200D03*
X223998325Y-91439200D03*
D20*
X186998325Y-219962725D03*
D18*
X199998325Y-91439200D03*
X199998325Y-71439200D03*
D24*
X206538325Y-162407125D03*
X201458325Y-163423125D03*
X201458325Y-161391125D03*
D20*
X220998325Y-219962725D03*
D25*
X157260103Y-186006925D03*
D26*
X157260103Y-187306925D03*
D27*
X157260103Y-188606925D03*
D28*
X212679400Y-99254600D03*
X213179400Y-99254600D03*
X213679400Y-99254600D03*
X214179400Y-99254600D03*
X214679400Y-99254600D03*
X215179400Y-99254600D03*
X215679400Y-99254600D03*
X216179400Y-99254600D03*
X216679400Y-99254600D03*
X217179400Y-99254600D03*
X217679400Y-99254600D03*
X218179400Y-99254600D03*
X218679400Y-99254600D03*
X219179400Y-99254600D03*
X219679400Y-99254600D03*
D29*
X210379400Y-96554600D03*
X221979400Y-96554600D03*
D30*
X195852025Y-82522600D03*
X195852025Y-83482600D03*
D31*
X197350625Y-83962800D03*
X197350625Y-82062800D03*
D25*
X157260103Y-190680525D03*
D26*
X157260103Y-191980525D03*
D27*
X157260103Y-193280525D03*
D32*
X183898325Y-93878400D03*
X182248325Y-93878400D03*
D33*
X154560126Y-169687925D03*
X154560126Y-168667925D03*
X151617650Y-178603325D03*
X151617650Y-177583325D03*
D34*
X217984600Y-197942200D03*
X215034600Y-197942200D03*
D35*
X257873850Y-185555425D03*
X257373850Y-185555425D03*
X256873850Y-185555425D03*
X256373850Y-185555425D03*
X255873850Y-185555425D03*
D36*
X255186350Y-184867925D03*
X255186350Y-184367925D03*
X255186350Y-183867925D03*
X255186350Y-183367925D03*
X255186350Y-182867925D03*
D35*
X255873850Y-182180425D03*
X256373850Y-182180425D03*
X256873850Y-182180425D03*
X257373850Y-182180425D03*
X257873850Y-182180425D03*
D36*
X258561350Y-182867925D03*
X258561350Y-183367925D03*
X258561350Y-183867925D03*
X258561350Y-184367925D03*
X258561350Y-184867925D03*
D37*
X256873850Y-183867925D03*
D38*
X203012325Y-87807800D03*
D39*
X203012325Y-89107800D03*
D40*
X212471000Y-88493700D03*
X212471000Y-86918700D03*
D41*
X209954200Y-128037476D03*
X210974200Y-128037476D03*
D42*
X220167200Y-193165200D03*
X220167200Y-196115200D03*
D43*
X207787525Y-86330600D03*
X207787525Y-87350600D03*
D44*
X251978397Y-188035525D03*
D45*
X253278397Y-188035525D03*
D46*
X203659000Y-119409053D03*
X205843400Y-119231253D03*
D43*
X182080225Y-77214000D03*
X182080225Y-78234000D03*
D41*
X204899600Y-125095000D03*
X205919600Y-125095000D03*
D43*
X205030200Y-212941682D03*
X205030200Y-213961682D03*
D28*
X187918925Y-188208854D03*
X188418925Y-188208854D03*
X188918925Y-188208854D03*
X189418925Y-188208854D03*
X189918925Y-188208854D03*
X190418925Y-188208854D03*
X190918925Y-188208854D03*
X191418925Y-188208854D03*
X191918925Y-188208854D03*
X192418925Y-188208854D03*
X192918925Y-188208854D03*
X193418925Y-188208854D03*
X193918925Y-188208854D03*
X194418925Y-188208854D03*
X194918925Y-188208854D03*
D29*
X185618925Y-185508854D03*
X197218925Y-185508854D03*
D47*
X155085103Y-191843725D03*
X154585103Y-191843725D03*
X154085103Y-191843725D03*
X153585103Y-191843725D03*
X153085103Y-191843725D03*
X153085103Y-187443725D03*
X153585103Y-187443725D03*
X154085103Y-187443725D03*
X154585103Y-187443725D03*
X155085103Y-187443725D03*
D30*
X253847597Y-189892325D03*
X253847597Y-190852325D03*
D48*
X205487800Y-128037476D03*
X204467800Y-128037476D03*
D43*
X154560126Y-179945525D03*
X154560126Y-180965525D03*
D44*
X224765125Y-88646000D03*
D45*
X226065125Y-88646000D03*
D49*
X221183200Y-197676000D03*
X221183200Y-199326000D03*
D50*
X250723397Y-164244925D03*
D26*
X250723397Y-162944925D03*
D51*
X250723397Y-161644925D03*
D52*
X190274400Y-197815200D03*
X191924400Y-197815200D03*
D28*
X194918925Y-211743925D03*
X194418925Y-211743925D03*
X193918925Y-211743925D03*
X193418925Y-211743925D03*
X192918925Y-211743925D03*
X192418925Y-211743925D03*
X191918925Y-211743925D03*
X191418925Y-211743925D03*
X190918925Y-211743925D03*
X190418925Y-211743925D03*
X189918925Y-211743925D03*
X189418925Y-211743925D03*
X188918925Y-211743925D03*
X188418925Y-211743925D03*
X187918925Y-211743925D03*
D29*
X197218925Y-214443925D03*
X185618925Y-214443925D03*
D53*
X156005103Y-166889925D03*
D54*
X154705103Y-166889925D03*
D55*
X216067925Y-63769000D03*
D56*
X216067925Y-62469000D03*
D55*
X246493450Y-158158175D03*
D56*
X246493450Y-156858175D03*
D33*
X254914397Y-170693925D03*
X254914397Y-169673925D03*
D55*
X220843125Y-82082400D03*
D56*
X220843125Y-80782400D03*
D57*
X205013600Y-196059000D03*
X203113600Y-196059000D03*
X204063600Y-193959000D03*
D58*
X211632800Y-216242400D03*
X211632800Y-214592400D03*
D59*
X202506825Y-77475600D03*
X202506825Y-74525600D03*
D48*
X207420200Y-128037476D03*
X206400200Y-128037476D03*
D44*
X190678325Y-85750400D03*
D45*
X191978325Y-85750400D03*
D28*
X219690325Y-155274325D03*
X219190325Y-155274325D03*
X218690325Y-155274325D03*
X218190325Y-155274325D03*
X217690325Y-155274325D03*
X217190325Y-155274325D03*
X216690325Y-155274325D03*
X216190325Y-155274325D03*
X215690325Y-155274325D03*
X215190325Y-155274325D03*
X214690325Y-155274325D03*
X214190325Y-155274325D03*
X213690325Y-155274325D03*
X213190325Y-155274325D03*
X212690325Y-155274325D03*
D29*
X221990325Y-157974325D03*
X210390325Y-157974325D03*
D60*
X202962000Y-158080800D03*
D61*
X204962000Y-158080800D03*
D43*
X208862925Y-82456200D03*
X208862925Y-83476200D03*
D58*
X204063600Y-199339200D03*
X204063600Y-197689200D03*
D43*
X206705552Y-82477400D03*
X206705552Y-83497400D03*
D28*
X220812125Y-211843925D03*
X220312125Y-211843925D03*
X219812125Y-211843925D03*
X219312125Y-211843925D03*
X218812125Y-211843925D03*
X218312125Y-211843925D03*
D29*
X223112125Y-214543925D03*
X216012125Y-214543925D03*
D28*
X188306325Y-142234125D03*
X188806325Y-142234125D03*
X189306325Y-142234125D03*
X189806325Y-142234125D03*
X190306325Y-142234125D03*
X190806325Y-142234125D03*
X191306325Y-142234125D03*
X191806325Y-142234125D03*
X192306325Y-142234125D03*
X192806325Y-142234125D03*
X193306325Y-142234125D03*
X193806325Y-142234125D03*
X194306325Y-142234125D03*
X194806325Y-142234125D03*
X195306325Y-142234125D03*
D29*
X186006325Y-139534125D03*
X197606325Y-139534125D03*
D62*
X147655250Y-172107525D03*
X147655250Y-170007525D03*
D63*
X225365600Y-175245525D03*
X225365600Y-174745525D03*
X225365600Y-174245525D03*
X225365600Y-173745525D03*
X225365600Y-173245525D03*
X225365600Y-172745525D03*
X225365600Y-172245525D03*
X225365600Y-171745525D03*
X225365600Y-171245525D03*
X225365600Y-170745525D03*
X225365600Y-170245525D03*
X225365600Y-169745525D03*
X225365600Y-169245525D03*
X225365600Y-168745525D03*
X225365600Y-168245525D03*
D64*
X222665600Y-177545525D03*
X222665600Y-165945525D03*
D46*
X262051797Y-177011925D03*
D57*
X198257200Y-196247200D03*
X196357200Y-196247200D03*
X197307200Y-194147200D03*
D65*
X263854604Y-184347925D03*
X263854604Y-183387925D03*
D43*
X154560126Y-176084725D03*
X154560126Y-177104725D03*
D38*
X191988725Y-99095800D03*
D39*
X191988725Y-100395800D03*
D55*
X227685600Y-82082400D03*
D56*
X227685600Y-80782400D03*
D48*
X201627000Y-128037476D03*
X200607000Y-128037476D03*
D25*
X186144225Y-82316800D03*
D26*
X186144225Y-83616800D03*
D27*
X186144225Y-84916800D03*
D25*
X186144225Y-77643200D03*
D26*
X186144225Y-78943200D03*
D27*
X186144225Y-80243200D03*
D33*
X151617650Y-176672925D03*
X151617650Y-175652925D03*
D43*
X154560126Y-178015125D03*
X154560126Y-179035125D03*
D32*
X183898325Y-98526600D03*
X182248325Y-98526600D03*
D41*
X202969200Y-125095000D03*
X203989200Y-125095000D03*
D44*
X183505250Y-127906200D03*
D45*
X184805250Y-127906200D03*
D66*
X224567807Y-226669825D03*
X224567807Y-232894825D03*
D62*
X199357225Y-84062800D03*
X199357225Y-81962800D03*
D53*
X184805250Y-134967400D03*
D54*
X183505250Y-134967400D03*
D43*
X253423374Y-183307125D03*
X253423374Y-184327125D03*
D58*
X219633800Y-199326000D03*
X219633800Y-197676000D03*
D55*
X214682600Y-129482453D03*
D56*
X214682600Y-128182453D03*
D33*
X224567807Y-236272800D03*
X224567807Y-235252800D03*
D53*
X189717725Y-71424800D03*
D54*
X188417725Y-71424800D03*
D67*
X189728800Y-128562453D03*
X189728800Y-128062453D03*
X189728800Y-127562453D03*
X189728800Y-127062453D03*
X189728800Y-126562453D03*
X194128800Y-126562453D03*
X194128800Y-127062453D03*
X194128800Y-127562453D03*
X194128800Y-128062453D03*
X194128800Y-128562453D03*
D38*
X207863725Y-76210400D03*
D39*
X207863725Y-77510400D03*
D63*
X168756775Y-175245525D03*
X168756775Y-174745525D03*
X168756775Y-174245525D03*
X168756775Y-173745525D03*
X168756775Y-173245525D03*
X168756775Y-172745525D03*
X168756775Y-172245525D03*
X168756775Y-171745525D03*
X168756775Y-171245525D03*
X168756775Y-170745525D03*
X168756775Y-170245525D03*
X168756775Y-169745525D03*
X168756775Y-169245525D03*
X168756775Y-168745525D03*
X168756775Y-168245525D03*
D64*
X166056775Y-177545525D03*
X166056775Y-165945525D03*
D41*
X211884600Y-128037476D03*
X212904600Y-128037476D03*
D55*
X258169250Y-178472725D03*
D56*
X258169250Y-177172725D03*
D68*
X209565000Y-119126000D03*
X211465000Y-119126000D03*
D38*
X161490050Y-196767275D03*
D39*
X161490050Y-198067275D03*
D43*
X256365850Y-178252525D03*
X256365850Y-179272525D03*
D63*
X182626725Y-168245525D03*
X182626725Y-168745525D03*
X182626725Y-169245525D03*
X182626725Y-169745525D03*
X182626725Y-170245525D03*
X182626725Y-170745525D03*
X182626725Y-171245525D03*
X182626725Y-171745525D03*
X182626725Y-172245525D03*
X182626725Y-172745525D03*
X182626725Y-173245525D03*
X182626725Y-173745525D03*
X182626725Y-174245525D03*
X182626725Y-174745525D03*
X182626725Y-175245525D03*
D64*
X185326725Y-165945525D03*
X185326725Y-177545525D03*
D43*
X153069103Y-184231525D03*
X153069103Y-185251525D03*
D69*
X155651300Y-182829200D03*
X154076300Y-182829200D03*
D52*
X190274400Y-199381400D03*
X191924400Y-199381400D03*
D48*
X197341000Y-126546453D03*
X196321000Y-126546453D03*
D62*
X260328250Y-182817925D03*
X260328250Y-184917925D03*
D32*
X183781200Y-161366200D03*
X182131200Y-161366200D03*
D70*
X210995000Y-117606246D03*
X210035000Y-117606246D03*
D31*
X145648650Y-172007525D03*
X145648650Y-170107525D03*
D49*
X255612050Y-156513175D03*
X255612050Y-158163175D03*
D53*
X205119800Y-123291600D03*
D54*
X203819800Y-123291600D03*
D44*
X181966125Y-88646000D03*
D45*
X183266125Y-88646000D03*
D71*
X215544400Y-124079000D03*
X218494400Y-124079000D03*
D53*
X189666925Y-97815400D03*
D54*
X188366925Y-97815400D03*
D30*
X144128896Y-170577525D03*
X144128896Y-171537525D03*
D47*
X252898397Y-163081725D03*
X253398397Y-163081725D03*
X253898397Y-163081725D03*
X254398397Y-163081725D03*
X254898397Y-163081725D03*
X254898397Y-167481725D03*
X254398397Y-167481725D03*
X253898397Y-167481725D03*
X253398397Y-167481725D03*
X252898397Y-167481725D03*
D46*
X198036425Y-87686400D03*
X211431400Y-130704525D03*
D65*
X206034925Y-78077000D03*
X206034925Y-77117000D03*
D33*
X253898397Y-170693925D03*
X253898397Y-169673925D03*
X253423374Y-174979925D03*
X253423374Y-173959925D03*
D43*
X207787525Y-82469800D03*
X207787525Y-83489800D03*
D53*
X211460125Y-102946200D03*
D54*
X210160125Y-102946200D03*
D43*
X207787525Y-84400200D03*
X207787525Y-85420200D03*
D52*
X183160250Y-125848800D03*
X184810250Y-125848800D03*
D33*
X253423374Y-180773125D03*
X253423374Y-179753125D03*
D43*
X207787525Y-88261000D03*
X207787525Y-89281000D03*
D65*
X154135903Y-165033125D03*
X154135903Y-164073125D03*
D43*
X208862925Y-84386600D03*
X208862925Y-85406600D03*
D46*
X200144625Y-87686400D03*
D52*
X223558600Y-192862200D03*
X225208600Y-192862200D03*
D72*
X209465000Y-121132600D03*
X211565000Y-121132600D03*
D55*
X201015600Y-196331600D03*
D56*
X201015600Y-195031600D03*
D53*
X189666925Y-95250000D03*
D54*
X188366925Y-95250000D03*
D73*
X212202500Y-123587000D03*
X212202500Y-124087000D03*
X212202500Y-124587000D03*
X212202500Y-125087000D03*
X212202500Y-125587000D03*
D74*
X211515000Y-126274500D03*
X211015000Y-126274500D03*
X210515000Y-126274500D03*
X210015000Y-126274500D03*
X209515000Y-126274500D03*
D73*
X208827500Y-125587000D03*
X208827500Y-125087000D03*
X208827500Y-124587000D03*
X208827500Y-124087000D03*
X208827500Y-123587000D03*
D74*
X209515000Y-122899500D03*
X210015000Y-122899500D03*
X210515000Y-122899500D03*
X211015000Y-122899500D03*
X211515000Y-122899500D03*
D37*
X210515000Y-124587000D03*
D44*
X203378325Y-63650840D03*
D45*
X204678325Y-63650840D03*
D69*
X216103300Y-174904400D03*
X214528300Y-174904400D03*
D75*
X217596300Y-194045800D03*
X217596300Y-194995800D03*
X217596300Y-195945800D03*
X215321300Y-195945800D03*
X215321300Y-194995800D03*
X215321300Y-194045800D03*
D76*
X216539400Y-127613253D03*
X217499400Y-127613253D03*
D77*
X200798325Y-174491589D03*
X201898325Y-174491589D03*
X202998325Y-174491589D03*
X204098325Y-174491589D03*
X205198325Y-174491589D03*
X206298325Y-174491589D03*
X207398325Y-174491589D03*
X208498325Y-174491589D03*
D78*
X210873325Y-177091589D03*
X197123325Y-177091589D03*
X197123325Y-168791589D03*
X210873325Y-168791589D03*
D79*
X211988400Y-185992000D03*
X211988400Y-189992000D03*
D48*
X203557400Y-128037476D03*
X202537400Y-128037476D03*
D52*
X224244400Y-161493200D03*
X225894400Y-161493200D03*
D46*
X208701925Y-79857600D03*
D58*
X163547450Y-198412275D03*
X163547450Y-196762275D03*
D46*
X145753903Y-175729125D03*
D80*
X221062007Y-224204725D03*
X221062007Y-226204725D03*
X221062007Y-228204725D03*
X221062007Y-230204725D03*
X221062007Y-232204725D03*
X221062007Y-234204725D03*
X221062007Y-236204725D03*
X221062007Y-238204725D03*
X186062007Y-238204725D03*
X186062007Y-236204725D03*
X186062007Y-234204725D03*
X186062007Y-232204725D03*
X186062007Y-230204725D03*
X186062007Y-228204725D03*
X186062007Y-226204725D03*
X186062007Y-224204725D03*
D81*
X209494507Y-234854725D03*
D46*
X250756325Y-184784325D03*
X145931703Y-177913525D03*
D82*
X150109650Y-169370025D03*
X150609650Y-169370025D03*
X151109650Y-169370025D03*
X151609650Y-169370025D03*
X152109650Y-169370025D03*
D83*
X152797150Y-170057525D03*
X152797150Y-170557525D03*
X152797150Y-171057525D03*
X152797150Y-171557525D03*
X152797150Y-172057525D03*
D82*
X152109650Y-172745025D03*
X151609650Y-172745025D03*
X151109650Y-172745025D03*
X150609650Y-172745025D03*
X150109650Y-172745025D03*
D83*
X149422150Y-172057525D03*
X149422150Y-171557525D03*
X149422150Y-171057525D03*
X149422150Y-170557525D03*
X149422150Y-170057525D03*
D37*
X151109650Y-171057525D03*
D28*
X195306325Y-155274325D03*
X194806325Y-155274325D03*
X194306325Y-155274325D03*
X193806325Y-155274325D03*
X193306325Y-155274325D03*
X192806325Y-155274325D03*
X192306325Y-155274325D03*
X191806325Y-155274325D03*
X191306325Y-155274325D03*
X190806325Y-155274325D03*
X190306325Y-155274325D03*
X189806325Y-155274325D03*
X189306325Y-155274325D03*
X188806325Y-155274325D03*
X188306325Y-155274325D03*
D29*
X197606325Y-157974325D03*
X186006325Y-157974325D03*
D82*
X202014825Y-81299900D03*
X202514825Y-81299900D03*
X203014825Y-81299900D03*
X203514825Y-81299900D03*
X204014825Y-81299900D03*
D83*
X204702325Y-81987400D03*
X204702325Y-82487400D03*
X204702325Y-82987400D03*
X204702325Y-83487400D03*
X204702325Y-83987400D03*
D82*
X204014825Y-84674900D03*
X203514825Y-84674900D03*
X203014825Y-84674900D03*
X202514825Y-84674900D03*
X202014825Y-84674900D03*
D83*
X201327325Y-83987400D03*
X201327325Y-83487400D03*
X201327325Y-82987400D03*
X201327325Y-82487400D03*
X201327325Y-81987400D03*
D37*
X203014825Y-82987400D03*
D43*
X154085103Y-184231525D03*
X154085103Y-185251525D03*
D84*
X198417425Y-76575600D03*
X198417425Y-78475600D03*
D85*
X190892000Y-130737453D03*
D86*
X189592000Y-130737453D03*
D87*
X188292000Y-130737453D03*
D48*
X197341000Y-127562453D03*
X196321000Y-127562453D03*
D88*
X203616800Y-214846800D03*
X203616800Y-216546800D03*
X204266800Y-214846800D03*
X204266800Y-216546800D03*
X204916800Y-214846800D03*
X204916800Y-216546800D03*
D28*
X218312125Y-188235925D03*
X218812125Y-188235925D03*
X219312125Y-188235925D03*
X219812125Y-188235925D03*
X220312125Y-188235925D03*
X220812125Y-188235925D03*
D29*
X216012125Y-185535925D03*
X223112125Y-185535925D03*
D50*
X250723397Y-168918525D03*
D26*
X250723397Y-167618525D03*
D51*
X250723397Y-166318525D03*
D59*
X150601650Y-166028125D03*
X150601650Y-163078125D03*
D47*
X183842225Y-84953200D03*
X183342225Y-84953200D03*
X182842225Y-84953200D03*
X182342225Y-84953200D03*
X181842225Y-84953200D03*
X181842225Y-80553200D03*
X182342225Y-80553200D03*
X182842225Y-80553200D03*
X183342225Y-80553200D03*
X183842225Y-80553200D03*
D69*
X191211300Y-134467600D03*
X189636300Y-134467600D03*
D59*
X257381850Y-188897325D03*
X257381850Y-191847325D03*
D58*
X213156800Y-216242400D03*
X213156800Y-214592400D03*
D44*
X181915325Y-74244200D03*
D45*
X183215325Y-74244200D03*
D33*
X253423374Y-178840725D03*
X253423374Y-177820725D03*
D46*
X157227175Y-170141125D03*
D89*
X194436900Y-163195000D03*
X196011900Y-163195000D03*
D84*
X262334850Y-182917925D03*
X262334850Y-184817925D03*
D43*
X183096225Y-77214000D03*
X183096225Y-78234000D03*
D89*
X245948100Y-166573200D03*
X247523100Y-166573200D03*
D84*
X146004250Y-164695325D03*
X146004250Y-166595325D03*
D43*
X206705552Y-80547000D03*
X206705552Y-81567000D03*
D46*
X262229597Y-179196325D03*
D43*
X154560126Y-174152325D03*
X154560126Y-175172325D03*
D85*
X195565600Y-130737453D03*
D86*
X194265600Y-130737453D03*
D87*
X192965600Y-130737453D03*
D38*
X253554650Y-156858175D03*
D39*
X253554650Y-158158175D03*
D90*
X216877200Y-119481600D03*
X214977200Y-119481600D03*
D33*
X154560126Y-171618325D03*
X154560126Y-170598325D03*
D58*
X197307200Y-192542400D03*
X197307200Y-190892400D03*
D63*
X239226725Y-168245525D03*
X239226725Y-168745525D03*
X239226725Y-169245525D03*
X239226725Y-169745525D03*
X239226725Y-170245525D03*
X239226725Y-170745525D03*
X239226725Y-171245525D03*
X239226725Y-171745525D03*
X239226725Y-172245525D03*
X239226725Y-172745525D03*
X239226725Y-173245525D03*
X239226725Y-173745525D03*
X239226725Y-174245525D03*
X239226725Y-174745525D03*
X239226725Y-175245525D03*
D64*
X241926725Y-165945525D03*
X241926725Y-177545525D03*
D31*
X261979250Y-190230125D03*
X261979250Y-188330125D03*
D55*
X154428850Y-198067275D03*
D56*
X154428850Y-196767275D03*
D49*
X244436050Y-156513175D03*
X244436050Y-158163175D03*
D52*
X186550800Y-134467600D03*
X188200800Y-134467600D03*
D43*
X253423374Y-185237525D03*
X253423374Y-186257525D03*
D33*
X253423374Y-176910325D03*
X253423374Y-175890325D03*
D91*
X205613000Y-197739200D03*
X205613000Y-199289200D03*
D58*
X202514200Y-199339200D03*
X202514200Y-197689200D03*
D92*
X207485800Y-194995800D03*
X212985800Y-194995800D03*
D58*
X152371450Y-198412275D03*
X152371450Y-196762275D03*
D38*
X149814250Y-176452725D03*
D39*
X149814250Y-177752725D03*
D43*
X256365850Y-176322125D03*
X256365850Y-177342125D03*
M02*
