G04 #@! TF.GenerationSoftware,KiCad,Pcbnew,(6.0.1)*
G04 #@! TF.CreationDate,2022-11-09T13:11:14-03:00*
G04 #@! TF.ProjectId,PANEL-COMPLETE,50414e45-4c2d-4434-9f4d-504c4554452e,Rev 3*
G04 #@! TF.SameCoordinates,Original*
G04 #@! TF.FileFunction,Legend,Bot*
G04 #@! TF.FilePolarity,Positive*
%FSLAX46Y46*%
G04 Gerber Fmt 4.6, Leading zero omitted, Abs format (unit mm)*
G04 Created by KiCad (PCBNEW (6.0.1)) date 2022-11-09 13:11:14*
%MOMM*%
%LPD*%
G01*
G04 APERTURE LIST*
G04 Aperture macros list*
%AMRoundRect*
0 Rectangle with rounded corners*
0 $1 Rounding radius*
0 $2 $3 $4 $5 $6 $7 $8 $9 X,Y pos of 4 corners*
0 Add a 4 corners polygon primitive as box body*
4,1,4,$2,$3,$4,$5,$6,$7,$8,$9,$2,$3,0*
0 Add four circle primitives for the rounded corners*
1,1,$1+$1,$2,$3*
1,1,$1+$1,$4,$5*
1,1,$1+$1,$6,$7*
1,1,$1+$1,$8,$9*
0 Add four rect primitives between the rounded corners*
20,1,$1+$1,$2,$3,$4,$5,0*
20,1,$1+$1,$4,$5,$6,$7,0*
20,1,$1+$1,$6,$7,$8,$9,0*
20,1,$1+$1,$8,$9,$2,$3,0*%
%AMFreePoly0*
4,1,22,0.550000,-0.750000,0.000000,-0.750000,0.000000,-0.745033,-0.079941,-0.743568,-0.215256,-0.701293,-0.333266,-0.622738,-0.424486,-0.514219,-0.481581,-0.384460,-0.499164,-0.250000,-0.500000,-0.250000,-0.500000,0.250000,-0.499164,0.250000,-0.499963,0.256109,-0.478152,0.396186,-0.417904,0.524511,-0.324060,0.630769,-0.204165,0.706417,-0.067858,0.745374,0.000000,0.744959,0.000000,0.750000,
0.550000,0.750000,0.550000,-0.750000,0.550000,-0.750000,$1*%
%AMFreePoly1*
4,1,20,0.000000,0.744959,0.073905,0.744508,0.209726,0.703889,0.328688,0.626782,0.421226,0.519385,0.479903,0.390333,0.500000,0.250000,0.500000,-0.250000,0.499851,-0.262216,0.476331,-0.402017,0.414519,-0.529596,0.319384,-0.634700,0.198574,-0.708877,0.061801,-0.746166,0.000000,-0.745033,0.000000,-0.750000,-0.550000,-0.750000,-0.550000,0.750000,0.000000,0.750000,0.000000,0.744959,
0.000000,0.744959,$1*%
%AMFreePoly2*
4,1,22,0.500000,-0.750000,0.000000,-0.750000,0.000000,-0.745033,-0.079941,-0.743568,-0.215256,-0.701293,-0.333266,-0.622738,-0.424486,-0.514219,-0.481581,-0.384460,-0.499164,-0.250000,-0.500000,-0.250000,-0.500000,0.250000,-0.499164,0.250000,-0.499963,0.256109,-0.478152,0.396186,-0.417904,0.524511,-0.324060,0.630769,-0.204165,0.706417,-0.067858,0.745374,0.000000,0.744959,0.000000,0.750000,
0.500000,0.750000,0.500000,-0.750000,0.500000,-0.750000,$1*%
%AMFreePoly3*
4,1,20,0.000000,0.744959,0.073905,0.744508,0.209726,0.703889,0.328688,0.626782,0.421226,0.519385,0.479903,0.390333,0.500000,0.250000,0.500000,-0.250000,0.499851,-0.262216,0.476331,-0.402017,0.414519,-0.529596,0.319384,-0.634700,0.198574,-0.708877,0.061801,-0.746166,0.000000,-0.745033,0.000000,-0.750000,-0.500000,-0.750000,-0.500000,0.750000,0.000000,0.750000,0.000000,0.744959,
0.000000,0.744959,$1*%
G04 Aperture macros list end*
%ADD10C,0.120000*%
%ADD11C,0.100000*%
%ADD12C,0.150000*%
%ADD13C,0.200000*%
%ADD14C,0.127000*%
%ADD15C,2.200000*%
%ADD16C,0.650000*%
%ADD17O,1.000000X1.600000*%
%ADD18O,1.000000X2.100000*%
%ADD19C,0.500000*%
%ADD20C,4.000000*%
%ADD21RoundRect,1.000000X1.000000X1.000000X-1.000000X1.000000X-1.000000X-1.000000X1.000000X-1.000000X0*%
%ADD22RoundRect,1.000000X-1.000000X1.000000X-1.000000X-1.000000X1.000000X-1.000000X1.000000X1.000000X0*%
%ADD23R,6.000000X2.000000*%
%ADD24C,2.000000*%
%ADD25C,2.600000*%
%ADD26RoundRect,1.000000X1.000000X-1.000000X1.000000X1.000000X-1.000000X1.000000X-1.000000X-1.000000X0*%
%ADD27R,1.700000X1.700000*%
%ADD28O,1.700000X1.700000*%
%ADD29C,0.990600*%
%ADD30FreePoly0,270.000000*%
%ADD31R,1.500000X1.000000*%
%ADD32FreePoly1,270.000000*%
%ADD33R,0.300000X1.000000*%
%ADD34R,2.000000X1.300000*%
%ADD35RoundRect,0.140000X-0.170000X0.140000X-0.170000X-0.140000X0.170000X-0.140000X0.170000X0.140000X0*%
%ADD36RoundRect,0.250000X0.475000X-0.250000X0.475000X0.250000X-0.475000X0.250000X-0.475000X-0.250000X0*%
%ADD37RoundRect,0.200000X0.200000X0.275000X-0.200000X0.275000X-0.200000X-0.275000X0.200000X-0.275000X0*%
%ADD38RoundRect,0.135000X0.185000X-0.135000X0.185000X0.135000X-0.185000X0.135000X-0.185000X-0.135000X0*%
%ADD39RoundRect,0.250000X0.325000X0.650000X-0.325000X0.650000X-0.325000X-0.650000X0.325000X-0.650000X0*%
%ADD40RoundRect,0.062500X0.062500X-0.375000X0.062500X0.375000X-0.062500X0.375000X-0.062500X-0.375000X0*%
%ADD41RoundRect,0.062500X0.375000X-0.062500X0.375000X0.062500X-0.375000X0.062500X-0.375000X-0.062500X0*%
%ADD42R,2.000000X2.000000*%
%ADD43FreePoly2,270.000000*%
%ADD44FreePoly3,270.000000*%
%ADD45RoundRect,0.218750X0.256250X-0.218750X0.256250X0.218750X-0.256250X0.218750X-0.256250X-0.218750X0*%
%ADD46RoundRect,0.135000X-0.135000X-0.185000X0.135000X-0.185000X0.135000X0.185000X-0.135000X0.185000X0*%
%ADD47RoundRect,0.250000X-0.650000X0.325000X-0.650000X-0.325000X0.650000X-0.325000X0.650000X0.325000X0*%
%ADD48RoundRect,0.135000X-0.185000X0.135000X-0.185000X-0.135000X0.185000X-0.135000X0.185000X0.135000X0*%
%ADD49FreePoly2,0.000000*%
%ADD50FreePoly3,0.000000*%
%ADD51C,1.000000*%
%ADD52R,0.300000X1.400000*%
%ADD53RoundRect,0.135000X0.135000X0.185000X-0.135000X0.185000X-0.135000X-0.185000X0.135000X-0.185000X0*%
%ADD54RoundRect,0.200000X-0.275000X0.200000X-0.275000X-0.200000X0.275000X-0.200000X0.275000X0.200000X0*%
%ADD55FreePoly0,90.000000*%
%ADD56FreePoly1,90.000000*%
%ADD57RoundRect,0.200000X-0.200000X-0.275000X0.200000X-0.275000X0.200000X0.275000X-0.200000X0.275000X0*%
%ADD58FreePoly2,180.000000*%
%ADD59FreePoly3,180.000000*%
%ADD60FreePoly2,90.000000*%
%ADD61FreePoly3,90.000000*%
%ADD62RoundRect,0.070000X0.300000X-0.650000X0.300000X0.650000X-0.300000X0.650000X-0.300000X-0.650000X0*%
%ADD63RoundRect,0.200000X0.275000X-0.200000X0.275000X0.200000X-0.275000X0.200000X-0.275000X-0.200000X0*%
%ADD64R,3.890000X1.450000*%
%ADD65RoundRect,0.250000X-0.350000X-0.625000X0.350000X-0.625000X0.350000X0.625000X-0.350000X0.625000X0*%
%ADD66O,1.200000X1.750000*%
%ADD67R,0.450000X0.600000*%
%ADD68R,1.000000X0.300000*%
%ADD69R,1.300000X2.000000*%
%ADD70RoundRect,0.140000X0.170000X-0.140000X0.170000X0.140000X-0.170000X0.140000X-0.170000X-0.140000X0*%
%ADD71RoundRect,0.250000X-1.025000X0.787500X-1.025000X-0.787500X1.025000X-0.787500X1.025000X0.787500X0*%
%ADD72R,1.400000X0.300000*%
%ADD73RoundRect,0.250000X-0.250000X-0.475000X0.250000X-0.475000X0.250000X0.475000X-0.250000X0.475000X0*%
%ADD74RoundRect,0.218750X0.218750X0.256250X-0.218750X0.256250X-0.218750X-0.256250X0.218750X-0.256250X0*%
%ADD75RoundRect,0.140000X0.140000X0.170000X-0.140000X0.170000X-0.140000X-0.170000X0.140000X-0.170000X0*%
%ADD76R,1.450000X3.890000*%
%ADD77R,0.600000X0.450000*%
%ADD78RoundRect,0.062500X0.375000X0.062500X-0.375000X0.062500X-0.375000X-0.062500X0.375000X-0.062500X0*%
%ADD79RoundRect,0.062500X0.062500X0.375000X-0.062500X0.375000X-0.062500X-0.375000X0.062500X-0.375000X0*%
%ADD80RoundRect,0.150000X0.512500X0.150000X-0.512500X0.150000X-0.512500X-0.150000X0.512500X-0.150000X0*%
%ADD81RoundRect,0.140000X-0.140000X-0.170000X0.140000X-0.170000X0.140000X0.170000X-0.140000X0.170000X0*%
%ADD82R,0.800000X1.500000*%
%ADD83R,1.450000X2.000000*%
%ADD84R,1.800000X2.500000*%
%ADD85RoundRect,0.063500X-1.000000X-0.650000X1.000000X-0.650000X1.000000X0.650000X-1.000000X0.650000X0*%
%ADD86RoundRect,0.063500X-5.750000X-2.350000X5.750000X-2.350000X5.750000X2.350000X-5.750000X2.350000X0*%
%ADD87RoundRect,0.062500X-0.062500X0.375000X-0.062500X-0.375000X0.062500X-0.375000X0.062500X0.375000X0*%
%ADD88RoundRect,0.062500X-0.375000X0.062500X-0.375000X-0.062500X0.375000X-0.062500X0.375000X0.062500X0*%
%ADD89RoundRect,0.250000X-0.475000X0.250000X-0.475000X-0.250000X0.475000X-0.250000X0.475000X0.250000X0*%
%ADD90FreePoly0,180.000000*%
%ADD91R,1.000000X1.500000*%
%ADD92FreePoly1,180.000000*%
%ADD93RoundRect,0.125000X-0.125000X-0.125000X0.125000X-0.125000X0.125000X0.125000X-0.125000X0.125000X0*%
%ADD94RoundRect,0.218750X-0.218750X-0.256250X0.218750X-0.256250X0.218750X0.256250X-0.218750X0.256250X0*%
%ADD95RoundRect,0.250000X0.250000X0.475000X-0.250000X0.475000X-0.250000X-0.475000X0.250000X-0.475000X0*%
%ADD96RoundRect,0.225000X-0.250000X0.225000X-0.250000X-0.225000X0.250000X-0.225000X0.250000X0.225000X0*%
%ADD97R,1.500000X2.400000*%
G04 APERTURE END LIST*
D10*
X158460103Y-186106925D02*
X158760103Y-186406925D01*
X157560103Y-185256925D02*
X156960103Y-185256925D01*
X156260103Y-185906925D02*
X156260103Y-188706925D01*
X158760103Y-185806925D02*
X158760103Y-186406925D01*
X156960103Y-189356925D02*
X157560103Y-189356925D01*
X158460103Y-186106925D02*
X158760103Y-185806925D01*
X158260103Y-188706925D02*
X158260103Y-185906925D01*
X157560103Y-189356925D02*
G75*
G03*
X158260103Y-188656925I1J699999D01*
G01*
X156260103Y-188656925D02*
G75*
G03*
X156960103Y-189356925I699999J-1D01*
G01*
X158260103Y-185956925D02*
G75*
G03*
X157560103Y-185256925I-699999J1D01*
G01*
X156960103Y-185256925D02*
G75*
G03*
X156260103Y-185956925I-1J-699999D01*
G01*
D11*
X210179400Y-95004600D02*
X222179400Y-95004600D01*
D10*
X196212025Y-82894764D02*
X196212025Y-83110436D01*
X195492025Y-82894764D02*
X195492025Y-83110436D01*
X198085625Y-83274052D02*
X198085625Y-82751548D01*
X196615625Y-83274052D02*
X196615625Y-82751548D01*
X158760103Y-190480525D02*
X158760103Y-191080525D01*
X158460103Y-190780525D02*
X158760103Y-190480525D01*
X158460103Y-190780525D02*
X158760103Y-191080525D01*
X156960103Y-194030525D02*
X157560103Y-194030525D01*
X156260103Y-190580525D02*
X156260103Y-193380525D01*
X157560103Y-189930525D02*
X156960103Y-189930525D01*
X158260103Y-193380525D02*
X158260103Y-190580525D01*
X158260103Y-190630525D02*
G75*
G03*
X157560103Y-189930525I-699999J1D01*
G01*
X157560103Y-194030525D02*
G75*
G03*
X158260103Y-193330525I1J699999D01*
G01*
X156960103Y-189930525D02*
G75*
G03*
X156260103Y-190630525I-1J-699999D01*
G01*
X156260103Y-193330525D02*
G75*
G03*
X156960103Y-194030525I699999J-1D01*
G01*
X183310583Y-94400900D02*
X182836067Y-94400900D01*
X183310583Y-93355900D02*
X182836067Y-93355900D01*
X154940126Y-169331566D02*
X154940126Y-169024284D01*
X154180126Y-169331566D02*
X154180126Y-169024284D01*
X151997650Y-178246966D02*
X151997650Y-177939684D01*
X151237650Y-178246966D02*
X151237650Y-177939684D01*
X217220852Y-198852200D02*
X215798348Y-198852200D01*
X217220852Y-197032200D02*
X215798348Y-197032200D01*
X255013850Y-182007925D02*
X255488850Y-182007925D01*
X258733850Y-182482925D02*
X258733850Y-182007925D01*
X255013850Y-182482925D02*
X255013850Y-182007925D01*
X258733850Y-182007925D02*
X258258850Y-182007925D01*
X258733850Y-185252925D02*
X258733850Y-185727925D01*
X255013850Y-185252925D02*
X255013850Y-185727925D01*
X255013850Y-185727925D02*
X255488850Y-185727925D01*
X204012325Y-89157800D02*
X204012325Y-87757800D01*
X202712325Y-89857800D02*
X203312325Y-89857800D01*
X202012325Y-87757800D02*
X202012325Y-89157800D01*
X203312325Y-87057800D02*
X202712325Y-87057800D01*
X202012325Y-89157800D02*
G75*
G03*
X202712325Y-89857800I699999J-1D01*
G01*
X204012325Y-87757800D02*
G75*
G03*
X203312325Y-87057800I-699999J1D01*
G01*
X202712325Y-87057800D02*
G75*
G03*
X202012325Y-87757800I-1J-699999D01*
G01*
X203312325Y-89857800D02*
G75*
G03*
X204012325Y-89157800I1J699999D01*
G01*
X211961000Y-87868979D02*
X211961000Y-87543421D01*
X212981000Y-87868979D02*
X212981000Y-87543421D01*
X210310559Y-127657476D02*
X210617841Y-127657476D01*
X210310559Y-128417476D02*
X210617841Y-128417476D01*
X219257200Y-193928948D02*
X219257200Y-195351452D01*
X221077200Y-193928948D02*
X221077200Y-195351452D01*
X208167525Y-86686959D02*
X208167525Y-86994241D01*
X207407525Y-86686959D02*
X207407525Y-86994241D01*
X254028397Y-188335525D02*
X254028397Y-187735525D01*
X251228397Y-187735525D02*
X251228397Y-188335525D01*
X253328397Y-187035525D02*
X251928397Y-187035525D01*
X251928397Y-189035525D02*
X253328397Y-189035525D01*
X254028397Y-187735525D02*
G75*
G03*
X253328397Y-187035525I-699999J1D01*
G01*
X251928397Y-187035525D02*
G75*
G03*
X251228397Y-187735525I-1J-699999D01*
G01*
X253328397Y-189035525D02*
G75*
G03*
X254028397Y-188335525I1J699999D01*
G01*
X251228397Y-188335525D02*
G75*
G03*
X251928397Y-189035525I699999J-1D01*
G01*
X204359000Y-119409053D02*
G75*
G03*
X204359000Y-119409053I-700000J0D01*
G01*
X206543400Y-119231253D02*
G75*
G03*
X206543400Y-119231253I-700000J0D01*
G01*
X181700225Y-77570359D02*
X181700225Y-77877641D01*
X182460225Y-77570359D02*
X182460225Y-77877641D01*
X205255959Y-124715000D02*
X205563241Y-124715000D01*
X205255959Y-125475000D02*
X205563241Y-125475000D01*
X205410200Y-213298041D02*
X205410200Y-213605323D01*
X204650200Y-213298041D02*
X204650200Y-213605323D01*
D11*
X185418925Y-183958854D02*
X197418925Y-183958854D01*
D12*
X155760103Y-191318725D02*
X155535103Y-191318725D01*
X152410103Y-187968725D02*
X152710103Y-187968725D01*
X152410103Y-191318725D02*
X152710103Y-191318725D01*
X155760103Y-191318725D02*
X155760103Y-187968725D01*
X152410103Y-191318725D02*
X152410103Y-187968725D01*
X155535103Y-191318725D02*
X155535103Y-192543725D01*
X155760103Y-187968725D02*
X155460103Y-187968725D01*
D10*
X254207597Y-190264489D02*
X254207597Y-190480161D01*
X253487597Y-190264489D02*
X253487597Y-190480161D01*
X205131441Y-127657476D02*
X204824159Y-127657476D01*
X205131441Y-128417476D02*
X204824159Y-128417476D01*
X154180126Y-180301884D02*
X154180126Y-180609166D01*
X154940126Y-180301884D02*
X154940126Y-180609166D01*
X224015125Y-88346000D02*
X224015125Y-88946000D01*
X226815125Y-88946000D02*
X226815125Y-88346000D01*
X224715125Y-89646000D02*
X226115125Y-89646000D01*
X226115125Y-87646000D02*
X224715125Y-87646000D01*
X224015125Y-88946000D02*
G75*
G03*
X224715125Y-89646000I699999J-1D01*
G01*
X224715125Y-87646000D02*
G75*
G03*
X224015125Y-88346000I-1J-699999D01*
G01*
X226815125Y-88346000D02*
G75*
G03*
X226115125Y-87646000I-699999J1D01*
G01*
X226115125Y-89646000D02*
G75*
G03*
X226815125Y-88946000I1J699999D01*
G01*
X221705700Y-198263742D02*
X221705700Y-198738258D01*
X220660700Y-198263742D02*
X220660700Y-198738258D01*
X250423397Y-164994925D02*
X251023397Y-164994925D01*
X249523397Y-164144925D02*
X249223397Y-164444925D01*
X251023397Y-160894925D02*
X250423397Y-160894925D01*
X249723397Y-161544925D02*
X249723397Y-164344925D01*
X251723397Y-164344925D02*
X251723397Y-161544925D01*
X249223397Y-164444925D02*
X249223397Y-163844925D01*
X249523397Y-164144925D02*
X249223397Y-163844925D01*
X251023397Y-164994925D02*
G75*
G03*
X251723397Y-164294925I1J699999D01*
G01*
X251723397Y-161594925D02*
G75*
G03*
X251023397Y-160894925I-699999J1D01*
G01*
X250423397Y-160894925D02*
G75*
G03*
X249723397Y-161594925I-1J-699999D01*
G01*
X249723397Y-164294925D02*
G75*
G03*
X250423397Y-164994925I699999J-1D01*
G01*
X190862142Y-197292700D02*
X191336658Y-197292700D01*
X190862142Y-198337700D02*
X191336658Y-198337700D01*
D11*
X197418925Y-215993925D02*
X185418925Y-215993925D01*
D10*
X156755103Y-167189925D02*
X156755103Y-166589925D01*
X153955103Y-166589925D02*
X153955103Y-167189925D01*
X154655103Y-167889925D02*
X156055103Y-167889925D01*
X156055103Y-165889925D02*
X154655103Y-165889925D01*
X156055103Y-167889925D02*
G75*
G03*
X156755103Y-167189925I1J699999D01*
G01*
X156755103Y-166589925D02*
G75*
G03*
X156055103Y-165889925I-699999J1D01*
G01*
X154655103Y-165889925D02*
G75*
G03*
X153955103Y-166589925I-1J-699999D01*
G01*
X153955103Y-167189925D02*
G75*
G03*
X154655103Y-167889925I699999J-1D01*
G01*
X217067925Y-63819000D02*
X217067925Y-62419000D01*
X215067925Y-62419000D02*
X215067925Y-63819000D01*
X215767925Y-64519000D02*
X216367925Y-64519000D01*
X216367925Y-61719000D02*
X215767925Y-61719000D01*
X215067925Y-63819000D02*
G75*
G03*
X215767925Y-64519000I699999J-1D01*
G01*
X217067925Y-62419000D02*
G75*
G03*
X216367925Y-61719000I-699999J1D01*
G01*
X215767925Y-61719000D02*
G75*
G03*
X215067925Y-62419000I-1J-699999D01*
G01*
X216367925Y-64519000D02*
G75*
G03*
X217067925Y-63819000I1J699999D01*
G01*
X245493450Y-156808175D02*
X245493450Y-158208175D01*
X246793450Y-156108175D02*
X246193450Y-156108175D01*
X247493450Y-158208175D02*
X247493450Y-156808175D01*
X246193450Y-158908175D02*
X246793450Y-158908175D01*
X245493450Y-158208175D02*
G75*
G03*
X246193450Y-158908175I699999J-1D01*
G01*
X247493450Y-156808175D02*
G75*
G03*
X246793450Y-156108175I-699999J1D01*
G01*
X246193450Y-156108175D02*
G75*
G03*
X245493450Y-156808175I-1J-699999D01*
G01*
X246793450Y-158908175D02*
G75*
G03*
X247493450Y-158208175I1J699999D01*
G01*
X254534397Y-170337566D02*
X254534397Y-170030284D01*
X255294397Y-170337566D02*
X255294397Y-170030284D01*
X221143125Y-80032400D02*
X220543125Y-80032400D01*
X219843125Y-80732400D02*
X219843125Y-82132400D01*
X220543125Y-82832400D02*
X221143125Y-82832400D01*
X221843125Y-82132400D02*
X221843125Y-80732400D01*
X221843125Y-80732400D02*
G75*
G03*
X221143125Y-80032400I-699999J1D01*
G01*
X219843125Y-82132400D02*
G75*
G03*
X220543125Y-82832400I699999J-1D01*
G01*
X220543125Y-80032400D02*
G75*
G03*
X219843125Y-80732400I-1J-699999D01*
G01*
X221143125Y-82832400D02*
G75*
G03*
X221843125Y-82132400I1J699999D01*
G01*
D11*
X205388600Y-195834000D02*
X205388600Y-196609000D01*
X202413600Y-195834000D02*
X202763600Y-195834000D01*
X202713600Y-194184000D02*
X202413600Y-194184000D01*
X202638600Y-194184000D02*
X202763600Y-194184000D01*
X202413600Y-195359000D02*
X202413600Y-195834000D01*
X205713600Y-195459000D02*
X205438600Y-195834000D01*
X205713600Y-195184000D02*
X205713600Y-195459000D01*
X202413600Y-194184000D02*
X202413600Y-194634000D01*
X205438600Y-195834000D02*
X205388600Y-195834000D01*
X205713600Y-194559000D02*
X205713600Y-194184000D01*
X205713600Y-194184000D02*
X205413600Y-194184000D01*
D10*
X212155300Y-215654658D02*
X212155300Y-215180142D01*
X211110300Y-215654658D02*
X211110300Y-215180142D01*
D11*
X200556825Y-76450600D02*
X200556825Y-75550600D01*
X204456825Y-76450600D02*
X204456825Y-75550600D01*
D10*
X207063841Y-127657476D02*
X206756559Y-127657476D01*
X207063841Y-128417476D02*
X206756559Y-128417476D01*
X189928325Y-85450400D02*
X189928325Y-86050400D01*
X190628325Y-86750400D02*
X192028325Y-86750400D01*
X192728325Y-86050400D02*
X192728325Y-85450400D01*
X192028325Y-84750400D02*
X190628325Y-84750400D01*
X190628325Y-84750400D02*
G75*
G03*
X189928325Y-85450400I-1J-699999D01*
G01*
X192028325Y-86750400D02*
G75*
G03*
X192728325Y-86050400I1J699999D01*
G01*
X192728325Y-85450400D02*
G75*
G03*
X192028325Y-84750400I-699999J1D01*
G01*
X189928325Y-86050400D02*
G75*
G03*
X190628325Y-86750400I699999J-1D01*
G01*
D11*
X222190325Y-159524325D02*
X210190325Y-159524325D01*
D10*
X207022000Y-158580800D02*
X206412000Y-158580800D01*
X206412000Y-159280800D02*
X204462000Y-159280800D01*
X202662000Y-159990800D02*
X202362000Y-159990800D01*
X200902000Y-158580800D02*
X201512000Y-158580800D01*
X203962000Y-155780800D02*
X203962000Y-156280800D01*
X202662000Y-159890800D02*
X202662000Y-160090800D01*
X200902000Y-157280800D02*
X201512000Y-157280800D01*
X202362000Y-160090800D02*
X202362000Y-159890800D01*
X203862000Y-156280800D02*
X204062000Y-156280800D01*
X203462000Y-159280800D02*
X201512000Y-159280800D01*
X200602000Y-160190800D02*
X200602000Y-158940800D01*
X206412000Y-155780800D02*
X206412000Y-159280800D01*
X201852000Y-160190800D02*
X200602000Y-160190800D01*
X200902000Y-155170800D02*
X207022000Y-155170800D01*
X203462000Y-159890800D02*
X203462000Y-159280800D01*
X207022000Y-159890800D02*
X200902000Y-159890800D01*
X207022000Y-155170800D02*
X207022000Y-159890800D01*
X201512000Y-155780800D02*
X206412000Y-155780800D01*
X204462000Y-159280800D02*
X204462000Y-159890800D01*
X203862000Y-155780800D02*
X203862000Y-156280800D01*
X207022000Y-157280800D02*
X206412000Y-157280800D01*
X204062000Y-156280800D02*
X204062000Y-155780800D01*
X202662000Y-160090800D02*
X202362000Y-160090800D01*
X201512000Y-159280800D02*
X201512000Y-155780800D01*
X200902000Y-159890800D02*
X200902000Y-155170800D01*
X208482925Y-82812559D02*
X208482925Y-83119841D01*
X209242925Y-82812559D02*
X209242925Y-83119841D01*
X204586100Y-198751458D02*
X204586100Y-198276942D01*
X203541100Y-198751458D02*
X203541100Y-198276942D01*
X207085552Y-82833759D02*
X207085552Y-83141041D01*
X206325552Y-82833759D02*
X206325552Y-83141041D01*
D11*
X223412125Y-215893925D02*
X215712125Y-215893925D01*
X185806325Y-137984125D02*
X197806325Y-137984125D01*
D10*
X146805250Y-172557525D02*
X146805250Y-170007525D01*
X148505250Y-172557525D02*
X146805250Y-172557525D01*
X148505250Y-172557525D02*
X148505250Y-170007525D01*
D11*
X221115600Y-177745525D02*
X221115600Y-165745525D01*
D10*
X262751797Y-177011925D02*
G75*
G03*
X262751797Y-177011925I-700000J0D01*
G01*
D11*
X198632200Y-196022200D02*
X198632200Y-196797200D01*
X195657200Y-194372200D02*
X195657200Y-194822200D01*
X198957200Y-195647200D02*
X198682200Y-196022200D01*
X198957200Y-194372200D02*
X198657200Y-194372200D01*
X198682200Y-196022200D02*
X198632200Y-196022200D01*
X198957200Y-195372200D02*
X198957200Y-195647200D01*
X195657200Y-196022200D02*
X196007200Y-196022200D01*
X195657200Y-195547200D02*
X195657200Y-196022200D01*
X195957200Y-194372200D02*
X195657200Y-194372200D01*
X198957200Y-194747200D02*
X198957200Y-194372200D01*
X195882200Y-194372200D02*
X196007200Y-194372200D01*
D10*
X264214604Y-183975761D02*
X264214604Y-183760089D01*
X263494604Y-183975761D02*
X263494604Y-183760089D01*
X154940126Y-176441084D02*
X154940126Y-176748366D01*
X154180126Y-176441084D02*
X154180126Y-176748366D01*
X190988725Y-99045800D02*
X190988725Y-100445800D01*
X191688725Y-101145800D02*
X192288725Y-101145800D01*
X192288725Y-98345800D02*
X191688725Y-98345800D01*
X192988725Y-100445800D02*
X192988725Y-99045800D01*
X191688725Y-98345800D02*
G75*
G03*
X190988725Y-99045800I-1J-699999D01*
G01*
X192288725Y-101145800D02*
G75*
G03*
X192988725Y-100445800I1J699999D01*
G01*
X190988725Y-100445800D02*
G75*
G03*
X191688725Y-101145800I699999J-1D01*
G01*
X192988725Y-99045800D02*
G75*
G03*
X192288725Y-98345800I-699999J1D01*
G01*
X228685600Y-82132400D02*
X228685600Y-80732400D01*
X227985600Y-80032400D02*
X227385600Y-80032400D01*
X226685600Y-80732400D02*
X226685600Y-82132400D01*
X227385600Y-82832400D02*
X227985600Y-82832400D01*
X227985600Y-82832400D02*
G75*
G03*
X228685600Y-82132400I1J699999D01*
G01*
X226685600Y-82132400D02*
G75*
G03*
X227385600Y-82832400I699999J-1D01*
G01*
X227385600Y-80032400D02*
G75*
G03*
X226685600Y-80732400I-1J-699999D01*
G01*
X228685600Y-80732400D02*
G75*
G03*
X227985600Y-80032400I-699999J1D01*
G01*
X201270641Y-128417476D02*
X200963359Y-128417476D01*
X201270641Y-127657476D02*
X200963359Y-127657476D01*
X187144225Y-85016800D02*
X187144225Y-82216800D01*
X185144225Y-82216800D02*
X185144225Y-85016800D01*
X186444225Y-81566800D02*
X185844225Y-81566800D01*
X187344225Y-82416800D02*
X187644225Y-82116800D01*
X187344225Y-82416800D02*
X187644225Y-82716800D01*
X187644225Y-82116800D02*
X187644225Y-82716800D01*
X185844225Y-85666800D02*
X186444225Y-85666800D01*
X187144225Y-82266800D02*
G75*
G03*
X186444225Y-81566800I-699999J1D01*
G01*
X186444225Y-85666800D02*
G75*
G03*
X187144225Y-84966800I1J699999D01*
G01*
X185844225Y-81566800D02*
G75*
G03*
X185144225Y-82266800I-1J-699999D01*
G01*
X185144225Y-84966800D02*
G75*
G03*
X185844225Y-85666800I699999J-1D01*
G01*
X185144225Y-77543200D02*
X185144225Y-80343200D01*
X186444225Y-76893200D02*
X185844225Y-76893200D01*
X187344225Y-77743200D02*
X187644225Y-77443200D01*
X187344225Y-77743200D02*
X187644225Y-78043200D01*
X187644225Y-77443200D02*
X187644225Y-78043200D01*
X185844225Y-80993200D02*
X186444225Y-80993200D01*
X187144225Y-80343200D02*
X187144225Y-77543200D01*
X185844225Y-76893200D02*
G75*
G03*
X185144225Y-77593200I-1J-699999D01*
G01*
X186444225Y-80993200D02*
G75*
G03*
X187144225Y-80293200I1J699999D01*
G01*
X187144225Y-77593200D02*
G75*
G03*
X186444225Y-76893200I-699999J1D01*
G01*
X185144225Y-80293200D02*
G75*
G03*
X185844225Y-80993200I699999J-1D01*
G01*
X151997650Y-176316566D02*
X151997650Y-176009284D01*
X151237650Y-176316566D02*
X151237650Y-176009284D01*
X154180126Y-178371484D02*
X154180126Y-178678766D01*
X154940126Y-178371484D02*
X154940126Y-178678766D01*
X183310583Y-98004100D02*
X182836067Y-98004100D01*
X183310583Y-99049100D02*
X182836067Y-99049100D01*
X203325559Y-125475000D02*
X203632841Y-125475000D01*
X203325559Y-124715000D02*
X203632841Y-124715000D01*
X184855250Y-126906200D02*
X183455250Y-126906200D01*
X185555250Y-128206200D02*
X185555250Y-127606200D01*
X182755250Y-127606200D02*
X182755250Y-128206200D01*
X183455250Y-128906200D02*
X184855250Y-128906200D01*
X185555250Y-127606200D02*
G75*
G03*
X184855250Y-126906200I-699999J1D01*
G01*
X183455250Y-126906200D02*
G75*
G03*
X182755250Y-127606200I-1J-699999D01*
G01*
X182755250Y-128206200D02*
G75*
G03*
X183455250Y-128906200I699999J-1D01*
G01*
X184855250Y-128906200D02*
G75*
G03*
X185555250Y-128206200I1J699999D01*
G01*
X222307807Y-233432325D02*
X222307807Y-225372325D01*
X222307807Y-225372325D02*
X226827807Y-225372325D01*
X226827807Y-225372325D02*
X226827807Y-233432325D01*
X200207225Y-84512800D02*
X200207225Y-81962800D01*
X198507225Y-84512800D02*
X198507225Y-81962800D01*
X200207225Y-84512800D02*
X198507225Y-84512800D01*
X185555250Y-135267400D02*
X185555250Y-134667400D01*
X184855250Y-133967400D02*
X183455250Y-133967400D01*
X182755250Y-134667400D02*
X182755250Y-135267400D01*
X183455250Y-135967400D02*
X184855250Y-135967400D01*
X185555250Y-134667400D02*
G75*
G03*
X184855250Y-133967400I-699999J1D01*
G01*
X183455250Y-133967400D02*
G75*
G03*
X182755250Y-134667400I-1J-699999D01*
G01*
X184855250Y-135967400D02*
G75*
G03*
X185555250Y-135267400I1J699999D01*
G01*
X182755250Y-135267400D02*
G75*
G03*
X183455250Y-135967400I699999J-1D01*
G01*
X253803374Y-183663484D02*
X253803374Y-183970766D01*
X253043374Y-183663484D02*
X253043374Y-183970766D01*
X220156300Y-198738258D02*
X220156300Y-198263742D01*
X219111300Y-198738258D02*
X219111300Y-198263742D01*
X214982600Y-127432453D02*
X214382600Y-127432453D01*
X214382600Y-130232453D02*
X214982600Y-130232453D01*
X213682600Y-128132453D02*
X213682600Y-129532453D01*
X215682600Y-129532453D02*
X215682600Y-128132453D01*
X214382600Y-127432453D02*
G75*
G03*
X213682600Y-128132453I-1J-699999D01*
G01*
X215682600Y-128132453D02*
G75*
G03*
X214982600Y-127432453I-699999J1D01*
G01*
X213682600Y-129532453D02*
G75*
G03*
X214382600Y-130232453I699999J-1D01*
G01*
X214982600Y-130232453D02*
G75*
G03*
X215682600Y-129532453I1J699999D01*
G01*
X224187807Y-235916441D02*
X224187807Y-235609159D01*
X224947807Y-235916441D02*
X224947807Y-235609159D01*
X190467725Y-71724800D02*
X190467725Y-71124800D01*
X189767725Y-70424800D02*
X188367725Y-70424800D01*
X187667725Y-71124800D02*
X187667725Y-71724800D01*
X188367725Y-72424800D02*
X189767725Y-72424800D01*
X190467725Y-71124800D02*
G75*
G03*
X189767725Y-70424800I-699999J1D01*
G01*
X189767725Y-72424800D02*
G75*
G03*
X190467725Y-71724800I1J699999D01*
G01*
X188367725Y-70424800D02*
G75*
G03*
X187667725Y-71124800I-1J-699999D01*
G01*
X187667725Y-71724800D02*
G75*
G03*
X188367725Y-72424800I699999J-1D01*
G01*
D12*
X190253800Y-129012453D02*
X189028800Y-129012453D01*
X190253800Y-125887453D02*
X190253800Y-126187453D01*
X190253800Y-125887453D02*
X193603800Y-125887453D01*
X190253800Y-129237453D02*
X193603800Y-129237453D01*
X193603800Y-129237453D02*
X193603800Y-128937453D01*
X193603800Y-125887453D02*
X193603800Y-126187453D01*
X190253800Y-129237453D02*
X190253800Y-129012453D01*
D10*
X208863725Y-77560400D02*
X208863725Y-76160400D01*
X206863725Y-76160400D02*
X206863725Y-77560400D01*
X208163725Y-75460400D02*
X207563725Y-75460400D01*
X207563725Y-78260400D02*
X208163725Y-78260400D01*
X206863725Y-77560400D02*
G75*
G03*
X207563725Y-78260400I699999J-1D01*
G01*
X208863725Y-76160400D02*
G75*
G03*
X208163725Y-75460400I-699999J1D01*
G01*
X208163725Y-78260400D02*
G75*
G03*
X208863725Y-77560400I1J699999D01*
G01*
X207563725Y-75460400D02*
G75*
G03*
X206863725Y-76160400I-1J-699999D01*
G01*
D11*
X164506775Y-177745525D02*
X164506775Y-165745525D01*
D10*
X212240959Y-127657476D02*
X212548241Y-127657476D01*
X212240959Y-128417476D02*
X212548241Y-128417476D01*
X257869250Y-179222725D02*
X258469250Y-179222725D01*
X258469250Y-176422725D02*
X257869250Y-176422725D01*
X259169250Y-178522725D02*
X259169250Y-177122725D01*
X257169250Y-177122725D02*
X257169250Y-178522725D01*
X257869250Y-176422725D02*
G75*
G03*
X257169250Y-177122725I-1J-699999D01*
G01*
X259169250Y-177122725D02*
G75*
G03*
X258469250Y-176422725I-699999J1D01*
G01*
X258469250Y-179222725D02*
G75*
G03*
X259169250Y-178522725I1J699999D01*
G01*
X257169250Y-178522725D02*
G75*
G03*
X257869250Y-179222725I699999J-1D01*
G01*
X210253748Y-118391000D02*
X210776252Y-118391000D01*
X210253748Y-119861000D02*
X210776252Y-119861000D01*
X162490050Y-198117275D02*
X162490050Y-196717275D01*
X160490050Y-196717275D02*
X160490050Y-198117275D01*
X161790050Y-196017275D02*
X161190050Y-196017275D01*
X161190050Y-198817275D02*
X161790050Y-198817275D01*
X160490050Y-198117275D02*
G75*
G03*
X161190050Y-198817275I699999J-1D01*
G01*
X162490050Y-196717275D02*
G75*
G03*
X161790050Y-196017275I-699999J1D01*
G01*
X161790050Y-198817275D02*
G75*
G03*
X162490050Y-198117275I1J699999D01*
G01*
X161190050Y-196017275D02*
G75*
G03*
X160490050Y-196717275I-1J-699999D01*
G01*
X256745850Y-178608884D02*
X256745850Y-178916166D01*
X255985850Y-178608884D02*
X255985850Y-178916166D01*
D11*
X186876725Y-165745525D02*
X186876725Y-177745525D01*
D10*
X152689103Y-184587884D02*
X152689103Y-184895166D01*
X153449103Y-184587884D02*
X153449103Y-184895166D01*
X155026579Y-182319200D02*
X154701021Y-182319200D01*
X155026579Y-183339200D02*
X154701021Y-183339200D01*
X190862142Y-199903900D02*
X191336658Y-199903900D01*
X190862142Y-198858900D02*
X191336658Y-198858900D01*
X196984641Y-126166453D02*
X196677359Y-126166453D01*
X196984641Y-126926453D02*
X196677359Y-126926453D01*
X259478250Y-182367925D02*
X259478250Y-184917925D01*
X259478250Y-182367925D02*
X261178250Y-182367925D01*
X261178250Y-182367925D02*
X261178250Y-184917925D01*
X183193458Y-161888700D02*
X182718942Y-161888700D01*
X183193458Y-160843700D02*
X182718942Y-160843700D01*
X210622836Y-117966246D02*
X210407164Y-117966246D01*
X210622836Y-117246246D02*
X210407164Y-117246246D01*
X144913650Y-171318777D02*
X144913650Y-170796273D01*
X146383650Y-171318777D02*
X146383650Y-170796273D01*
X255089550Y-157100917D02*
X255089550Y-157575433D01*
X256134550Y-157100917D02*
X256134550Y-157575433D01*
X205869800Y-123591600D02*
X205869800Y-122991600D01*
X203769800Y-124291600D02*
X205169800Y-124291600D01*
X205169800Y-122291600D02*
X203769800Y-122291600D01*
X203069800Y-122991600D02*
X203069800Y-123591600D01*
X205869800Y-122991600D02*
G75*
G03*
X205169800Y-122291600I-699999J1D01*
G01*
X203069800Y-123591600D02*
G75*
G03*
X203769800Y-124291600I699999J-1D01*
G01*
X205169800Y-124291600D02*
G75*
G03*
X205869800Y-123591600I1J699999D01*
G01*
X203769800Y-122291600D02*
G75*
G03*
X203069800Y-122991600I-1J-699999D01*
G01*
X181916125Y-89646000D02*
X183316125Y-89646000D01*
X181216125Y-88346000D02*
X181216125Y-88946000D01*
X183316125Y-87646000D02*
X181916125Y-87646000D01*
X184016125Y-88946000D02*
X184016125Y-88346000D01*
X183316125Y-89646000D02*
G75*
G03*
X184016125Y-88946000I1J699999D01*
G01*
X181216125Y-88946000D02*
G75*
G03*
X181916125Y-89646000I699999J-1D01*
G01*
X181916125Y-87646000D02*
G75*
G03*
X181216125Y-88346000I-1J-699999D01*
G01*
X184016125Y-88346000D02*
G75*
G03*
X183316125Y-87646000I-699999J1D01*
G01*
D11*
X216569400Y-122129000D02*
X217469400Y-122129000D01*
X216569400Y-126029000D02*
X217469400Y-126029000D01*
D10*
X188316925Y-98815400D02*
X189716925Y-98815400D01*
X189716925Y-96815400D02*
X188316925Y-96815400D01*
X187616925Y-97515400D02*
X187616925Y-98115400D01*
X190416925Y-98115400D02*
X190416925Y-97515400D01*
X188316925Y-96815400D02*
G75*
G03*
X187616925Y-97515400I-1J-699999D01*
G01*
X189716925Y-98815400D02*
G75*
G03*
X190416925Y-98115400I1J699999D01*
G01*
X190416925Y-97515400D02*
G75*
G03*
X189716925Y-96815400I-699999J1D01*
G01*
X187616925Y-98115400D02*
G75*
G03*
X188316925Y-98815400I699999J-1D01*
G01*
X144488896Y-170949689D02*
X144488896Y-171165361D01*
X143768896Y-170949689D02*
X143768896Y-171165361D01*
D12*
X255573397Y-166956725D02*
X255273397Y-166956725D01*
X252223397Y-166956725D02*
X252523397Y-166956725D01*
X252448397Y-163606725D02*
X252448397Y-162381725D01*
X252223397Y-163606725D02*
X252223397Y-166956725D01*
X255573397Y-163606725D02*
X255273397Y-163606725D01*
X255573397Y-163606725D02*
X255573397Y-166956725D01*
X252223397Y-163606725D02*
X252448397Y-163606725D01*
D10*
X198736425Y-87686400D02*
G75*
G03*
X198736425Y-87686400I-700000J0D01*
G01*
X212131400Y-130704525D02*
G75*
G03*
X212131400Y-130704525I-700000J0D01*
G01*
X206394925Y-77704836D02*
X206394925Y-77489164D01*
X205674925Y-77704836D02*
X205674925Y-77489164D01*
X253518397Y-170337566D02*
X253518397Y-170030284D01*
X254278397Y-170337566D02*
X254278397Y-170030284D01*
X253803374Y-174623566D02*
X253803374Y-174316284D01*
X253043374Y-174623566D02*
X253043374Y-174316284D01*
X208167525Y-82826159D02*
X208167525Y-83133441D01*
X207407525Y-82826159D02*
X207407525Y-83133441D01*
X210110125Y-103946200D02*
X211510125Y-103946200D01*
X212210125Y-103246200D02*
X212210125Y-102646200D01*
X211510125Y-101946200D02*
X210110125Y-101946200D01*
X209410125Y-102646200D02*
X209410125Y-103246200D01*
X211510125Y-103946200D02*
G75*
G03*
X212210125Y-103246200I1J699999D01*
G01*
X209410125Y-103246200D02*
G75*
G03*
X210110125Y-103946200I699999J-1D01*
G01*
X210110125Y-101946200D02*
G75*
G03*
X209410125Y-102646200I-1J-699999D01*
G01*
X212210125Y-102646200D02*
G75*
G03*
X211510125Y-101946200I-699999J1D01*
G01*
X207407525Y-84756559D02*
X207407525Y-85063841D01*
X208167525Y-84756559D02*
X208167525Y-85063841D01*
X183747992Y-125326300D02*
X184222508Y-125326300D01*
X183747992Y-126371300D02*
X184222508Y-126371300D01*
X253043374Y-180416766D02*
X253043374Y-180109484D01*
X253803374Y-180416766D02*
X253803374Y-180109484D01*
X208167525Y-88617359D02*
X208167525Y-88924641D01*
X207407525Y-88617359D02*
X207407525Y-88924641D01*
X153775903Y-164660961D02*
X153775903Y-164445289D01*
X154495903Y-164660961D02*
X154495903Y-164445289D01*
X208482925Y-84742959D02*
X208482925Y-85050241D01*
X209242925Y-84742959D02*
X209242925Y-85050241D01*
X200844625Y-87686400D02*
G75*
G03*
X200844625Y-87686400I-700000J0D01*
G01*
X224146342Y-193384700D02*
X224620858Y-193384700D01*
X224146342Y-192339700D02*
X224620858Y-192339700D01*
X209015000Y-120282600D02*
X211565000Y-120282600D01*
X209015000Y-121982600D02*
X211565000Y-121982600D01*
X209015000Y-121982600D02*
X209015000Y-120282600D01*
X201315600Y-194281600D02*
X200715600Y-194281600D01*
X200715600Y-197081600D02*
X201315600Y-197081600D01*
X202015600Y-196381600D02*
X202015600Y-194981600D01*
X200015600Y-194981600D02*
X200015600Y-196381600D01*
X202015600Y-194981600D02*
G75*
G03*
X201315600Y-194281600I-699999J1D01*
G01*
X200015600Y-196381600D02*
G75*
G03*
X200715600Y-197081600I699999J-1D01*
G01*
X200715600Y-194281600D02*
G75*
G03*
X200015600Y-194981600I-1J-699999D01*
G01*
X201315600Y-197081600D02*
G75*
G03*
X202015600Y-196381600I1J699999D01*
G01*
X190416925Y-95550000D02*
X190416925Y-94950000D01*
X188316925Y-96250000D02*
X189716925Y-96250000D01*
X189716925Y-94250000D02*
X188316925Y-94250000D01*
X187616925Y-94950000D02*
X187616925Y-95550000D01*
X189716925Y-96250000D02*
G75*
G03*
X190416925Y-95550000I1J699999D01*
G01*
X188316925Y-94250000D02*
G75*
G03*
X187616925Y-94950000I-1J-699999D01*
G01*
X190416925Y-94950000D02*
G75*
G03*
X189716925Y-94250000I-699999J1D01*
G01*
X187616925Y-95550000D02*
G75*
G03*
X188316925Y-96250000I699999J-1D01*
G01*
X209130000Y-126447000D02*
X208655000Y-126447000D01*
X211900000Y-122727000D02*
X212375000Y-122727000D01*
X212375000Y-126447000D02*
X212375000Y-125972000D01*
X208655000Y-122727000D02*
X208655000Y-123202000D01*
X211900000Y-126447000D02*
X212375000Y-126447000D01*
X209130000Y-122727000D02*
X208655000Y-122727000D01*
X208655000Y-126447000D02*
X208655000Y-125972000D01*
X205428325Y-63950840D02*
X205428325Y-63350840D01*
X202628325Y-63350840D02*
X202628325Y-63950840D01*
X203328325Y-64650840D02*
X204728325Y-64650840D01*
X204728325Y-62650840D02*
X203328325Y-62650840D01*
X205428325Y-63350840D02*
G75*
G03*
X204728325Y-62650840I-699999J1D01*
G01*
X203328325Y-62650840D02*
G75*
G03*
X202628325Y-63350840I-1J-699999D01*
G01*
X202628325Y-63950840D02*
G75*
G03*
X203328325Y-64650840I699999J-1D01*
G01*
X204728325Y-64650840D02*
G75*
G03*
X205428325Y-63950840I1J699999D01*
G01*
X215478579Y-174394400D02*
X215153021Y-174394400D01*
X215478579Y-175414400D02*
X215153021Y-175414400D01*
X216458800Y-196555800D02*
X215658800Y-196555800D01*
X216458800Y-193435800D02*
X218258800Y-193435800D01*
X216458800Y-193435800D02*
X215658800Y-193435800D01*
X216458800Y-196555800D02*
X217258800Y-196555800D01*
X216911564Y-127973253D02*
X217127236Y-127973253D01*
X216911564Y-127253253D02*
X217127236Y-127253253D01*
D11*
X210798325Y-178441589D02*
X197198325Y-178441589D01*
D13*
X200898325Y-178941589D02*
X200898325Y-178941589D01*
D11*
X197198325Y-165041589D02*
X197198325Y-167541589D01*
X210798325Y-167541589D02*
X210798325Y-165041589D01*
X210798325Y-165041589D02*
X197198325Y-165041589D01*
D13*
X200698325Y-178941589D02*
X200698325Y-178941589D01*
X200898325Y-178941589D02*
G75*
G03*
X200698325Y-178941589I-100000J0D01*
G01*
X200698325Y-178941589D02*
G75*
G03*
X200898325Y-178941589I100000J0D01*
G01*
D10*
X213638400Y-184592000D02*
X213638400Y-189992000D01*
X210338400Y-184592000D02*
X213638400Y-184592000D01*
X210338400Y-184592000D02*
X210338400Y-189992000D01*
X203201041Y-128417476D02*
X202893759Y-128417476D01*
X203201041Y-127657476D02*
X202893759Y-127657476D01*
X224832142Y-162015700D02*
X225306658Y-162015700D01*
X224832142Y-160970700D02*
X225306658Y-160970700D01*
X209401925Y-79857600D02*
G75*
G03*
X209401925Y-79857600I-700000J0D01*
G01*
X164069950Y-197824533D02*
X164069950Y-197350017D01*
X163024950Y-197824533D02*
X163024950Y-197350017D01*
X146453903Y-175729125D02*
G75*
G03*
X146453903Y-175729125I-700000J0D01*
G01*
D14*
X185762007Y-223204725D02*
X185762007Y-222204725D01*
X185762007Y-222204725D02*
X221162007Y-222204725D01*
X221162007Y-239204725D02*
X221162007Y-240204725D01*
X185762007Y-240204725D02*
X221162007Y-240204725D01*
X221162007Y-222204725D02*
X221162007Y-223204725D01*
X185762007Y-239204725D02*
X185762007Y-240204725D01*
D10*
X251456325Y-184784325D02*
G75*
G03*
X251456325Y-184784325I-700000J0D01*
G01*
X146631703Y-177913525D02*
G75*
G03*
X146631703Y-177913525I-700000J0D01*
G01*
X149249650Y-172917525D02*
X149724650Y-172917525D01*
X152969650Y-169672525D02*
X152969650Y-169197525D01*
X152969650Y-172442525D02*
X152969650Y-172917525D01*
X149249650Y-172442525D02*
X149249650Y-172917525D01*
X152969650Y-169197525D02*
X152494650Y-169197525D01*
X152969650Y-172917525D02*
X152494650Y-172917525D01*
X149249650Y-169672525D02*
X149249650Y-169197525D01*
D11*
X197806325Y-159524325D02*
X185806325Y-159524325D01*
D10*
X204874825Y-84372400D02*
X204874825Y-84847400D01*
X204874825Y-81602400D02*
X204874825Y-81127400D01*
X201154825Y-84372400D02*
X201154825Y-84847400D01*
X201154825Y-81602400D02*
X201154825Y-81127400D01*
X201154825Y-84847400D02*
X201629825Y-84847400D01*
X204874825Y-84847400D02*
X204399825Y-84847400D01*
X204874825Y-81127400D02*
X204399825Y-81127400D01*
X154465103Y-184587884D02*
X154465103Y-184895166D01*
X153705103Y-184587884D02*
X153705103Y-184895166D01*
X199152425Y-77264348D02*
X199152425Y-77786852D01*
X197682425Y-77264348D02*
X197682425Y-77786852D01*
X191092000Y-132237453D02*
X190492000Y-132237453D01*
X190992000Y-129737453D02*
X188192000Y-129737453D01*
X190792000Y-131937453D02*
X191092000Y-132237453D01*
X190792000Y-131937453D02*
X190492000Y-132237453D01*
X187542000Y-130437453D02*
X187542000Y-131037453D01*
X191642000Y-131037453D02*
X191642000Y-130437453D01*
X188192000Y-131737453D02*
X190992000Y-131737453D01*
X188242000Y-129737453D02*
G75*
G03*
X187542000Y-130437453I-1J-699999D01*
G01*
X190942000Y-131737453D02*
G75*
G03*
X191642000Y-131037453I1J699999D01*
G01*
X191642000Y-130437453D02*
G75*
G03*
X190942000Y-129737453I-699999J1D01*
G01*
X187542000Y-131037453D02*
G75*
G03*
X188242000Y-131737453I699999J-1D01*
G01*
X196984641Y-127182453D02*
X196677359Y-127182453D01*
X196984641Y-127942453D02*
X196677359Y-127942453D01*
X203266800Y-214696800D02*
X203266800Y-216296800D01*
X205266800Y-216296800D02*
X205266800Y-215096800D01*
D11*
X215712125Y-184185925D02*
X223412125Y-184185925D01*
D10*
X249523397Y-168818525D02*
X249223397Y-168518525D01*
X249723397Y-166218525D02*
X249723397Y-169018525D01*
X250423397Y-169668525D02*
X251023397Y-169668525D01*
X249523397Y-168818525D02*
X249223397Y-169118525D01*
X249223397Y-169118525D02*
X249223397Y-168518525D01*
X251723397Y-169018525D02*
X251723397Y-166218525D01*
X251023397Y-165568525D02*
X250423397Y-165568525D01*
X251723397Y-166268525D02*
G75*
G03*
X251023397Y-165568525I-699999J1D01*
G01*
X251023397Y-169668525D02*
G75*
G03*
X251723397Y-168968525I1J699999D01*
G01*
X249723397Y-168968525D02*
G75*
G03*
X250423397Y-169668525I699999J-1D01*
G01*
X250423397Y-165568525D02*
G75*
G03*
X249723397Y-166268525I-1J-699999D01*
G01*
D11*
X148651650Y-165003125D02*
X148651650Y-164103125D01*
X152551650Y-165003125D02*
X152551650Y-164103125D01*
D12*
X184517225Y-81078200D02*
X184217225Y-81078200D01*
X184517225Y-84428200D02*
X184517225Y-81078200D01*
X184292225Y-84428200D02*
X184292225Y-85653200D01*
X184517225Y-84428200D02*
X184292225Y-84428200D01*
X181167225Y-84428200D02*
X181167225Y-81078200D01*
X181167225Y-84428200D02*
X181467225Y-84428200D01*
X181167225Y-81078200D02*
X181467225Y-81078200D01*
D10*
X190586579Y-133957600D02*
X190261021Y-133957600D01*
X190586579Y-134977600D02*
X190261021Y-134977600D01*
D11*
X259331850Y-189922325D02*
X259331850Y-190822325D01*
X255431850Y-189922325D02*
X255431850Y-190822325D01*
D10*
X212634300Y-215654658D02*
X212634300Y-215180142D01*
X213679300Y-215654658D02*
X213679300Y-215180142D01*
X181865325Y-75244200D02*
X183265325Y-75244200D01*
X183965325Y-74544200D02*
X183965325Y-73944200D01*
X183265325Y-73244200D02*
X181865325Y-73244200D01*
X181165325Y-73944200D02*
X181165325Y-74544200D01*
X181165325Y-74544200D02*
G75*
G03*
X181865325Y-75244200I699999J-1D01*
G01*
X181865325Y-73244200D02*
G75*
G03*
X181165325Y-73944200I-1J-699999D01*
G01*
X183965325Y-73944200D02*
G75*
G03*
X183265325Y-73244200I-699999J1D01*
G01*
X183265325Y-75244200D02*
G75*
G03*
X183965325Y-74544200I1J699999D01*
G01*
X253043374Y-178484366D02*
X253043374Y-178177084D01*
X253803374Y-178484366D02*
X253803374Y-178177084D01*
X157927175Y-170141125D02*
G75*
G03*
X157927175Y-170141125I-700000J0D01*
G01*
X195061621Y-163705000D02*
X195387179Y-163705000D01*
X195061621Y-162685000D02*
X195387179Y-162685000D01*
X263069850Y-183606673D02*
X263069850Y-184129177D01*
X261599850Y-183606673D02*
X261599850Y-184129177D01*
X182716225Y-77570359D02*
X182716225Y-77877641D01*
X183476225Y-77570359D02*
X183476225Y-77877641D01*
X246572821Y-166063200D02*
X246898379Y-166063200D01*
X246572821Y-167083200D02*
X246898379Y-167083200D01*
X145269250Y-165384073D02*
X145269250Y-165906577D01*
X146739250Y-165384073D02*
X146739250Y-165906577D01*
X207085552Y-80903359D02*
X207085552Y-81210641D01*
X206325552Y-80903359D02*
X206325552Y-81210641D01*
X262929597Y-179196325D02*
G75*
G03*
X262929597Y-179196325I-700000J0D01*
G01*
X154180126Y-174508684D02*
X154180126Y-174815966D01*
X154940126Y-174508684D02*
X154940126Y-174815966D01*
X195465600Y-131937453D02*
X195765600Y-132237453D01*
X195665600Y-129737453D02*
X192865600Y-129737453D01*
X195765600Y-132237453D02*
X195165600Y-132237453D01*
X195465600Y-131937453D02*
X195165600Y-132237453D01*
X192865600Y-131737453D02*
X195665600Y-131737453D01*
X196315600Y-131037453D02*
X196315600Y-130437453D01*
X192215600Y-130437453D02*
X192215600Y-131037453D01*
X195615600Y-131737453D02*
G75*
G03*
X196315600Y-131037453I1J699999D01*
G01*
X192915600Y-129737453D02*
G75*
G03*
X192215600Y-130437453I-1J-699999D01*
G01*
X192215600Y-131037453D02*
G75*
G03*
X192915600Y-131737453I699999J-1D01*
G01*
X196315600Y-130437453D02*
G75*
G03*
X195615600Y-129737453I-699999J1D01*
G01*
X253854650Y-156108175D02*
X253254650Y-156108175D01*
X254554650Y-158208175D02*
X254554650Y-156808175D01*
X252554650Y-156808175D02*
X252554650Y-158208175D01*
X253254650Y-158908175D02*
X253854650Y-158908175D01*
X254554650Y-156808175D02*
G75*
G03*
X253854650Y-156108175I-699999J1D01*
G01*
X252554650Y-158208175D02*
G75*
G03*
X253254650Y-158908175I699999J-1D01*
G01*
X253854650Y-158908175D02*
G75*
G03*
X254554650Y-158208175I1J699999D01*
G01*
X253254650Y-156108175D02*
G75*
G03*
X252554650Y-156808175I-1J-699999D01*
G01*
X216188452Y-120216600D02*
X215665948Y-120216600D01*
X216188452Y-118746600D02*
X215665948Y-118746600D01*
X154940126Y-171261966D02*
X154940126Y-170954684D01*
X154180126Y-171261966D02*
X154180126Y-170954684D01*
X197829700Y-191954658D02*
X197829700Y-191480142D01*
X196784700Y-191954658D02*
X196784700Y-191480142D01*
D11*
X243476725Y-165745525D02*
X243476725Y-177745525D01*
D10*
X261244250Y-189541377D02*
X261244250Y-189018873D01*
X262714250Y-189541377D02*
X262714250Y-189018873D01*
X153428850Y-196717275D02*
X153428850Y-198117275D01*
X155428850Y-198117275D02*
X155428850Y-196717275D01*
X154128850Y-198817275D02*
X154728850Y-198817275D01*
X154728850Y-196017275D02*
X154128850Y-196017275D01*
X153428850Y-198117275D02*
G75*
G03*
X154128850Y-198817275I699999J-1D01*
G01*
X154728850Y-198817275D02*
G75*
G03*
X155428850Y-198117275I1J699999D01*
G01*
X154128850Y-196017275D02*
G75*
G03*
X153428850Y-196717275I-1J-699999D01*
G01*
X155428850Y-196717275D02*
G75*
G03*
X154728850Y-196017275I-699999J1D01*
G01*
X244958550Y-157100917D02*
X244958550Y-157575433D01*
X243913550Y-157100917D02*
X243913550Y-157575433D01*
X187138542Y-134990100D02*
X187613058Y-134990100D01*
X187138542Y-133945100D02*
X187613058Y-133945100D01*
X253043374Y-185593884D02*
X253043374Y-185901166D01*
X253803374Y-185593884D02*
X253803374Y-185901166D01*
X253043374Y-176553966D02*
X253043374Y-176246684D01*
X253803374Y-176553966D02*
X253803374Y-176246684D01*
X206123000Y-198373620D02*
X206123000Y-198654780D01*
X205103000Y-198373620D02*
X205103000Y-198654780D01*
X203036700Y-198751458D02*
X203036700Y-198276942D01*
X201991700Y-198751458D02*
X201991700Y-198276942D01*
X206935800Y-197995800D02*
X206935800Y-198195800D01*
X213535800Y-198195800D02*
X213535800Y-197995800D01*
X213535800Y-191995800D02*
X213535800Y-191795800D01*
X206935800Y-191795800D02*
X206935800Y-191995800D01*
X213535800Y-191795800D02*
X206935800Y-191795800D01*
X206935800Y-198195800D02*
X213535800Y-198195800D01*
X151848950Y-197824533D02*
X151848950Y-197350017D01*
X152893950Y-197824533D02*
X152893950Y-197350017D01*
X149514250Y-178502725D02*
X150114250Y-178502725D01*
X148814250Y-176402725D02*
X148814250Y-177802725D01*
X150114250Y-175702725D02*
X149514250Y-175702725D01*
X150814250Y-177802725D02*
X150814250Y-176402725D01*
X148814250Y-177802725D02*
G75*
G03*
X149514250Y-178502725I699999J-1D01*
G01*
X150814250Y-176402725D02*
G75*
G03*
X150114250Y-175702725I-699999J1D01*
G01*
X150114250Y-178502725D02*
G75*
G03*
X150814250Y-177802725I1J699999D01*
G01*
X149514250Y-175702725D02*
G75*
G03*
X148814250Y-176402725I-1J-699999D01*
G01*
X255985850Y-176678484D02*
X255985850Y-176985766D01*
X256745850Y-176678484D02*
X256745850Y-176985766D01*
%LPC*%
D15*
X183648325Y-157112725D03*
X190563296Y-164027696D03*
X183648325Y-101789200D03*
X183648325Y-61089200D03*
D16*
X218708325Y-213175725D03*
X224488325Y-213175725D03*
D17*
X225918325Y-209525725D03*
X217278325Y-209525725D03*
D18*
X217278325Y-213705725D03*
X225918325Y-213705725D03*
D15*
X224348325Y-101789200D03*
X217433354Y-164027696D03*
D19*
X185648325Y-148302725D03*
X186398325Y-148302725D03*
X187148325Y-149802725D03*
X187898325Y-148302725D03*
X185648325Y-149802725D03*
X184148325Y-149802725D03*
X186398325Y-149802725D03*
X184898325Y-149802725D03*
X188648325Y-148302725D03*
X187898325Y-149802725D03*
X188648325Y-149802725D03*
X184898325Y-148302725D03*
X187148325Y-148302725D03*
X184148325Y-148302725D03*
X184148325Y-112202725D03*
X188648325Y-110702725D03*
X187898325Y-112202725D03*
X187148325Y-112202725D03*
X186398325Y-110702725D03*
X184898325Y-110702725D03*
X184148325Y-110702725D03*
X187898325Y-110702725D03*
X184898325Y-112202725D03*
X187148325Y-110702725D03*
X185648325Y-110702725D03*
X188648325Y-112202725D03*
X186398325Y-112202725D03*
X185648325Y-112202725D03*
D20*
X223609800Y-131452525D03*
D21*
X184609800Y-131452525D03*
D20*
X157975175Y-157919000D03*
D22*
X157975175Y-196919000D03*
D23*
X207998325Y-71439200D03*
X207998325Y-91439200D03*
D19*
X176330325Y-196562725D03*
X174830325Y-196562725D03*
X174830325Y-195812725D03*
X174830325Y-193562725D03*
X176330325Y-194312725D03*
X176330325Y-193562725D03*
X176330325Y-195812725D03*
X176330325Y-197312725D03*
X174830325Y-195062725D03*
X174830325Y-192812725D03*
X176330325Y-195062725D03*
X174830325Y-197312725D03*
X174830325Y-194312725D03*
X176330325Y-192812725D03*
D24*
X209078325Y-68844800D03*
X198918325Y-68844800D03*
X203998325Y-68844800D03*
D19*
X233152325Y-161362725D03*
X233152325Y-158362725D03*
X231652325Y-160612725D03*
X231652325Y-162112725D03*
X231652325Y-161362725D03*
X231652325Y-159862725D03*
X233152325Y-160612725D03*
X233152325Y-162112725D03*
X233152325Y-159862725D03*
X231652325Y-158362725D03*
X231652325Y-159112725D03*
X233152325Y-157612725D03*
X231652325Y-157612725D03*
X233152325Y-159112725D03*
D23*
X215998325Y-80189200D03*
X215998325Y-60189200D03*
D15*
X217433354Y-190897754D03*
D25*
X192998325Y-220002725D03*
D15*
X224348325Y-197812725D03*
D20*
X250008325Y-196962725D03*
D26*
X250008325Y-157962725D03*
D19*
X223848325Y-112202725D03*
X219348325Y-110702725D03*
X221598325Y-112202725D03*
X222348325Y-112202725D03*
X220098325Y-110702725D03*
X222348325Y-110702725D03*
X220848325Y-110702725D03*
X220848325Y-112202725D03*
X219348325Y-112202725D03*
X223098325Y-112202725D03*
X223848325Y-110702725D03*
X220098325Y-112202725D03*
X221598325Y-110702725D03*
X223098325Y-110702725D03*
D15*
X224348325Y-157112725D03*
D23*
X215998325Y-102689200D03*
X215998325Y-82689200D03*
D27*
X185106525Y-209885125D03*
D28*
X187646525Y-209885125D03*
D19*
X223098325Y-148302725D03*
X221598325Y-148302725D03*
X220848325Y-148302725D03*
X223098325Y-149802725D03*
X219348325Y-148302725D03*
X223848325Y-149802725D03*
X222348325Y-149802725D03*
X219348325Y-149802725D03*
X222348325Y-148302725D03*
X221598325Y-149802725D03*
X220098325Y-148302725D03*
X223848325Y-148302725D03*
X220848325Y-149802725D03*
X220098325Y-149802725D03*
D15*
X190563296Y-190897754D03*
D19*
X233152325Y-192812725D03*
X233152325Y-195812725D03*
X233152325Y-197312725D03*
X231652325Y-194312725D03*
X231652325Y-195062725D03*
X231652325Y-197312725D03*
X231652325Y-193562725D03*
X231652325Y-195812725D03*
X233152325Y-193562725D03*
X233152325Y-196562725D03*
X233152325Y-195062725D03*
X231652325Y-196562725D03*
X233152325Y-194312725D03*
X231652325Y-192812725D03*
D23*
X191998325Y-60189200D03*
X191998325Y-80189200D03*
D15*
X183648325Y-197812725D03*
D24*
X208767600Y-94135875D03*
X198607600Y-94135875D03*
X203687600Y-94135875D03*
D15*
X224348325Y-61089200D03*
D19*
X203248325Y-205112725D03*
X206248325Y-206612725D03*
X206248325Y-205112725D03*
X202498325Y-205112725D03*
X205498325Y-206612725D03*
X203998325Y-206612725D03*
X204748325Y-206612725D03*
X205498325Y-205112725D03*
X202498325Y-206612725D03*
X203998325Y-205112725D03*
X201748325Y-206612725D03*
X203248325Y-206612725D03*
X204748325Y-205112725D03*
X201748325Y-205112725D03*
D25*
X214998325Y-219962725D03*
D23*
X191998325Y-82689200D03*
X191998325Y-102689200D03*
X183998325Y-91439200D03*
X183998325Y-71439200D03*
D19*
X176328325Y-159862725D03*
X174828325Y-159112725D03*
X174828325Y-162112725D03*
X174828325Y-159862725D03*
X176328325Y-161362725D03*
X174828325Y-158362725D03*
X174828325Y-161362725D03*
X174828325Y-157612725D03*
X176328325Y-157612725D03*
X176328325Y-159112725D03*
X174828325Y-160612725D03*
X176328325Y-160612725D03*
X176328325Y-158362725D03*
X176328325Y-162112725D03*
D23*
X223998325Y-71439200D03*
X223998325Y-91439200D03*
D25*
X186998325Y-219962725D03*
D23*
X199998325Y-91439200D03*
X199998325Y-71439200D03*
D29*
X206538325Y-162407125D03*
X201458325Y-163423125D03*
X201458325Y-161391125D03*
D25*
X220998325Y-219962725D03*
D30*
X157260103Y-186006925D03*
D31*
X157260103Y-187306925D03*
D32*
X157260103Y-188606925D03*
D33*
X212679400Y-99254600D03*
X213179400Y-99254600D03*
X213679400Y-99254600D03*
X214179400Y-99254600D03*
X214679400Y-99254600D03*
X215179400Y-99254600D03*
X215679400Y-99254600D03*
X216179400Y-99254600D03*
X216679400Y-99254600D03*
X217179400Y-99254600D03*
X217679400Y-99254600D03*
X218179400Y-99254600D03*
X218679400Y-99254600D03*
X219179400Y-99254600D03*
X219679400Y-99254600D03*
D34*
X210379400Y-96554600D03*
X221979400Y-96554600D03*
D35*
X195852025Y-82522600D03*
X195852025Y-83482600D03*
D36*
X197350625Y-83962800D03*
X197350625Y-82062800D03*
D30*
X157260103Y-190680525D03*
D31*
X157260103Y-191980525D03*
D32*
X157260103Y-193280525D03*
D37*
X183898325Y-93878400D03*
X182248325Y-93878400D03*
D38*
X154560126Y-169687925D03*
X154560126Y-168667925D03*
X151617650Y-178603325D03*
X151617650Y-177583325D03*
D39*
X217984600Y-197942200D03*
X215034600Y-197942200D03*
D40*
X257873850Y-185555425D03*
X257373850Y-185555425D03*
X256873850Y-185555425D03*
X256373850Y-185555425D03*
X255873850Y-185555425D03*
D41*
X255186350Y-184867925D03*
X255186350Y-184367925D03*
X255186350Y-183867925D03*
X255186350Y-183367925D03*
X255186350Y-182867925D03*
D40*
X255873850Y-182180425D03*
X256373850Y-182180425D03*
X256873850Y-182180425D03*
X257373850Y-182180425D03*
X257873850Y-182180425D03*
D41*
X258561350Y-182867925D03*
X258561350Y-183367925D03*
X258561350Y-183867925D03*
X258561350Y-184367925D03*
X258561350Y-184867925D03*
D42*
X256873850Y-183867925D03*
D43*
X203012325Y-87807800D03*
D44*
X203012325Y-89107800D03*
D45*
X212471000Y-88493700D03*
X212471000Y-86918700D03*
D46*
X209954200Y-128037476D03*
X210974200Y-128037476D03*
D47*
X220167200Y-193165200D03*
X220167200Y-196115200D03*
D48*
X207787525Y-86330600D03*
X207787525Y-87350600D03*
D49*
X251978397Y-188035525D03*
D50*
X253278397Y-188035525D03*
D51*
X203659000Y-119409053D03*
X205843400Y-119231253D03*
D48*
X182080225Y-77214000D03*
X182080225Y-78234000D03*
D46*
X204899600Y-125095000D03*
X205919600Y-125095000D03*
D48*
X205030200Y-212941682D03*
X205030200Y-213961682D03*
D33*
X187918925Y-188208854D03*
X188418925Y-188208854D03*
X188918925Y-188208854D03*
X189418925Y-188208854D03*
X189918925Y-188208854D03*
X190418925Y-188208854D03*
X190918925Y-188208854D03*
X191418925Y-188208854D03*
X191918925Y-188208854D03*
X192418925Y-188208854D03*
X192918925Y-188208854D03*
X193418925Y-188208854D03*
X193918925Y-188208854D03*
X194418925Y-188208854D03*
X194918925Y-188208854D03*
D34*
X185618925Y-185508854D03*
X197218925Y-185508854D03*
D52*
X155085103Y-191843725D03*
X154585103Y-191843725D03*
X154085103Y-191843725D03*
X153585103Y-191843725D03*
X153085103Y-191843725D03*
X153085103Y-187443725D03*
X153585103Y-187443725D03*
X154085103Y-187443725D03*
X154585103Y-187443725D03*
X155085103Y-187443725D03*
D35*
X253847597Y-189892325D03*
X253847597Y-190852325D03*
D53*
X205487800Y-128037476D03*
X204467800Y-128037476D03*
D48*
X154560126Y-179945525D03*
X154560126Y-180965525D03*
D49*
X224765125Y-88646000D03*
D50*
X226065125Y-88646000D03*
D54*
X221183200Y-197676000D03*
X221183200Y-199326000D03*
D55*
X250723397Y-164244925D03*
D31*
X250723397Y-162944925D03*
D56*
X250723397Y-161644925D03*
D57*
X190274400Y-197815200D03*
X191924400Y-197815200D03*
D33*
X194918925Y-211743925D03*
X194418925Y-211743925D03*
X193918925Y-211743925D03*
X193418925Y-211743925D03*
X192918925Y-211743925D03*
X192418925Y-211743925D03*
X191918925Y-211743925D03*
X191418925Y-211743925D03*
X190918925Y-211743925D03*
X190418925Y-211743925D03*
X189918925Y-211743925D03*
X189418925Y-211743925D03*
X188918925Y-211743925D03*
X188418925Y-211743925D03*
X187918925Y-211743925D03*
D34*
X197218925Y-214443925D03*
X185618925Y-214443925D03*
D58*
X156005103Y-166889925D03*
D59*
X154705103Y-166889925D03*
D60*
X216067925Y-63769000D03*
D61*
X216067925Y-62469000D03*
D60*
X246493450Y-158158175D03*
D61*
X246493450Y-156858175D03*
D38*
X254914397Y-170693925D03*
X254914397Y-169673925D03*
D60*
X220843125Y-82082400D03*
D61*
X220843125Y-80782400D03*
D62*
X205013600Y-196059000D03*
X203113600Y-196059000D03*
X204063600Y-193959000D03*
D63*
X211632800Y-216242400D03*
X211632800Y-214592400D03*
D64*
X202506825Y-77475600D03*
X202506825Y-74525600D03*
D53*
X207420200Y-128037476D03*
X206400200Y-128037476D03*
D49*
X190678325Y-85750400D03*
D50*
X191978325Y-85750400D03*
D33*
X219690325Y-155274325D03*
X219190325Y-155274325D03*
X218690325Y-155274325D03*
X218190325Y-155274325D03*
X217690325Y-155274325D03*
X217190325Y-155274325D03*
X216690325Y-155274325D03*
X216190325Y-155274325D03*
X215690325Y-155274325D03*
X215190325Y-155274325D03*
X214690325Y-155274325D03*
X214190325Y-155274325D03*
X213690325Y-155274325D03*
X213190325Y-155274325D03*
X212690325Y-155274325D03*
D34*
X221990325Y-157974325D03*
X210390325Y-157974325D03*
D65*
X202962000Y-158080800D03*
D66*
X204962000Y-158080800D03*
D48*
X208862925Y-82456200D03*
X208862925Y-83476200D03*
D63*
X204063600Y-199339200D03*
X204063600Y-197689200D03*
D48*
X206705552Y-82477400D03*
X206705552Y-83497400D03*
D33*
X220812125Y-211843925D03*
X220312125Y-211843925D03*
X219812125Y-211843925D03*
X219312125Y-211843925D03*
X218812125Y-211843925D03*
X218312125Y-211843925D03*
D34*
X223112125Y-214543925D03*
X216012125Y-214543925D03*
D33*
X188306325Y-142234125D03*
X188806325Y-142234125D03*
X189306325Y-142234125D03*
X189806325Y-142234125D03*
X190306325Y-142234125D03*
X190806325Y-142234125D03*
X191306325Y-142234125D03*
X191806325Y-142234125D03*
X192306325Y-142234125D03*
X192806325Y-142234125D03*
X193306325Y-142234125D03*
X193806325Y-142234125D03*
X194306325Y-142234125D03*
X194806325Y-142234125D03*
X195306325Y-142234125D03*
D34*
X186006325Y-139534125D03*
X197606325Y-139534125D03*
D67*
X147655250Y-172107525D03*
X147655250Y-170007525D03*
D68*
X225365600Y-175245525D03*
X225365600Y-174745525D03*
X225365600Y-174245525D03*
X225365600Y-173745525D03*
X225365600Y-173245525D03*
X225365600Y-172745525D03*
X225365600Y-172245525D03*
X225365600Y-171745525D03*
X225365600Y-171245525D03*
X225365600Y-170745525D03*
X225365600Y-170245525D03*
X225365600Y-169745525D03*
X225365600Y-169245525D03*
X225365600Y-168745525D03*
X225365600Y-168245525D03*
D69*
X222665600Y-177545525D03*
X222665600Y-165945525D03*
D51*
X262051797Y-177011925D03*
D62*
X198257200Y-196247200D03*
X196357200Y-196247200D03*
X197307200Y-194147200D03*
D70*
X263854604Y-184347925D03*
X263854604Y-183387925D03*
D48*
X154560126Y-176084725D03*
X154560126Y-177104725D03*
D43*
X191988725Y-99095800D03*
D44*
X191988725Y-100395800D03*
D60*
X227685600Y-82082400D03*
D61*
X227685600Y-80782400D03*
D53*
X201627000Y-128037476D03*
X200607000Y-128037476D03*
D30*
X186144225Y-82316800D03*
D31*
X186144225Y-83616800D03*
D32*
X186144225Y-84916800D03*
D30*
X186144225Y-77643200D03*
D31*
X186144225Y-78943200D03*
D32*
X186144225Y-80243200D03*
D38*
X151617650Y-176672925D03*
X151617650Y-175652925D03*
D48*
X154560126Y-178015125D03*
X154560126Y-179035125D03*
D37*
X183898325Y-98526600D03*
X182248325Y-98526600D03*
D46*
X202969200Y-125095000D03*
X203989200Y-125095000D03*
D49*
X183505250Y-127906200D03*
D50*
X184805250Y-127906200D03*
D71*
X224567807Y-226669825D03*
X224567807Y-232894825D03*
D67*
X199357225Y-84062800D03*
X199357225Y-81962800D03*
D58*
X184805250Y-134967400D03*
D59*
X183505250Y-134967400D03*
D48*
X253423374Y-183307125D03*
X253423374Y-184327125D03*
D63*
X219633800Y-199326000D03*
X219633800Y-197676000D03*
D60*
X214682600Y-129482453D03*
D61*
X214682600Y-128182453D03*
D38*
X224567807Y-236272800D03*
X224567807Y-235252800D03*
D58*
X189717725Y-71424800D03*
D59*
X188417725Y-71424800D03*
D72*
X189728800Y-128562453D03*
X189728800Y-128062453D03*
X189728800Y-127562453D03*
X189728800Y-127062453D03*
X189728800Y-126562453D03*
X194128800Y-126562453D03*
X194128800Y-127062453D03*
X194128800Y-127562453D03*
X194128800Y-128062453D03*
X194128800Y-128562453D03*
D43*
X207863725Y-76210400D03*
D44*
X207863725Y-77510400D03*
D68*
X168756775Y-175245525D03*
X168756775Y-174745525D03*
X168756775Y-174245525D03*
X168756775Y-173745525D03*
X168756775Y-173245525D03*
X168756775Y-172745525D03*
X168756775Y-172245525D03*
X168756775Y-171745525D03*
X168756775Y-171245525D03*
X168756775Y-170745525D03*
X168756775Y-170245525D03*
X168756775Y-169745525D03*
X168756775Y-169245525D03*
X168756775Y-168745525D03*
X168756775Y-168245525D03*
D69*
X166056775Y-177545525D03*
X166056775Y-165945525D03*
D46*
X211884600Y-128037476D03*
X212904600Y-128037476D03*
D60*
X258169250Y-178472725D03*
D61*
X258169250Y-177172725D03*
D73*
X209565000Y-119126000D03*
X211465000Y-119126000D03*
D43*
X161490050Y-196767275D03*
D44*
X161490050Y-198067275D03*
D48*
X256365850Y-178252525D03*
X256365850Y-179272525D03*
D68*
X182626725Y-168245525D03*
X182626725Y-168745525D03*
X182626725Y-169245525D03*
X182626725Y-169745525D03*
X182626725Y-170245525D03*
X182626725Y-170745525D03*
X182626725Y-171245525D03*
X182626725Y-171745525D03*
X182626725Y-172245525D03*
X182626725Y-172745525D03*
X182626725Y-173245525D03*
X182626725Y-173745525D03*
X182626725Y-174245525D03*
X182626725Y-174745525D03*
X182626725Y-175245525D03*
D69*
X185326725Y-165945525D03*
X185326725Y-177545525D03*
D48*
X153069103Y-184231525D03*
X153069103Y-185251525D03*
D74*
X155651300Y-182829200D03*
X154076300Y-182829200D03*
D57*
X190274400Y-199381400D03*
X191924400Y-199381400D03*
D53*
X197341000Y-126546453D03*
X196321000Y-126546453D03*
D67*
X260328250Y-182817925D03*
X260328250Y-184917925D03*
D37*
X183781200Y-161366200D03*
X182131200Y-161366200D03*
D75*
X210995000Y-117606246D03*
X210035000Y-117606246D03*
D36*
X145648650Y-172007525D03*
X145648650Y-170107525D03*
D54*
X255612050Y-156513175D03*
X255612050Y-158163175D03*
D58*
X205119800Y-123291600D03*
D59*
X203819800Y-123291600D03*
D49*
X181966125Y-88646000D03*
D50*
X183266125Y-88646000D03*
D76*
X215544400Y-124079000D03*
X218494400Y-124079000D03*
D58*
X189666925Y-97815400D03*
D59*
X188366925Y-97815400D03*
D35*
X144128896Y-170577525D03*
X144128896Y-171537525D03*
D52*
X252898397Y-163081725D03*
X253398397Y-163081725D03*
X253898397Y-163081725D03*
X254398397Y-163081725D03*
X254898397Y-163081725D03*
X254898397Y-167481725D03*
X254398397Y-167481725D03*
X253898397Y-167481725D03*
X253398397Y-167481725D03*
X252898397Y-167481725D03*
D51*
X198036425Y-87686400D03*
X211431400Y-130704525D03*
D70*
X206034925Y-78077000D03*
X206034925Y-77117000D03*
D38*
X253898397Y-170693925D03*
X253898397Y-169673925D03*
X253423374Y-174979925D03*
X253423374Y-173959925D03*
D48*
X207787525Y-82469800D03*
X207787525Y-83489800D03*
D58*
X211460125Y-102946200D03*
D59*
X210160125Y-102946200D03*
D48*
X207787525Y-84400200D03*
X207787525Y-85420200D03*
D57*
X183160250Y-125848800D03*
X184810250Y-125848800D03*
D38*
X253423374Y-180773125D03*
X253423374Y-179753125D03*
D48*
X207787525Y-88261000D03*
X207787525Y-89281000D03*
D70*
X154135903Y-165033125D03*
X154135903Y-164073125D03*
D48*
X208862925Y-84386600D03*
X208862925Y-85406600D03*
D51*
X200144625Y-87686400D03*
D57*
X223558600Y-192862200D03*
X225208600Y-192862200D03*
D77*
X209465000Y-121132600D03*
X211565000Y-121132600D03*
D60*
X201015600Y-196331600D03*
D61*
X201015600Y-195031600D03*
D58*
X189666925Y-95250000D03*
D59*
X188366925Y-95250000D03*
D78*
X212202500Y-123587000D03*
X212202500Y-124087000D03*
X212202500Y-124587000D03*
X212202500Y-125087000D03*
X212202500Y-125587000D03*
D79*
X211515000Y-126274500D03*
X211015000Y-126274500D03*
X210515000Y-126274500D03*
X210015000Y-126274500D03*
X209515000Y-126274500D03*
D78*
X208827500Y-125587000D03*
X208827500Y-125087000D03*
X208827500Y-124587000D03*
X208827500Y-124087000D03*
X208827500Y-123587000D03*
D79*
X209515000Y-122899500D03*
X210015000Y-122899500D03*
X210515000Y-122899500D03*
X211015000Y-122899500D03*
X211515000Y-122899500D03*
D42*
X210515000Y-124587000D03*
D49*
X203378325Y-63650840D03*
D50*
X204678325Y-63650840D03*
D74*
X216103300Y-174904400D03*
X214528300Y-174904400D03*
D80*
X217596300Y-194045800D03*
X217596300Y-194995800D03*
X217596300Y-195945800D03*
X215321300Y-195945800D03*
X215321300Y-194995800D03*
X215321300Y-194045800D03*
D81*
X216539400Y-127613253D03*
X217499400Y-127613253D03*
D82*
X200798325Y-174491589D03*
X201898325Y-174491589D03*
X202998325Y-174491589D03*
X204098325Y-174491589D03*
X205198325Y-174491589D03*
X206298325Y-174491589D03*
X207398325Y-174491589D03*
X208498325Y-174491589D03*
D83*
X210873325Y-177091589D03*
X197123325Y-177091589D03*
X197123325Y-168791589D03*
X210873325Y-168791589D03*
D84*
X211988400Y-185992000D03*
X211988400Y-189992000D03*
D53*
X203557400Y-128037476D03*
X202537400Y-128037476D03*
D57*
X224244400Y-161493200D03*
X225894400Y-161493200D03*
D51*
X208701925Y-79857600D03*
D63*
X163547450Y-198412275D03*
X163547450Y-196762275D03*
D51*
X145753903Y-175729125D03*
D85*
X221062007Y-224204725D03*
X221062007Y-226204725D03*
X221062007Y-228204725D03*
X221062007Y-230204725D03*
X221062007Y-232204725D03*
X221062007Y-234204725D03*
X221062007Y-236204725D03*
X221062007Y-238204725D03*
X186062007Y-238204725D03*
X186062007Y-236204725D03*
X186062007Y-234204725D03*
X186062007Y-232204725D03*
X186062007Y-230204725D03*
X186062007Y-228204725D03*
X186062007Y-226204725D03*
X186062007Y-224204725D03*
D86*
X209494507Y-234854725D03*
D51*
X250756325Y-184784325D03*
X145931703Y-177913525D03*
D87*
X150109650Y-169370025D03*
X150609650Y-169370025D03*
X151109650Y-169370025D03*
X151609650Y-169370025D03*
X152109650Y-169370025D03*
D88*
X152797150Y-170057525D03*
X152797150Y-170557525D03*
X152797150Y-171057525D03*
X152797150Y-171557525D03*
X152797150Y-172057525D03*
D87*
X152109650Y-172745025D03*
X151609650Y-172745025D03*
X151109650Y-172745025D03*
X150609650Y-172745025D03*
X150109650Y-172745025D03*
D88*
X149422150Y-172057525D03*
X149422150Y-171557525D03*
X149422150Y-171057525D03*
X149422150Y-170557525D03*
X149422150Y-170057525D03*
D42*
X151109650Y-171057525D03*
D33*
X195306325Y-155274325D03*
X194806325Y-155274325D03*
X194306325Y-155274325D03*
X193806325Y-155274325D03*
X193306325Y-155274325D03*
X192806325Y-155274325D03*
X192306325Y-155274325D03*
X191806325Y-155274325D03*
X191306325Y-155274325D03*
X190806325Y-155274325D03*
X190306325Y-155274325D03*
X189806325Y-155274325D03*
X189306325Y-155274325D03*
X188806325Y-155274325D03*
X188306325Y-155274325D03*
D34*
X197606325Y-157974325D03*
X186006325Y-157974325D03*
D87*
X202014825Y-81299900D03*
X202514825Y-81299900D03*
X203014825Y-81299900D03*
X203514825Y-81299900D03*
X204014825Y-81299900D03*
D88*
X204702325Y-81987400D03*
X204702325Y-82487400D03*
X204702325Y-82987400D03*
X204702325Y-83487400D03*
X204702325Y-83987400D03*
D87*
X204014825Y-84674900D03*
X203514825Y-84674900D03*
X203014825Y-84674900D03*
X202514825Y-84674900D03*
X202014825Y-84674900D03*
D88*
X201327325Y-83987400D03*
X201327325Y-83487400D03*
X201327325Y-82987400D03*
X201327325Y-82487400D03*
X201327325Y-81987400D03*
D42*
X203014825Y-82987400D03*
D48*
X154085103Y-184231525D03*
X154085103Y-185251525D03*
D89*
X198417425Y-76575600D03*
X198417425Y-78475600D03*
D90*
X190892000Y-130737453D03*
D91*
X189592000Y-130737453D03*
D92*
X188292000Y-130737453D03*
D53*
X197341000Y-127562453D03*
X196321000Y-127562453D03*
D93*
X203616800Y-214846800D03*
X203616800Y-216546800D03*
X204266800Y-214846800D03*
X204266800Y-216546800D03*
X204916800Y-214846800D03*
X204916800Y-216546800D03*
D33*
X218312125Y-188235925D03*
X218812125Y-188235925D03*
X219312125Y-188235925D03*
X219812125Y-188235925D03*
X220312125Y-188235925D03*
X220812125Y-188235925D03*
D34*
X216012125Y-185535925D03*
X223112125Y-185535925D03*
D55*
X250723397Y-168918525D03*
D31*
X250723397Y-167618525D03*
D56*
X250723397Y-166318525D03*
D64*
X150601650Y-166028125D03*
X150601650Y-163078125D03*
D52*
X183842225Y-84953200D03*
X183342225Y-84953200D03*
X182842225Y-84953200D03*
X182342225Y-84953200D03*
X181842225Y-84953200D03*
X181842225Y-80553200D03*
X182342225Y-80553200D03*
X182842225Y-80553200D03*
X183342225Y-80553200D03*
X183842225Y-80553200D03*
D74*
X191211300Y-134467600D03*
X189636300Y-134467600D03*
D64*
X257381850Y-188897325D03*
X257381850Y-191847325D03*
D63*
X213156800Y-216242400D03*
X213156800Y-214592400D03*
D49*
X181915325Y-74244200D03*
D50*
X183215325Y-74244200D03*
D38*
X253423374Y-178840725D03*
X253423374Y-177820725D03*
D51*
X157227175Y-170141125D03*
D94*
X194436900Y-163195000D03*
X196011900Y-163195000D03*
D89*
X262334850Y-182917925D03*
X262334850Y-184817925D03*
D48*
X183096225Y-77214000D03*
X183096225Y-78234000D03*
D94*
X245948100Y-166573200D03*
X247523100Y-166573200D03*
D89*
X146004250Y-164695325D03*
X146004250Y-166595325D03*
D48*
X206705552Y-80547000D03*
X206705552Y-81567000D03*
D51*
X262229597Y-179196325D03*
D48*
X154560126Y-174152325D03*
X154560126Y-175172325D03*
D90*
X195565600Y-130737453D03*
D91*
X194265600Y-130737453D03*
D92*
X192965600Y-130737453D03*
D43*
X253554650Y-156858175D03*
D44*
X253554650Y-158158175D03*
D95*
X216877200Y-119481600D03*
X214977200Y-119481600D03*
D38*
X154560126Y-171618325D03*
X154560126Y-170598325D03*
D63*
X197307200Y-192542400D03*
X197307200Y-190892400D03*
D68*
X239226725Y-168245525D03*
X239226725Y-168745525D03*
X239226725Y-169245525D03*
X239226725Y-169745525D03*
X239226725Y-170245525D03*
X239226725Y-170745525D03*
X239226725Y-171245525D03*
X239226725Y-171745525D03*
X239226725Y-172245525D03*
X239226725Y-172745525D03*
X239226725Y-173245525D03*
X239226725Y-173745525D03*
X239226725Y-174245525D03*
X239226725Y-174745525D03*
X239226725Y-175245525D03*
D69*
X241926725Y-165945525D03*
X241926725Y-177545525D03*
D36*
X261979250Y-190230125D03*
X261979250Y-188330125D03*
D60*
X154428850Y-198067275D03*
D61*
X154428850Y-196767275D03*
D54*
X244436050Y-156513175D03*
X244436050Y-158163175D03*
D57*
X186550800Y-134467600D03*
X188200800Y-134467600D03*
D48*
X253423374Y-185237525D03*
X253423374Y-186257525D03*
D38*
X253423374Y-176910325D03*
X253423374Y-175890325D03*
D96*
X205613000Y-197739200D03*
X205613000Y-199289200D03*
D63*
X202514200Y-199339200D03*
X202514200Y-197689200D03*
D97*
X207485800Y-194995800D03*
X212985800Y-194995800D03*
D63*
X152371450Y-198412275D03*
X152371450Y-196762275D03*
D43*
X149814250Y-176452725D03*
D44*
X149814250Y-177752725D03*
D48*
X256365850Y-176322125D03*
X256365850Y-177342125D03*
M02*
